<svg width="18" height="21" viewBox="0 0 18 21" fill="none" xmlns="http://www.w3.org/2000/svg">
<path d="M8.92343 11.3154C8.94534 11.3154 8.96725 11.3154 8.99354 11.3154C9.00231 11.3154 9.01107 11.3154 9.01983 11.3154C9.03298 11.3154 9.05051 11.3154 9.06366 11.3154C10.3476 11.2936 11.3862 10.8457 12.1531 9.98903C13.8402 8.10168 13.5598 4.86623 13.5291 4.55747C13.4195 2.23959 12.3152 1.13067 11.4037 0.613171C10.7245 0.226134 9.93133 0.0173949 9.04613 0H9.01545C9.01107 0 9.00231 0 8.99792 0H8.97163C8.48521 0 7.5299 0.0782771 6.61402 0.595776C5.69377 1.11327 4.57193 2.2222 4.46238 4.55747C4.4317 4.86623 4.15124 8.10168 5.83838 9.98903C6.60088 10.8457 7.63945 11.2936 8.92343 11.3154ZM5.63242 4.66618C5.63242 4.65314 5.6368 4.64009 5.6368 4.63139C5.78141 1.51336 8.01194 1.17851 8.96725 1.17851H8.98478C8.99354 1.17851 9.00669 1.17851 9.01983 1.17851C10.203 1.2046 12.2144 1.68296 12.3503 4.63139C12.3503 4.64444 12.3503 4.65749 12.3547 4.66618C12.3591 4.69663 12.6658 7.65376 11.2723 9.2106C10.7201 9.82812 9.98391 10.1325 9.01545 10.1412C9.00669 10.1412 9.00231 10.1412 8.99354 10.1412C8.98478 10.1412 8.9804 10.1412 8.97163 10.1412C8.00755 10.1325 7.26697 9.82812 6.71919 9.2106C5.33005 7.66246 5.62803 4.69228 5.63242 4.66618Z" fill="#7B7E91"/>
<path d="M17.9988 16.6818C17.9988 16.6775 17.9988 16.6731 17.9988 16.6688C17.9988 16.634 17.9944 16.5992 17.9944 16.5601C17.9681 15.699 17.9111 13.6856 16.0093 13.0419C15.9961 13.0376 15.9786 13.0332 15.9654 13.0289C13.9891 12.5288 12.3458 11.3981 12.3282 11.3851C12.0609 11.1981 11.6928 11.2633 11.5044 11.5286C11.316 11.7939 11.3817 12.1591 11.649 12.3461C11.7235 12.3983 13.4676 13.6029 15.6499 14.1596C16.671 14.5205 16.7849 15.6033 16.8156 16.5948C16.8156 16.634 16.8156 16.6688 16.82 16.7036C16.8244 17.095 16.7981 17.6994 16.7279 18.0473C16.018 18.4474 13.2354 19.8303 9.00217 19.8303C4.78652 19.8303 1.98632 18.4431 1.27202 18.043C1.20191 17.6951 1.17123 17.0906 1.18 16.6992C1.18 16.6644 1.18438 16.6296 1.18438 16.5905C1.21505 15.599 1.32899 14.5162 2.35004 14.1552C4.53236 13.5986 6.27646 12.3896 6.35096 12.3418C6.61827 12.1548 6.684 11.7895 6.49557 11.5242C6.30714 11.259 5.93904 11.1937 5.67172 11.3807C5.65419 11.3938 4.01964 12.5244 2.03452 13.0245C2.01699 13.0289 2.00385 13.0332 1.9907 13.0376C0.0888362 13.6856 0.031868 15.699 0.00557494 16.5557C0.00557494 16.5948 0.00557484 16.6296 0.00119267 16.6644C0.00119267 16.6688 0.00119267 16.6731 0.00119267 16.6775C-0.0031895 16.9036 -0.00757158 18.0647 0.224684 18.6474C0.268505 18.7605 0.347384 18.8562 0.452557 18.9214C0.584022 19.0084 3.7348 21.0001 9.00656 21.0001C14.2783 21.0001 17.4291 19.004 17.5606 18.9214C17.6613 18.8562 17.7446 18.7605 17.7884 18.6474C18.0075 18.0691 18.0032 16.908 17.9988 16.6818Z" fill="#7B7E91"/>
</svg>
