<svg width="69" height="69" viewBox="0 0 69 69" fill="none" xmlns="http://www.w3.org/2000/svg">
<g clip-path="url(#clip0)">
<path d="M34.5 69C15.477 69 0 53.523 0 34.5C0 15.477 15.477 0 34.5 0C53.523 0 69 15.477 69 34.5C69 53.523 53.523 69 34.5 69Z" fill="#EC7F82"/>
<path d="M50.6 57.501C31.5771 57.501 16.1 42.024 16.1 23.001C16.1 15.0381 18.8382 7.71726 23.387 1.87207C9.80663 6.51165 0 19.3695 0 34.501C0 53.524 15.477 69.001 34.5 69.001C45.5601 69.001 55.3953 63.7486 61.7131 55.6299C58.2204 56.8233 54.4914 57.501 50.6 57.501Z" fill="#DF575B"/>
<g clip-path="url(#clip1)">
<path d="M37.0069 35.0006L50.377 21.6305C51.2077 20.8006 51.2077 19.4539 50.377 18.624C49.5463 17.7933 48.2011 17.7933 47.3704 18.624L34.0004 31.9941L20.6296 18.624C19.7989 17.7933 18.4537 17.7933 17.623 18.624C16.7923 19.4539 16.7923 20.8006 17.623 21.6305L30.9938 35.0006L17.623 48.3707C16.7923 49.2007 16.7923 50.5473 17.623 51.3773C18.0383 51.7919 18.5827 51.9996 19.1263 51.9996C19.6699 51.9996 20.2142 51.7919 20.6296 51.3766L34.0004 38.0065L47.3704 51.3766C47.7858 51.7919 48.3301 51.9996 48.8737 51.9996C49.4173 51.9996 49.9617 51.7919 50.377 51.3766C51.2077 50.5466 51.2077 49.1999 50.377 48.37L37.0069 35.0006Z" fill="white"/>
</g>
</g>
<defs>
<clipPath id="clip0">
<rect width="69" height="69" fill="white"/>
</clipPath>
<clipPath id="clip1">
<rect width="34" height="34" fill="white" transform="translate(17 18)"/>
</clipPath>
</defs>
</svg>
