<svg width="62" height="46" viewBox="0 0 62 46" fill="none" xmlns="http://www.w3.org/2000/svg">
<path d="M41.3085 26.3243C37.9821 26.3243 35.2758 23.6585 35.2758 20.3819C35.2758 17.1052 37.982 14.4394 41.3085 14.4394C44.635 14.4394 47.3413 17.1051 47.3413 20.3819C47.3413 23.6586 44.635 26.3243 41.3085 26.3243ZM41.3085 16.2294C38.984 16.2294 37.0928 18.0922 37.0928 20.382C37.0928 22.6718 38.984 24.5346 41.3085 24.5346C43.633 24.5346 45.5243 22.6717 45.5243 20.382C45.5243 18.0923 43.6329 16.2294 41.3085 16.2294Z" fill="#1B3D66"/>
<path d="M41.3084 37.3329C31.8195 37.3329 24.0998 29.7287 24.0998 20.3819C24.0998 11.0352 31.8195 3.431 41.3084 3.431C50.7973 3.431 58.5171 11.0352 58.5171 20.3819C58.5169 29.7287 50.7972 37.3329 41.3084 37.3329ZM41.3084 5.22081C32.8216 5.22081 25.9168 12.0221 25.9168 20.3819C25.9168 28.7418 32.8215 35.5431 41.3084 35.5431C49.7954 35.5431 56.7001 28.7418 56.7001 20.3819C56.6999 12.0221 49.7953 5.22081 41.3084 5.22081Z" fill="#1B3D66"/>
<path d="M41.3084 8.65168C40.8066 8.65168 40.3998 8.25101 40.3998 7.75671V0.894964C40.3998 0.400664 40.8066 0 41.3084 0C41.8102 0 42.217 0.400664 42.217 0.894964V7.75671C42.2169 8.25101 41.8101 8.65168 41.3084 8.65168Z" fill="#1B3D66"/>
<path d="M41.3084 40.7637C40.8066 40.7637 40.3998 40.3631 40.3998 39.8688V33.007C40.3998 32.5128 40.8066 32.1121 41.3084 32.1121C41.8102 32.1121 42.217 32.5127 42.217 33.007V39.8688C42.2169 40.3631 41.8101 40.7637 41.3084 40.7637Z" fill="#1B3D66"/>
<path d="M61.0914 21.2768H54.1254C53.6236 21.2768 53.2168 20.8762 53.2168 20.3819C53.2168 19.8876 53.6236 19.4869 54.1254 19.4869H61.0914C61.5932 19.4869 62 19.8876 62 20.3819C62 20.8762 61.5932 21.2768 61.0914 21.2768Z" fill="#1B3D66"/>
<path d="M21.3322 45.7005C21.4834 45.9583 21.8046 46.0683 22.0845 45.9562C22.6598 45.7257 23.2263 45.4557 23.7793 45.1411C30.3834 41.3853 32.6462 33.067 28.8333 26.5618C25.0204 20.0566 16.5757 17.8277 9.97159 21.5835C9.41856 21.8981 8.89785 22.2462 8.40767 22.6217C8.16911 22.8045 8.10517 23.1334 8.2563 23.3912L21.3322 45.7005Z" fill="#ED5575"/>
<path d="M28.8335 26.5618C28.6962 26.3276 28.5521 26.0994 28.4032 25.8763C31.2538 31.574 28.6016 38.8859 22.2353 42.5065C21.5249 42.9105 20.7968 43.2482 20.0596 43.5289L21.3325 45.7007C21.4836 45.9585 21.8049 46.0684 22.0847 45.9563C22.6601 45.7259 23.2265 45.4558 23.7796 45.1413C30.3837 41.3853 32.6464 33.0671 28.8335 26.5618Z" fill="#CC3A60"/>
<path d="M14.7937 39.8405C14.8672 39.966 15.0094 40.0361 15.1552 40.0171C21.9049 39.1333 31.0247 36.4576 35.4485 33.9418C41.5809 30.4543 41.2781 19.4845 41.2781 19.4845C41.2781 19.4845 31.7849 13.7413 25.6525 17.2288C21.2287 19.7447 14.3164 26.1866 10.1646 31.5026C10.0749 31.6174 10.0654 31.7738 10.1389 31.8993L14.7937 39.8405Z" fill="#EBEEF2"/>
<path d="M34.0438 31.5451C29.5673 34.0909 20.6065 37.3534 14.2128 38.8495L14.7937 39.8405C14.8672 39.966 15.0094 40.0361 15.1552 40.0169C21.9049 39.1331 31.0247 36.4574 35.4485 33.9417C41.5809 30.4542 41.2781 19.4844 41.2781 19.4844C41.2781 19.4846 40.1761 28.0576 34.0438 31.5451Z" fill="#D1D6DE"/>
<path d="M27.5972 30.8689C29.6183 30.8689 31.2567 29.2551 31.2567 27.2643C31.2567 25.2735 29.6183 23.6596 27.5972 23.6596C25.5761 23.6596 23.9377 25.2735 23.9377 27.2643C23.9377 29.2551 25.5761 30.8689 27.5972 30.8689Z" fill="#444966"/>
<path d="M30.1722 16.1068L38.6947 30.6472C41.4588 26.0594 41.2781 19.4844 41.2781 19.4844C41.2781 19.4844 35.5878 16.0428 30.1722 16.1068Z" fill="#5C9CEE"/>
<path d="M41.2805 19.6948C41.2805 19.683 41.2804 19.6716 41.2804 19.6606C41.2804 19.6492 41.2803 19.6388 41.2802 19.6285C41.28 19.6197 41.28 19.6102 41.2799 19.6021C41.2798 19.5856 41.2795 19.5703 41.2794 19.5572C41.2794 19.5526 41.2793 19.5493 41.2793 19.5452C41.2792 19.5356 41.2791 19.5262 41.2788 19.5189C41.2788 19.5166 41.2787 19.5146 41.2787 19.5126C41.2786 19.5048 41.2785 19.4981 41.2783 19.4937C41.2783 19.493 41.2783 19.4918 41.2783 19.4912C41.2782 19.4873 41.2782 19.4843 41.2782 19.4843C41.2782 19.4846 40.6169 24.6231 37.4727 28.562L38.6948 30.6471C40.9801 26.854 41.2524 21.703 41.2782 20.032C41.2783 20.0256 41.2785 20.0191 41.2785 20.0128C41.2788 19.986 41.2792 19.9599 41.2794 19.9349C41.2794 19.9315 41.2794 19.9281 41.2795 19.9247C41.28 19.8767 41.2803 19.8326 41.2805 19.792C41.2805 19.7858 41.2805 19.779 41.2805 19.7731C41.2805 19.7573 41.2805 19.7428 41.2805 19.7282C41.2805 19.7169 41.2805 19.7054 41.2805 19.6948Z" fill="#3580D3"/>
<path d="M9.6457 36.9099C7.63216 35.9029 5.26477 35.9643 3.3125 37.0744C1.36059 38.1844 0.122766 40.1734 0.00130898 42.3946C-0.0179449 42.7485 0.176532 43.0804 0.497188 43.2407C1.45032 43.7173 2.48252 43.9546 3.51267 43.9546C4.65882 43.9546 5.80243 43.6608 6.83039 43.0761C8.7823 41.9661 10.0201 39.9771 10.1416 37.7559C10.161 37.4021 9.96648 37.0704 9.6457 36.9099Z" fill="#FCAB29"/>
<path d="M10.0268 37.56C9.467 39.0333 7.96737 40.5758 6.01546 41.6858C4.98749 42.2704 3.91654 42.6881 2.90311 42.9146C1.99236 43.1182 1.12799 43.1674 0.382298 43.0448C0.256845 43.0241 0.168083 42.9693 0.121704 42.8903C0.208044 43.0375 0.336767 43.1606 0.497216 43.2409C1.45035 43.7175 2.48255 43.9547 3.51269 43.9547C4.65885 43.9547 5.80246 43.661 6.83042 43.0762C8.78233 41.9662 10.0202 39.9772 10.1416 37.7561C10.1513 37.5791 10.1075 37.4077 10.0212 37.2605C10.0675 37.3394 10.0714 37.4426 10.0268 37.56Z" fill="#DD8D19"/>
</svg>
