<svg width="69" height="69" viewBox="0 0 69 69" fill="none" xmlns="http://www.w3.org/2000/svg">
<g clip-path="url(#clip0)">
<path d="M34.5 69C15.477 69 0 53.523 0 34.5C0 15.477 15.477 0 34.5 0C53.523 0 69 15.477 69 34.5C69 53.523 53.523 69 34.5 69Z" fill="#C3E678"/>
<path d="M50.6 57.501C31.5771 57.501 16.1 42.024 16.1 23.001C16.1 15.0381 18.8382 7.71726 23.387 1.87207C9.80662 6.51165 0 19.3695 0 34.501C0 53.524 15.477 69.001 34.5 69.001C45.5601 69.001 55.3953 63.7486 61.7131 55.6299C58.2204 56.8233 54.4914 57.501 50.6 57.501Z" fill="#A5D76E"/>
<path d="M27.3623 52.3444C26.7534 52.3444 26.1443 52.1119 25.68 51.6472L11.4041 37.3713C10.4747 36.4425 10.4747 34.9357 11.4041 34.0068C12.3324 33.0773 13.8404 33.0773 14.7687 34.0068L27.3624 46.5998L51.8526 22.1102C52.7808 21.1807 54.2889 21.1807 55.2171 22.1102C56.1466 23.039 56.1466 24.5458 55.2171 25.4748L29.0446 51.6472C28.5804 52.1119 27.9712 52.3444 27.3623 52.3444Z" fill="white"/>
</g>
<defs>
<clipPath id="clip0">
<rect width="69" height="69" fill="white"/>
</clipPath>
</defs>
</svg>
