<svg width="11" height="11" viewBox="0 0 11 11" fill="none" xmlns="http://www.w3.org/2000/svg">
<g clip-path="url(#clip0)">
<path d="M10.4824 2.19879L7.21936 5.46214L10.4824 8.72533C10.9677 9.21087 10.9677 9.99739 10.4824 10.4829C10.2399 10.7254 9.92192 10.8468 9.60413 10.8468C9.28582 10.8468 8.96784 10.7256 8.72552 10.4829L5.46179 7.21936L2.19831 10.4829C1.95583 10.7254 1.63785 10.8468 1.31978 10.8468C1.00181 10.8468 0.684047 10.7256 0.441352 10.4829C-0.0440056 9.99757 -0.0440056 9.21103 0.441352 8.7253L3.70428 5.46211L0.441167 2.19879C-0.044191 1.71343 -0.044191 0.926732 0.441167 0.441376C0.926432 -0.0436097 1.71267 -0.0436097 2.19812 0.441376L5.46176 3.70473L8.72515 0.441376C9.21069 -0.0436097 9.99702 -0.0436097 10.4822 0.441376C10.9677 0.926732 10.9677 1.71343 10.4824 2.19879Z" fill="#FF526A"/>
</g>
<defs>
<clipPath id="clip0">
<rect width="10.7692" height="10.7692" fill="white" transform="translate(0.0771484 0.0769043)"/>
</clipPath>
</defs>
</svg>
