<svg width="30" height="29" viewBox="0 0 30 29" fill="none" xmlns="http://www.w3.org/2000/svg">
<path d="M29.9132 0.546829C29.7631 0.21296 29.4427 0 29.0908 0H0.909289C0.557354 0 0.23706 0.21296 0.0868543 0.546829C-0.0632302 0.880699 -0.0161924 1.27534 0.207722 1.56014L11.0411 15.3401V28.0464C11.0411 28.3764 11.2037 28.6828 11.4709 28.8567C11.6173 28.9519 11.7835 29 11.9503 29C12.0882 29 12.2265 28.9671 12.354 28.9008L18.4408 25.737C18.7501 25.5762 18.9457 25.2458 18.9462 24.8838L18.9581 15.3405L29.7921 1.56001C30.0161 1.27534 30.0633 0.880572 29.9132 0.546829ZM17.3479 14.391C17.214 14.5613 17.1405 14.7753 17.1402 14.9963L17.1286 24.2906L12.8597 26.5096V14.9976C12.8597 14.7762 12.7863 14.5617 12.652 14.391L2.83735 1.90697H27.1626L17.3479 14.391Z" fill="black"/>
</svg>
