<svg width="462" height="46" viewBox="0 0 462 46" fill="none" xmlns="http://www.w3.org/2000/svg">
<path d="M35.1932 40.6362C33.743 40.6362 32.3487 40.0745 31.3169 39.0354C30.2851 37.9964 29.7274 36.6203 29.7274 35.1319C29.7274 33.6716 30.2851 32.2674 31.3169 31.2284C32.3487 30.1893 33.7152 29.6276 35.1932 29.6276C36.6433 29.6276 38.0376 30.1893 39.0694 31.2284C41.1888 33.3907 41.1888 36.873 39.0694 39.0074C38.0097 40.0745 36.6433 40.6362 35.1932 40.6362Z" fill="url(#paint0_linear)"/>
<path d="M5.46581 11.2613C4.01569 11.2613 2.62136 10.6996 1.58955 9.66057C0.557735 8.6215 0 7.24543 0 5.75703C0 4.29671 0.557735 2.89256 1.58955 1.85349C2.62136 0.814414 3.98781 0.22467 5.46581 0.22467C6.91592 0.22467 8.31026 0.786331 9.34207 1.8254C10.3739 2.86448 10.9595 4.24054 10.9595 5.72894C10.9595 7.18926 10.4018 8.59341 9.36995 9.63249C8.31026 10.6996 6.9438 11.2613 5.46581 11.2613Z" fill="url(#paint1_linear)"/>
<path d="M34.9422 11.1209C33.4921 11.1209 32.0977 10.5592 31.0659 9.52015C28.9465 7.38584 28.9186 3.87546 31.0659 1.74115C32.0977 0.702079 33.4642 0.112335 34.9422 0.112335C36.3923 0.112335 37.7866 0.673996 38.8184 1.71307C40.9378 3.84738 40.9378 7.35776 38.8184 9.52015C37.7866 10.5311 36.3923 11.1209 34.9422 11.1209Z" fill="url(#paint2_linear)"/>
<path d="M5.60643 40.6361C4.15632 40.6361 2.76198 40.0745 1.73017 39.0354C0.69836 37.9963 0.140625 36.6203 0.140625 35.1319C0.140625 33.6715 0.69836 32.2674 1.75806 31.2283C1.98115 31.0037 2.23213 30.8071 2.53889 30.6105C2.62255 30.5543 2.70621 30.4982 2.81775 30.442C3.01296 30.3297 3.20817 30.2173 3.40338 30.1331C3.51492 30.0769 3.59858 30.0488 3.71013 29.9927C3.90534 29.9084 4.12843 29.8523 4.37941 29.7961C4.43519 29.7961 4.46307 29.768 4.51885 29.768C4.54673 29.768 4.57462 29.7399 4.60251 29.7399L5.82952 29.6557C5.99685 29.6557 6.13628 29.6838 6.33149 29.7118H6.38726C6.41515 29.7118 6.47092 29.7118 6.52669 29.7118H6.58247H6.63824H6.69401C6.77767 29.7118 6.86133 29.7118 6.97288 29.7118C9.06439 29.7118 11.1559 28.8132 12.6618 27.2405C14.1677 25.6679 15.0043 23.5897 14.9485 21.4835V21.4273V21.3712C14.9485 21.315 14.9206 21.2589 14.9206 21.2027C14.9206 21.1184 14.9206 21.0623 14.8927 20.978V20.8657C14.8927 20.7534 14.8648 20.6691 14.8648 20.5568L14.9485 19.3211C14.9485 19.293 14.9764 19.265 14.9764 19.2369L15.0043 19.1526C15.06 18.928 15.1158 18.6752 15.1995 18.4505C15.2553 18.3101 15.2831 18.2259 15.3389 18.1416C15.4226 17.917 15.5341 17.7204 15.6457 17.5238C15.7014 17.4396 15.7572 17.3553 15.813 17.2711C16.0361 16.9341 16.2313 16.7094 16.4544 16.4847C17.4304 15.4457 18.7969 14.884 20.2749 14.884C21.725 14.884 23.1193 15.4457 24.1511 16.4847C26.2705 18.619 26.2705 22.1294 24.1511 24.2637C23.928 24.4884 23.6771 24.685 23.3703 24.8816C23.2866 24.9377 23.203 24.9939 23.1193 25.0501C22.9241 25.1624 22.7289 25.2747 22.5337 25.359C22.4221 25.4151 22.3106 25.4432 22.2269 25.4994C22.0038 25.5836 21.8086 25.6398 21.5577 25.696L21.4182 25.7241C21.3903 25.7241 21.3625 25.7521 21.3346 25.7521L20.0797 25.8645C19.9402 25.8645 19.7729 25.8364 19.6335 25.8083H19.5219C19.494 25.8083 19.4383 25.8083 19.3825 25.8083H19.3267H19.2709H19.2152C19.1315 25.8083 19.0479 25.8083 18.9363 25.8083C16.8448 25.8083 14.7533 26.707 13.2474 28.2796C11.7415 29.8523 10.9049 31.9585 10.9607 34.0366V34.0928V34.149C10.9607 34.2051 10.9607 34.2613 10.9886 34.3175C10.9886 34.4017 10.9886 34.4579 11.0165 34.5421C11.0165 34.5702 11.0165 34.6545 11.0443 34.7387C11.0443 34.823 11.0722 34.9072 11.0722 34.9915V35.0195L10.9886 36.199C10.9886 36.2271 10.9328 36.3675 10.9328 36.3956C10.877 36.6484 10.7934 36.873 10.7376 37.0696C10.7097 37.1819 10.6539 37.2662 10.5982 37.3785C10.5145 37.5751 10.403 37.7998 10.2914 37.9963C10.2356 38.0806 10.1799 38.1648 10.1241 38.2772C9.92888 38.5861 9.70578 38.8107 9.51058 39.0354C8.45088 40.0745 7.08443 40.6361 5.60643 40.6361Z" fill="url(#paint3_linear)"/>
<path d="M20.3852 40.6361C18.9351 40.6361 17.5408 40.0745 16.509 39.0354C15.4772 37.9963 14.9194 36.6203 14.9194 35.1319C14.9194 33.6715 15.4772 32.2674 16.509 31.2283C16.7321 31.0037 16.9552 30.8071 17.2898 30.5824C17.3735 30.5262 17.4571 30.4701 17.5408 30.4139C17.736 30.3016 17.9312 30.1892 18.1264 30.105C18.238 30.0488 18.3495 30.0207 18.4332 29.9646C18.6284 29.8803 18.8515 29.8242 19.1024 29.768C19.1024 29.768 19.2977 29.7118 19.3255 29.7118L20.5526 29.6276C20.692 29.6276 20.8593 29.6557 21.0266 29.6838H21.1103C21.1661 29.6838 21.2218 29.6838 21.2776 29.6838C21.3055 29.6838 21.3055 29.6838 21.3334 29.6838H21.3613H21.4171C21.5007 29.6838 21.6123 29.6838 21.6959 29.6838C23.7874 29.6838 25.851 28.7851 27.3569 27.2124C28.8628 25.6398 29.6994 23.5617 29.6436 21.4554V21.2027L29.6158 21.1746V21.1465C29.6158 21.0903 29.6158 21.0342 29.6158 20.978L29.5879 20.8095C29.5879 20.7253 29.56 20.6129 29.56 20.5287L29.6436 19.3492C29.6436 19.3211 29.6994 19.1807 29.6994 19.1245C29.7552 18.8437 29.8389 18.619 29.8946 18.4505C29.9225 18.3382 29.9783 18.2259 30.0341 18.1416C30.1177 17.945 30.2293 17.7485 30.3408 17.5519L30.3687 17.5238C30.4245 17.4396 30.4524 17.3834 30.5081 17.2991C30.7312 16.9621 30.9264 16.7094 31.1495 16.5128C32.1813 15.4737 33.5478 14.9121 35.0258 14.9121C36.4759 14.9121 37.8702 15.4737 38.9021 16.5128C41.0214 18.6471 41.0214 22.1575 38.9021 24.3199C38.7068 24.5165 38.4559 24.7411 38.1212 24.9377C38.0654 24.9939 38.0097 25.022 37.9539 25.0501L37.8702 25.1062C37.675 25.2186 37.4798 25.3309 37.2846 25.4151C37.1731 25.4713 37.0615 25.4994 36.95 25.5555C36.7548 25.6398 36.5596 25.696 36.2807 25.7521C36.2249 25.7521 36.197 25.7802 36.1413 25.7802C36.1134 25.7802 36.0855 25.8083 36.0576 25.8083L34.8306 25.8925C34.6633 25.8925 34.4681 25.8645 34.2728 25.8364C34.2171 25.8364 34.1613 25.8364 34.1055 25.8364C34.0776 25.8364 34.0776 25.8364 34.0498 25.8364H33.9382C33.8545 25.8364 33.7709 25.8364 33.6593 25.8364C31.5678 25.8364 29.5042 26.735 27.9704 28.3077C26.4646 29.8803 25.628 31.9585 25.6837 34.0647V34.1209V34.177C25.6837 34.2332 25.7116 34.2894 25.7116 34.3736C25.7116 34.4298 25.7116 34.514 25.7395 34.5702C25.7395 34.6264 25.7395 34.6825 25.7674 34.7668C25.7674 34.851 25.7953 34.9634 25.7953 35.0476L25.7116 36.2552C25.7116 36.2833 25.6558 36.4518 25.6558 36.4518C25.6001 36.7045 25.5443 36.9292 25.4606 37.1538C25.4327 37.2662 25.377 37.3504 25.3491 37.4347L25.3212 37.4627C25.2375 37.6593 25.126 37.8559 25.0144 38.0525C24.9587 38.1367 24.9029 38.2491 24.8471 38.3333C24.624 38.6422 24.4288 38.895 24.2057 39.1196C23.2297 40.0745 21.8354 40.6361 20.3852 40.6361Z" fill="url(#paint4_linear)"/>
<path d="M5.60545 25.7802C4.15534 25.7802 2.761 25.2186 1.72919 24.1795C0.697377 23.1404 0.139642 21.7643 0.111755 20.2759C0.111755 18.8156 0.669491 17.4115 1.7013 16.3724C1.95228 16.1477 2.20326 15.9512 2.51002 15.7265C2.59368 15.6703 2.67734 15.6142 2.78888 15.558C2.98409 15.4457 3.1793 15.3333 3.37451 15.2491C3.48605 15.1929 3.5976 15.1648 3.70915 15.1087C3.90436 15.0244 4.12745 14.9683 4.35054 14.9121L4.48998 14.884C4.51786 14.884 4.54575 14.8559 4.57364 14.8559L5.80065 14.7717C5.96798 14.7717 6.1353 14.7998 6.3305 14.8278H6.35839C6.41416 14.8278 6.46994 14.8278 6.52571 14.8278C6.5536 14.8278 6.5536 14.8278 6.58148 14.8278H6.63726H6.69303C6.77669 14.8278 6.88824 14.8278 6.9719 14.8278C9.06341 14.8278 11.127 13.9292 12.6329 12.3565C14.1388 10.7839 14.9754 8.67766 14.9196 6.59951V6.54334V6.48718C14.9196 6.43101 14.8917 6.34676 14.8917 6.2906C14.8917 6.23443 14.8917 6.17827 14.8917 6.1221L14.8639 5.9536C14.8639 5.84127 14.836 5.75702 14.836 5.64469L14.9196 4.49328V4.4652V4.43712C14.9196 4.40904 14.9754 4.26862 14.9754 4.26862C15.0312 3.95971 15.1148 3.76313 15.1706 3.56654C15.1985 3.45421 15.2543 3.36996 15.31 3.25763C15.3937 3.06105 15.5052 2.86447 15.6168 2.66789V2.6398C15.6726 2.55556 15.7005 2.47131 15.7562 2.41514C15.9793 2.10623 16.1745 1.85348 16.3697 1.62882C17.4294 0.561661 18.7959 0 20.2739 0C21.724 0 23.1183 0.56166 24.1501 1.60073C26.2695 3.73504 26.2695 7.24542 24.1501 9.37973C23.927 9.6044 23.6761 9.80098 23.3693 9.99756C23.2857 10.0537 23.202 10.1099 23.1462 10.138L23.1183 10.1661C22.9231 10.2784 22.7279 10.3907 22.5327 10.475C22.4212 10.5311 22.3096 10.5592 22.226 10.6154C22.0308 10.6996 21.8077 10.7558 21.5567 10.812C21.5009 10.812 21.4451 10.84 21.4172 10.84C21.3894 10.84 21.3615 10.8681 21.3336 10.8681L20.0787 11.0085C19.9392 11.0085 19.7719 10.9805 19.5767 10.9524H19.5209C19.4652 10.9524 19.4094 10.9524 19.3536 10.9524C19.3257 10.9524 19.3257 10.9524 19.2978 10.9524H19.27H19.2142C19.1305 10.9524 19.0469 10.9524 18.9353 10.9524C16.8438 10.9524 14.7802 11.851 13.2464 13.4237C11.7405 14.9963 10.9039 17.1026 10.9597 19.1807V19.2369V19.293C10.9597 19.3492 10.9876 19.4054 10.9876 19.4896C10.9876 19.5458 10.9876 19.63 11.0155 19.6862C11.0155 19.7424 11.0155 19.7985 11.0434 19.8547C11.0434 19.9389 11.0713 20.0232 11.0713 20.1355L10.9876 21.3431C10.9876 21.3712 10.9597 21.3993 10.9597 21.4273L10.9318 21.5397C10.876 21.8205 10.8203 22.0452 10.7366 22.2418C10.7087 22.3541 10.653 22.4664 10.5972 22.5507C10.5135 22.7473 10.402 22.9438 10.2904 23.1404C10.2347 23.2247 10.1789 23.337 10.1231 23.4212C9.90001 23.7582 9.7048 23.9829 9.48171 24.2076C8.4499 25.1905 7.08345 25.7802 5.60545 25.7802Z" fill="url(#paint5_linear)"/>
<path d="M75.8799 6.82416C76.3261 6.82416 76.6328 7.04882 76.7444 7.49815L83.0746 30.6105H83.2977L89.628 7.49815C89.7675 7.04882 90.0742 6.82416 90.4925 6.82416H93.337C93.7832 6.82416 93.8947 7.04882 93.7832 7.49815L85.696 36.9853C85.5566 37.4347 85.2498 37.6593 84.8315 37.6593H82.2102C81.764 37.6593 81.513 37.4347 81.3457 36.9853L74.6529 12.5531H74.4855L67.7927 36.9853C67.6254 37.4347 67.3465 37.6593 66.9282 37.6593H64.3069C63.8607 37.6593 63.5539 37.4347 63.4424 36.9853L55.3552 7.49815C55.2158 7.04882 55.3552 6.82416 55.8014 6.82416H58.6458C59.092 6.82416 59.3988 7.04882 59.5103 7.49815L65.8406 30.6105H66.0637L72.394 7.49815C72.5335 7.10499 72.8402 6.82416 73.2585 6.82416H75.8799Z" fill="#3B4956"/>
<path d="M99.3605 27.9426V31.2564C99.3605 33.2503 100.671 34.5702 102.651 34.5702H107.894C109.874 34.5702 111.185 33.2503 111.185 31.2564V31.0317C111.185 30.5824 111.408 30.3578 111.854 30.3578H114.252C114.698 30.3578 114.921 30.5824 114.921 31.0317V31.2564C114.921 35.6654 112.523 38.0806 107.922 38.0806H102.623C98.022 38.0806 95.6237 35.6654 95.6237 31.2564V21.5678C95.6237 17.1587 98.022 14.7436 102.623 14.7436H107.866C112.467 14.7436 114.866 17.1587 114.866 21.5678V27.2967C114.866 27.746 114.642 27.9707 114.196 27.9707H99.3605V27.9426ZM111.157 24.4322V21.5678C111.157 19.5739 109.846 18.254 107.866 18.254H102.623C100.643 18.254 99.3327 19.5739 99.3327 21.5678V24.4322H111.157Z" fill="#3B4956"/>
<path d="M121.865 14.0977C121.865 9.04276 124.487 6.40295 129.729 6.40295H139.796C145.039 6.40295 147.66 9.04276 147.66 14.0977V15.8669C147.66 16.3163 147.437 16.5409 146.991 16.5409H144.147C143.701 16.5409 143.477 16.3163 143.477 15.8669V14.0977C143.477 11.6826 142.167 10.3627 139.768 10.3627H129.701C127.303 10.3627 125.992 11.6826 125.992 14.0977V30.3859C125.992 32.801 127.303 34.1209 129.701 34.1209H139.768C142.167 34.1209 143.477 32.801 143.477 30.3859V28.6166C143.477 28.1673 143.701 27.9426 144.147 27.9426H146.991C147.437 27.9426 147.66 28.1673 147.66 28.6166V30.3859C147.66 35.4408 145.039 38.0806 139.796 38.0806H129.729C124.487 38.0806 121.865 35.4408 121.865 30.3859V14.0977Z" fill="#3B4956"/>
<path d="M173.233 31.2564C173.233 35.6654 170.834 38.0806 166.233 38.0806H160.767C156.166 38.0806 153.768 35.6654 153.768 31.2564V21.5678C153.768 17.1587 156.166 14.7436 160.767 14.7436H166.233C170.834 14.7436 173.233 17.1587 173.233 21.5678V31.2564ZM169.524 21.5678C169.524 19.5739 168.213 18.254 166.233 18.254H160.767C158.787 18.254 157.477 19.5739 157.477 21.5678V31.2564C157.477 33.2503 158.787 34.5702 160.767 34.5702H166.233C168.213 34.5702 169.524 33.2503 169.524 31.2564V21.5678Z" fill="#3B4956"/>
<path d="M196.602 36.9853C196.602 37.4347 196.379 37.6593 195.932 37.6593H193.534C193.088 37.6593 192.865 37.4347 192.865 36.9853V21.5678C192.865 19.5739 191.554 18.254 189.574 18.254H188.04C185.419 18.254 183.439 20.2479 183.439 22.8877V36.9853C183.439 37.4347 183.216 37.6593 182.77 37.6593H180.427C179.981 37.6593 179.758 37.4347 179.758 36.9853V15.8388C179.758 15.3895 179.981 15.1648 180.427 15.1648H182.826C183.272 15.1648 183.495 15.3895 183.495 15.8388V17.3834H183.718C183.718 17.3834 184.806 14.7436 188.515 14.7436H189.602C193.534 14.7436 194.622 17.3834 194.622 17.3834H194.845C194.845 17.3834 195.932 14.7436 199.864 14.7436H202.737C207.338 14.7436 209.736 17.1587 209.736 21.5678V36.9853C209.736 37.4347 209.513 37.6593 209.067 37.6593H206.669C206.223 37.6593 206 37.4347 206 36.9853V21.5678C206 19.5739 204.689 18.254 202.709 18.254H199.864C197.884 18.254 196.574 19.5739 196.574 21.5678V36.9853H196.602Z" fill="#3B4956"/>
<path d="M220.445 37.6313V45.326C220.445 45.7753 220.222 46 219.776 46H217.377C216.931 46 216.708 45.7753 216.708 45.326V15.8388C216.708 15.3895 216.931 15.1648 217.377 15.1648H219.776C220.222 15.1648 220.445 15.3895 220.445 15.8388V17.3834H220.668C220.668 17.3834 221.756 14.7436 225.464 14.7436H228.755C233.356 14.7436 235.755 17.1587 235.755 21.5678V30.8071C235.755 35.2161 233.356 37.6313 228.755 37.6313H220.445ZM228.755 34.1209C230.735 34.1209 232.046 32.801 232.046 30.8071V21.5678C232.046 19.5739 230.735 18.254 228.755 18.254H225.046C222.425 18.254 220.445 20.2479 220.445 22.8877V34.1209H228.755Z" fill="#3B4956"/>
<path d="M241.416 30.8071C241.416 26.6227 243.591 24.4322 247.969 24.4322H256.056V21.5678C256.056 19.5739 254.746 18.254 252.766 18.254H249.698C247.718 18.254 246.407 19.5739 246.407 21.5678C246.407 22.0171 246.184 22.2418 245.738 22.2418H243.34C242.894 22.2418 242.671 22.0171 242.671 21.5678C242.671 17.1587 245.069 14.7436 249.67 14.7436H252.738C257.339 14.7436 259.737 17.1587 259.737 21.5678V36.9853C259.737 37.4347 259.514 37.6593 259.068 37.6593H256.67C256.224 37.6593 256.001 37.4347 256.001 36.9853V35.4408H255.777C255.777 35.4408 254.69 38.0806 250.981 38.0806H247.913C243.535 38.0806 241.36 35.8901 241.36 31.7057V30.8071H241.416ZM245.125 31.7057C245.125 33.475 246.212 34.5702 247.969 34.5702H251.455C254.076 34.5702 256.056 32.5763 256.056 29.9365V27.9426H247.969C246.212 27.9426 245.125 29.0379 245.125 30.8071V31.7057Z" fill="#3B4956"/>
<path d="M266.765 15.8388C266.765 15.3895 266.988 15.1648 267.434 15.1648H269.832C270.278 15.1648 270.502 15.3895 270.502 15.8388V17.3834H270.725C270.725 17.3834 271.812 14.7436 275.521 14.7436H277.919C278.366 14.7436 278.589 14.9683 278.589 15.4176V17.6081C278.589 18.0574 278.366 18.2821 277.919 18.2821H275.075C272.454 18.2821 270.474 20.2759 270.474 22.9158V37.0134C270.474 37.4628 270.251 37.6874 269.804 37.6874H267.434C266.988 37.6874 266.765 37.4628 266.765 37.0134V15.8388Z" fill="#3B4956"/>
<path d="M285.784 27.9426V31.2564C285.784 33.2503 287.094 34.5702 289.074 34.5702H294.317C296.297 34.5702 297.608 33.2503 297.608 31.2564V31.0317C297.608 30.5824 297.831 30.3578 298.277 30.3578H300.675C301.121 30.3578 301.344 30.5824 301.344 31.0317V31.2564C301.344 35.6654 298.946 38.0806 294.345 38.0806H289.102C284.501 38.0806 282.103 35.6654 282.103 31.2564V21.5678C282.103 17.1587 284.501 14.7436 289.102 14.7436H294.345C298.946 14.7436 301.344 17.1587 301.344 21.5678V27.2967C301.344 27.746 301.121 27.9707 300.675 27.9707H285.784V27.9426ZM297.58 24.4322V21.5678C297.58 19.5739 296.269 18.254 294.289 18.254H289.046C287.066 18.254 285.756 19.5739 285.756 21.5678V24.4322H297.58Z" fill="#3B4956"/>
<path d="M333.219 29.9365C333.219 34.9914 330.598 37.6312 325.355 37.6312H309.404C308.958 37.6312 308.734 37.4066 308.734 36.9573V7.47007C308.734 7.02075 308.958 6.79608 309.348 6.79608H323.598C328.841 6.79608 331.462 9.43589 331.462 14.4908C331.462 14.547 331.462 15.3333 331.462 15.3614C331.462 19.7704 328.171 20.641 328.171 20.641V20.8657C328.171 20.8657 333.191 21.7363 333.191 26.8193V29.9365H333.219ZM327.307 14.5189C327.307 12.1038 325.996 10.7839 323.598 10.7839H312.89V19.1526H323.598C325.996 19.1526 327.307 17.8327 327.307 15.4176C327.307 15.3614 327.307 14.5751 327.307 14.5189ZM329.064 26.8474C329.064 24.4322 327.753 23.1123 325.355 23.1123H312.89V33.6715H325.355C327.753 33.6715 329.064 32.3516 329.064 29.9365C329.064 29.8803 329.064 26.9035 329.064 26.8474Z" fill="#3B4956"/>
<path d="M339.772 15.8388C339.772 15.3895 339.995 15.1648 340.442 15.1648H342.84C343.286 15.1648 343.509 15.3895 343.509 15.8388V17.3834H343.732C343.732 17.3834 344.82 14.7436 348.529 14.7436H350.927C351.373 14.7436 351.596 14.9683 351.596 15.4176V17.6081C351.596 18.0574 351.373 18.2821 350.927 18.2821H348.083C345.461 18.2821 343.481 20.2759 343.481 22.9158V37.0134C343.481 37.4628 343.258 37.6874 342.812 37.6874H340.414C339.967 37.6874 339.744 37.4628 339.744 37.0134V15.8388H339.772Z" fill="#3B4956"/>
<path d="M374.519 31.2564C374.519 35.6654 372.121 38.0806 367.52 38.0806H362.054C357.453 38.0806 355.054 35.6654 355.054 31.2564V21.5678C355.054 17.1587 357.453 14.7436 362.054 14.7436H367.52C372.121 14.7436 374.519 17.1587 374.519 21.5678V31.2564ZM370.81 21.5678C370.81 19.5739 369.5 18.254 367.52 18.254H362.054C360.074 18.254 358.763 19.5739 358.763 21.5678V31.2564C358.763 33.2503 360.074 34.5702 362.054 34.5702H367.52C369.5 34.5702 370.81 33.2503 370.81 31.2564V21.5678Z" fill="#3B4956"/>
<path d="M390.275 27.5213H384.809V36.9853C384.809 37.4347 384.586 37.6593 384.14 37.6593H381.742C381.296 37.6593 381.073 37.4347 381.073 36.9853V7.49815C381.073 7.04882 381.296 6.82416 381.742 6.82416H384.14C384.586 6.82416 384.809 7.04882 384.809 7.49815V24.011H390.275L394.653 15.8669C394.877 15.4176 395.1 15.1929 395.741 15.1929H398.362C398.809 15.1929 399.032 15.4176 398.809 15.8669L393.343 25.7802L399.45 37.0134C399.673 37.4627 399.45 37.6874 399.004 37.6874H396.382C395.713 37.6874 395.518 37.4627 395.295 37.0134L390.275 27.5213Z" fill="#3B4956"/>
<path d="M406.756 27.9426V31.2564C406.756 33.2503 408.067 34.5702 410.047 34.5702H415.29C417.27 34.5702 418.58 33.2503 418.58 31.2564V31.0317C418.58 30.5824 418.803 30.3578 419.25 30.3578H421.648C422.094 30.3578 422.317 30.5824 422.317 31.0317V31.2564C422.317 35.6654 419.919 38.0806 415.318 38.0806H410.075C405.474 38.0806 403.075 35.6654 403.075 31.2564V21.5678C403.075 17.1587 405.474 14.7436 410.075 14.7436H415.318C419.919 14.7436 422.317 17.1587 422.317 21.5678V27.2967C422.317 27.746 422.094 27.9707 421.648 27.9707H406.756V27.9426ZM418.552 24.4322V21.5678C418.552 19.5739 417.242 18.254 415.262 18.254H410.019C408.039 18.254 406.728 19.5739 406.728 21.5678V24.4322H418.552Z" fill="#3B4956"/>
<path d="M428.815 15.8388C428.815 15.3895 429.038 15.1648 429.484 15.1648H431.882C432.329 15.1648 432.552 15.3895 432.552 15.8388V17.3834H432.775C432.775 17.3834 433.862 14.7436 437.571 14.7436H439.97C440.416 14.7436 440.639 14.9683 440.639 15.4176V17.6081C440.639 18.0574 440.416 18.2821 439.97 18.2821H437.125C434.504 18.2821 432.524 20.2759 432.524 22.9158V37.0134C432.524 37.4628 432.301 37.6874 431.854 37.6874H429.456C429.01 37.6874 428.787 37.4628 428.787 37.0134V15.8388H428.815Z" fill="#3B4956"/>
<path d="M443.678 21.1184C443.678 16.9341 445.854 14.7436 450.232 14.7436H454.61C459.211 14.7436 461.61 17.1587 461.61 21.5678V22.0171C461.61 22.4664 461.387 22.6911 460.94 22.6911H458.542C458.096 22.6911 457.873 22.4664 457.873 22.0171V21.5678C457.873 19.5739 456.562 18.254 454.582 18.254H450.204C448.447 18.254 447.359 19.3492 447.359 21.1184V21.3431C447.359 22.2137 448.029 22.8315 448.893 23.1123L458.514 26.2015C460.494 26.8193 462 28.3919 462 31.0317V31.7057C462 35.8901 459.825 38.0806 455.447 38.0806H450.204C445.603 38.0806 443.204 35.6654 443.204 31.2564V30.8071C443.204 30.3578 443.427 30.1331 443.874 30.1331H446.272C446.718 30.1331 446.941 30.3578 446.941 30.8071V31.2564C446.941 33.2503 448.252 34.5702 450.232 34.5702H455.475C457.231 34.5702 458.319 33.475 458.319 31.7057V31.2564C458.319 30.3858 457.65 29.768 456.785 29.4872L447.164 26.398C445.184 25.7802 443.678 24.2076 443.678 21.5678V21.1184Z" fill="#3B4956"/>
<defs>
<linearGradient id="paint0_linear" x1="29.7164" y1="35.1367" x2="40.6538" y2="35.1367" gradientUnits="userSpaceOnUse">
<stop stop-color="#FF94A9"/>
<stop offset="0.5" stop-color="#FF1535"/>
<stop offset="1" stop-color="#FF2A30"/>
</linearGradient>
<linearGradient id="paint1_linear" x1="0" y1="5.76298" x2="10.9409" y2="5.76298" gradientUnits="userSpaceOnUse">
<stop stop-color="#FF94A9"/>
<stop offset="0.5" stop-color="#FF1535"/>
<stop offset="1" stop-color="#FF2A30"/>
</linearGradient>
<linearGradient id="paint2_linear" x1="29.4754" y1="5.60127" x2="40.4099" y2="5.60127" gradientUnits="userSpaceOnUse">
<stop stop-color="#FF94A9"/>
<stop offset="0.5" stop-color="#FF1535"/>
<stop offset="1" stop-color="#FF2A30"/>
</linearGradient>
<linearGradient id="paint3_linear" x1="0.144501" y1="27.7588" x2="25.7363" y2="27.7588" gradientUnits="userSpaceOnUse">
<stop stop-color="#2A79FF"/>
<stop offset="1" stop-color="#0061BF"/>
</linearGradient>
<linearGradient id="paint4_linear" x1="14.9137" y1="27.7591" x2="40.5029" y2="27.7591" gradientUnits="userSpaceOnUse">
<stop stop-color="#2A79FF"/>
<stop offset="1" stop-color="#0061BF"/>
</linearGradient>
<linearGradient id="paint5_linear" x1="0.144355" y1="12.8856" x2="25.7343" y2="12.8856" gradientUnits="userSpaceOnUse">
<stop stop-color="#2A79FF"/>
<stop offset="1" stop-color="#0061BF"/>
</linearGradient>
</defs>
</svg>
