<svg width="17" height="10" viewBox="0 0 17 10" fill="none" xmlns="http://www.w3.org/2000/svg">
<path d="M0.707977 1.74917L0.707888 1.74908C0.430656 1.46314 0.430777 0.993451 0.707804 0.707857L0.707973 0.707683C0.976326 0.430763 1.40495 0.430784 1.67325 0.707669L1.67326 0.707678L8.14105 7.38215L8.50012 7.75269L8.85919 7.38215L15.3267 0.70795C15.3267 0.707924 15.3267 0.707898 15.3268 0.707871C15.5954 0.430901 16.0239 0.431033 16.2922 0.707878L16.2923 0.70795C16.5692 0.993616 16.5693 1.4634 16.2922 1.74936L16.2922 1.74936L8.98266 9.29236C8.84644 9.43287 8.6725 9.5 8.50016 9.5C8.32777 9.5 8.15362 9.43271 8.01748 9.29226C8.01747 9.29225 8.01746 9.29224 8.01745 9.29223L0.707977 1.74917Z" fill="#3B4956" stroke="#2A79FF"/>
</svg>
