<svg width="18" height="18" viewBox="0 0 18 18" fill="none" xmlns="http://www.w3.org/2000/svg">
<path d="M15.364 2.63951C13.6929 0.969297 11.4802 0.0374767 9.12188 0.00632815C9.0808 0.00260157 9.04003 0 9 0C8.95997 0 8.9192 0.00260157 8.87812 0.00632815C6.51975 0.0374416 4.30712 0.969262 2.63601 2.63947C0.936157 4.33847 0 6.59734 0 9C0 11.4027 0.936157 13.6616 2.63604 15.3605C4.30715 17.0307 6.51975 17.9626 8.87815 17.9937C8.91924 17.9974 8.96001 18 9 18C9.04003 18 9.0808 17.9974 9.12188 17.9937C11.4803 17.9626 13.6929 17.0307 15.364 15.3605C17.0638 13.6616 18 11.4027 18 9C18 6.59734 17.0639 4.33847 15.364 2.63951ZM3.39259 3.39565C4.34869 2.44006 5.50614 1.75905 6.76914 1.3911C6.48447 1.71866 6.20775 2.09539 5.95019 2.51287C5.62169 3.04535 5.33726 3.62248 5.09909 4.23269H2.66372C2.88533 3.93973 3.12825 3.65985 3.39259 3.39565ZM1.98206 5.30204H4.73886C4.45218 6.30477 4.28263 7.37303 4.24074 8.46534H1.08808C1.16212 7.34723 1.46776 6.27418 1.98206 5.30204ZM1.9821 12.698C1.46773 11.7259 1.16209 10.6528 1.08804 9.53469H4.24071C4.2826 10.627 4.45214 11.6953 4.73882 12.698H1.9821ZM3.39263 14.6044C3.12821 14.3402 2.88529 14.0603 2.66372 13.7673H5.09912C5.3373 14.3776 5.62169 14.9547 5.95023 15.4872C6.20778 15.9046 6.48451 16.2814 6.76918 16.6089C5.50621 16.241 4.34876 15.56 3.39263 14.6044ZM8.46502 16.7106C8.01931 16.4192 7.42084 15.8336 6.86085 14.9259C6.63625 14.5619 6.43438 14.1742 6.25594 13.7674H8.46498V16.7106H8.46502ZM8.46502 12.698H5.85518C5.54254 11.7072 5.35699 10.636 5.31141 9.53469H8.46502V12.698ZM8.46502 8.46534H5.31141C5.35696 7.364 5.54251 6.29278 5.85518 5.30204H8.46502V8.46534ZM8.46502 4.23265H6.25597C6.43442 3.82582 6.63629 3.43812 6.86088 3.07411C7.42084 2.16644 8.01935 1.58084 8.46505 1.28943V4.23265H8.46502ZM16.0179 5.30204C16.5323 6.27422 16.8379 7.34723 16.912 8.46534H13.7593C13.7174 7.373 13.5478 6.30474 13.2611 5.30204H16.0179ZM14.6074 3.39565C14.8718 3.65985 15.1147 3.93973 15.3363 4.23269H12.9009C12.6628 3.62248 12.3784 3.04535 12.0498 2.51287C11.7923 2.09539 11.5156 1.71866 11.2309 1.3911C12.4939 1.75905 13.6513 2.44006 14.6074 3.39565ZM9.53498 1.28943C9.98069 1.58088 10.5792 2.16644 11.1392 3.07411C11.3637 3.43812 11.5656 3.82582 11.7441 4.23265H9.53502V1.28943H9.53498ZM9.53498 5.30204H12.1448C12.4575 6.29282 12.643 7.36407 12.6886 8.46534H9.53498V5.30204ZM12.6886 9.53469C12.643 10.636 12.4575 11.7073 12.1448 12.698H9.53495V9.53469H12.6886ZM9.53498 16.7106V13.7674H11.744C11.5656 14.1742 11.3637 14.5619 11.1391 14.9259C10.5792 15.8336 9.98069 16.4192 9.53498 16.7106ZM14.6074 14.6044C13.6513 15.56 12.4939 16.241 11.2309 16.609C11.5156 16.2814 11.7923 15.9047 12.0498 15.4872C12.3783 14.9547 12.6628 14.3776 12.9009 13.7674H15.3363C15.1147 14.0603 14.8718 14.3402 14.6074 14.6044ZM16.0179 12.698H13.2611C13.5478 11.6953 13.7174 10.627 13.7593 9.53469H16.9119C16.8379 10.6528 16.5322 11.7259 16.0179 12.698Z" fill="#7B7E91"/>
</svg>
