<?xml version="1.0" encoding="utf-8"?>
<!-- Generator: Adobe Illustrator 21.1.0, SVG Export Plug-In . SVG Version: 6.00 Build 0)  -->
<svg version="1.1" id="Layer_1" xmlns="http://www.w3.org/2000/svg" xmlns:xlink="http://www.w3.org/1999/xlink" x="0px" y="0px"
	 viewBox="0 0 311.3 53.8" style="enable-background:new 0 0 311.3 53.8;" xml:space="preserve">
<style type="text/css">
	.st0{fill:#FFFFFF;}
</style>
<path class="st0" d="M0,53.7h311.3V21.3c0,0.1-0.1,0.1-0.2,0.2l-13.1,12.8l3.1,18c0.1,0.4-0.1,0.8-0.4,1c-0.2,0.1-0.4,0.2-0.6,0.2
	c-0.2,0-0.3,0-0.5-0.1l-16.2-8.5l-16.2,8.5c-0.3,0.2-0.7,0.1-1.1-0.1c-0.3-0.2-0.5-0.6-0.4-1l3.1-18l-13.1-12.8
	c-0.3-0.3-0.4-0.7-0.3-1c0.1-0.4,0.4-0.6,0.8-0.7l18.1-2.6l8.1-16.4c0.2-0.3,0.5-0.6,0.9-0.6c0.4,0,0.7,0.2,0.9,0.6l8.1,16.4
	l18.1,2.6c0.3,0,0.6,0.2,0.7,0.5V0H0V53.7z M191.8,20.5c0.1-0.4,0.4-0.6,0.8-0.7l18.1-2.6l8.1-16.4c0.2-0.3,0.5-0.6,0.9-0.6
	s0.7,0.2,0.9,0.6l8.1,16.4l18.1,2.6c0.4,0.1,0.7,0.3,0.8,0.7c0.1,0.4,0,0.8-0.3,1l-13.1,12.8l3.1,18c0.1,0.4-0.1,0.8-0.4,1
	c-0.2,0.1-0.4,0.2-0.6,0.2c-0.2,0-0.3,0-0.5-0.1l-16.2-8.5l-16.2,8.5c-0.3,0.2-0.7,0.1-1.1-0.1c-0.3-0.2-0.5-0.6-0.4-1l3.1-18
	l-13.1-12.8C191.8,21.2,191.7,20.8,191.8,20.5z M128,20.5c0.1-0.4,0.4-0.6,0.8-0.7l18.1-2.6L155,0.8c0.2-0.3,0.5-0.6,0.9-0.6
	c0.4,0,0.7,0.2,0.9,0.6l8.1,16.4l18.1,2.6c0.4,0.1,0.7,0.3,0.8,0.7c0.1,0.4,0,0.8-0.3,1l-13.1,12.8l3.1,18c0.1,0.4-0.1,0.8-0.4,1
	c-0.2,0.1-0.4,0.2-0.6,0.2c-0.2,0-0.3,0-0.5-0.1l-16.2-8.5l-16.2,8.5c-0.3,0.2-0.7,0.1-1.1-0.1c-0.3-0.2-0.5-0.6-0.4-1l3.1-18
	l-13.1-12.8C128,21.2,127.9,20.8,128,20.5z M64.1,20.5c0.1-0.4,0.4-0.6,0.8-0.7L83,17.1l8.1-16.4c0.2-0.3,0.5-0.6,0.9-0.6
	s0.7,0.2,0.9,0.6l8.1,16.4l18.1,2.6c0.4,0.1,0.7,0.3,0.8,0.7c0.1,0.4,0,0.8-0.3,1l-13.1,12.8l3.1,18c0.1,0.4-0.1,0.8-0.4,1
	c-0.2,0.1-0.4,0.2-0.6,0.2c-0.2,0-0.3,0-0.5-0.1L92,44.8l-16.2,8.5c-0.3,0.2-0.7,0.1-1.1-0.1c-0.3-0.2-0.5-0.6-0.4-1l3.1-18
	L64.4,21.5C64.1,21.2,64,20.8,64.1,20.5z M0.3,20.5c0.1-0.4,0.4-0.6,0.8-0.7l18.1-2.6l8.1-16.4c0.2-0.3,0.5-0.6,0.9-0.6
	c0.4,0,0.7,0.2,0.9,0.6l8.1,16.4l18.1,2.6c0.4,0.1,0.7,0.3,0.8,0.7c0.1,0.4,0,0.8-0.3,1L42.7,34.2l3.1,18c0.1,0.4-0.1,0.8-0.4,1
	c-0.2,0.1-0.4,0.2-0.6,0.2c-0.2,0-0.3,0-0.5-0.1l-16.2-8.5L12,53.3c-0.3,0.2-0.7,0.2-1.1-0.1c-0.3-0.2-0.5-0.6-0.4-1l3.1-18
	L0.5,21.5C0.3,21.2,0.2,20.8,0.3,20.5z"/>
</svg>
