<?xml version="1.0" standalone="no"?>
<!DOCTYPE svg PUBLIC "-//W3C//DTD SVG 1.1//EN" "http://www.w3.org/Graphics/SVG/1.1/DTD/svg11.dtd" >
<svg>
<metadata>
Created by FontForge 20090622 at Tue Oct  2 14:38:24 2018
 By deploy user
&#194;&#169; 2015 Apple Inc. All rights reserved.
</metadata>
<defs>
<font id="SFUIText-Bold" horiz-adv-x="0" >
  <font-face 
    font-family="SF UI Text"
    font-weight="700"
    font-stretch="normal"
    units-per-em="2048"
    panose-1="0 0 8 0 0 0 0 0 0 0"
    ascent="1638"
    descent="-410"
    x-height="1103"
    cap-height="1443"
    bbox="-611 -570 2788 2229"
    underline-thickness="50"
    underline-position="-75"
    unicode-range="U+0020-U+FB02"
  />
<missing-glyph horiz-adv-x="1293" 
d="M119 1365h1053v-1365h-1053v1365zM533 236q34 -30 87 -30q55 0 89 30q33 29 33 77q0 49 -33 78q-34 30 -89 30q-54 0 -87 -30t-33 -78q0 -47 33 -77zM507 888q1 59 34 95q34 35 91 35q54 0 87 -30t33 -80q0 -38 -20 -66q-21 -27 -83 -72q-128 -90 -118 -221l1 -18h166v15
q0 48 19 76t88 77q133 96 133 218q0 113 -81 182q-81 68 -215 68q-143 0 -225 -76q-83 -76 -79 -203h169z" />
    <glyph glyph-name=".notdef" horiz-adv-x="1293" 
d="M119 1365h1053v-1365h-1053v1365zM533 236q34 -30 87 -30q55 0 89 30q33 29 33 77q0 49 -33 78q-34 30 -89 30q-54 0 -87 -30t-33 -78q0 -47 33 -77zM507 888q1 59 34 95q34 35 91 35q54 0 87 -30t33 -80q0 -38 -20 -66q-21 -27 -83 -72q-128 -90 -118 -221l1 -18h166v15
q0 48 19 76t88 77q133 96 133 218q0 113 -81 182q-81 68 -215 68q-143 0 -225 -76q-83 -76 -79 -203h169z" />
    <glyph glyph-name="glyph1" 
 />
    <glyph glyph-name="glyph2" 
 />
    <glyph glyph-name="space" unicode=" " horiz-adv-x="528" 
 />
    <glyph glyph-name="exclam" unicode="!" horiz-adv-x="730" 
d="M524 1443l-27 -968h-267l-26 968h320zM231 265q49 46 133 46q85 0 133 -46q49 -45 49 -125q0 -79 -49 -124q-48 -46 -133 -46q-84 0 -133 46q-49 45 -49 124t49 125z" />
    <glyph glyph-name="quotedbl" unicode="&#x22;" horiz-adv-x="1016" 
d="M151 831v612h250v-612h-250zM613 831v612h250v-612h-250z" />
    <glyph glyph-name="numbersign" unicode="#" horiz-adv-x="1360" 
d="M1041 857l-53 -252h209l-41 -223h-210l-77 -382h-222l77 382h-234l-77 -382h-221l77 382h-206l42 223h207l52 252h-205l42 221h206l74 366h221l-74 -366h234l74 366h222l-74 -366h209l-41 -221h-211zM515 585h261l61 291h-263z" />
    <glyph glyph-name="dollar" unicode="$" horiz-adv-x="1415" 
d="M643 -135v125q-235 13 -368 125q-134 112 -135 295h286q5 -74 64 -125q60 -51 153 -61v372l-105 25q-369 86 -369 403q0 184 125 297t349 131v136h140v-136q209 -20 334 -133q125 -114 128 -287h-279q-2 68 -53 119t-130 62v-356l107 -22q383 -82 383 -404
q0 -191 -128 -305q-127 -114 -362 -134v-127h-140zM783 571v-348q97 6 152 52q54 46 54 122q0 136 -206 174zM643 886v328q-81 -4 -132 -50q-52 -45 -52 -112q0 -130 184 -166z" />
    <glyph glyph-name="percent" unicode="%" horiz-adv-x="1701" 
d="M1381 206q31 47 31 128q0 82 -30 128q-31 46 -85 46q-53 0 -84 -46q-31 -47 -31 -128t31 -128t84 -47t84 47zM1053 68q-93 101 -93 265t93 265t244 101q152 0 245 -100q93 -101 93 -266q0 -164 -93 -265t-245 -101q-151 0 -244 101zM158 845q-94 101 -94 266
q0 164 93 264q94 101 245 101q152 0 245 -100q93 -101 93 -265q0 -165 -93 -266t-245 -101q-151 0 -244 101zM223 0l545 756l434 687h281l-554 -762l-424 -681h-282zM486 983q31 47 31 128q0 82 -30 129q-31 46 -85 46q-53 0 -84 -47t-31 -128t31 -128t84 -47t84 47z" />
    <glyph glyph-name="ampersand" unicode="&#x26;" horiz-adv-x="1525" 
d="M1060 117q-170 -145 -449 -145q-230 0 -368 110q-137 110 -137 295q0 237 269 385q3 1 31 17l33 18q-179 183 -179 331q0 146 117 242q116 95 294 95q177 0 290 -92q113 -93 113 -239q0 -219 -294 -378l277 -287q51 90 51 263v71h245v-90q0 -265 -123 -431l268 -282h-327
zM379 402q0 -94 73 -153q72 -58 189 -58q173 0 266 98l-331 349q-16 -6 -42 -20q-155 -84 -155 -216zM831 1112q0 68 -44 111q-44 42 -115 42t-116 -43t-45 -110q0 -88 134 -215q186 93 186 215z" />
    <glyph glyph-name="quotesingle" unicode="'" horiz-adv-x="553" 
d="M151 831v612h250v-612h-250z" />
    <glyph glyph-name="parenleft" unicode="(" horiz-adv-x="803" 
d="M429 -277q-271 340 -271 877q0 485 280 843h269q-109 -126 -178 -362q-70 -237 -70 -480q0 -450 245 -878h-275z" />
    <glyph glyph-name="parenright" unicode=")" horiz-adv-x="803" 
d="M96 -277q245 428 245 878q0 244 -69 480t-178 362h269q280 -358 280 -843q0 -535 -271 -877h-276z" />
    <glyph glyph-name="asterisk" unicode="*" horiz-adv-x="1027" 
d="M885 965l-94 -167l-216 162l32 -266h-188l32 266l-216 -162l-94 167l255 100l-255 106l94 169l217 -174l-33 277h188l-33 -277l217 174l94 -169l-255 -106z" />
    <glyph glyph-name="plus" unicode="+" horiz-adv-x="1415" 
d="M834 46h-255v409h-412v258h412v408h255v-408h413v-258h-413v-409z" />
    <glyph glyph-name="comma" unicode="," horiz-adv-x="722" 
d="M137 -388l79 635h288l-133 -635h-234z" />
    <glyph glyph-name="hyphen" unicode="-" horiz-adv-x="992" 
d="M167 446v273h657v-273h-657z" />
    <glyph glyph-name="period" unicode="." horiz-adv-x="712" 
d="M226 22q-48 49 -48 125t48 124q49 49 129 49t129 -49q48 -47 48 -124t-48 -125q-49 -49 -129 -49q-79 0 -129 49z" />
    <glyph glyph-name="slash" unicode="/" horiz-adv-x="772" 
d="M41 -288l414 1731h274l-420 -1731h-268z" />
    <glyph glyph-name="zero" unicode="0" horiz-adv-x="1402" 
d="M280 164q-153 202 -153 560q0 357 153 557q152 199 420 199q267 0 419 -199q154 -201 154 -558t-153 -559q-152 -201 -420 -201t-420 201zM896 340q71 134 71 384q0 248 -72 381q-69 128 -195 128q-125 0 -195 -129q-72 -133 -72 -380q0 -249 72 -384q69 -131 195 -131
t196 131z" />
    <glyph glyph-name="one" unicode="1" horiz-adv-x="1051" 
d="M494 1149h-18l-354 -244v281l373 257h301v-1443h-302v1149z" />
    <glyph glyph-name="two" unicode="2" horiz-adv-x="1318" 
d="M128 1011q0 209 146 339t380 130q226 0 368 -117q143 -118 143 -304q0 -118 -74 -234q-74 -117 -261 -293l-276 -263v-18h632v-251h-1041v211l471 461q152 148 203 223q51 73 51 144q0 87 -63 143q-64 55 -163 55q-105 0 -170 -63q-66 -62 -66 -162v-6h-280v5z" />
    <glyph glyph-name="three" unicode="3" horiz-adv-x="1370" 
d="M497 851h176q103 0 166 55q64 55 64 143q0 87 -63 139q-62 51 -168 51q-105 0 -170 -55t-71 -149h-279q8 205 150 325t378 120q222 0 366 -109q143 -110 143 -280q0 -125 -73 -215q-72 -90 -193 -115v-18q149 -17 235 -109q87 -93 87 -235q0 -190 -160 -313t-407 -123
q-241 0 -392 123t-161 327h289q7 -92 79 -145q72 -54 188 -54q113 0 185 58q71 58 71 150q0 95 -70 149q-70 55 -191 55h-179v225z" />
    <glyph glyph-name="four" unicode="4" horiz-adv-x="1410" 
d="M819 252h-706v267q169 319 571 924h423v-940h189v-251h-189v-252h-288v252zM384 494h442v714h-16q-231 -345 -426 -698v-16z" />
    <glyph glyph-name="five" unicode="5" horiz-adv-x="1359" 
d="M307 90q-147 124 -154 320h279q13 -90 85 -145t175 -55q117 0 189 72q73 72 73 189q0 119 -73 192t-188 73q-167 0 -247 -130h-270l72 837h907v-251h-673l-32 -371h18q98 141 306 141q205 0 337 -136q131 -136 131 -348q0 -230 -152 -372q-152 -143 -400 -143
q-233 0 -383 127z" />
    <glyph glyph-name="six" unicode="6" horiz-adv-x="1401" 
d="M245 224q-121 186 -121 487q0 359 160 564t442 205q206 0 351 -111q146 -111 177 -292h-299q-21 71 -84 113q-62 42 -147 42q-148 0 -232 -133q-85 -132 -80 -357h18q103 213 368 213q205 0 340 -136t135 -343q0 -225 -155 -369t-397 -144q-323 0 -476 261zM905 285
q75 73 75 182q0 110 -74 183q-74 72 -187 72t-188 -72q-74 -72 -74 -180q0 -110 75 -185q75 -74 186 -74t187 74z" />
    <glyph glyph-name="seven" unicode="7" horiz-adv-x="1239" 
d="M823 1176v19h-715v249h1017v-252l-603 -1192h-316z" />
    <glyph glyph-name="eight" unicode="8" horiz-adv-x="1421" 
d="M288 80q-161 117 -161 305q0 136 87 236q86 101 231 133v18q-118 27 -189 113t-71 201q0 173 147 283q148 111 378 111q229 0 377 -111q147 -110 147 -283q0 -115 -71 -201q-70 -85 -189 -113v-18q144 -27 232 -127q87 -101 87 -239q0 -190 -162 -307
q-162 -118 -422 -118t-421 117zM903 253q75 62 75 160q0 99 -75 161t-194 62t-193 -62q-75 -62 -75 -161q0 -98 75 -160q74 -62 193 -62t194 62zM873 915q63 55 63 142q0 88 -63 143q-64 56 -164 56t-163 -56q-63 -55 -63 -143q0 -87 63 -142q63 -56 163 -56t164 56z" />
    <glyph glyph-name="nine" unicode="9" horiz-adv-x="1401" 
d="M322 75q-146 111 -177 291h299q21 -71 84 -113q62 -42 147 -42q148 0 233 133q84 133 79 358h-18q-103 -213 -368 -213q-206 0 -340 136q-135 135 -135 342q0 225 155 369t397 144q322 0 476 -260q121 -188 121 -487q0 -360 -160 -565t-442 -205q-205 0 -351 112z
M868 794q74 71 74 180q0 110 -75 184q-75 75 -186 75t-186 -74q-76 -74 -76 -182q0 -111 74 -183t187 -72t188 72z" />
    <glyph glyph-name="colon" unicode=":" horiz-adv-x="712" 
d="M226 22q-48 49 -48 125t48 124q49 49 129 49t129 -49q48 -47 48 -124t-48 -125q-49 -49 -129 -49q-79 0 -129 49zM226 760q-48 49 -48 125t48 124q49 49 129 49t129 -49q48 -47 48 -124t-48 -125q-49 -49 -129 -49q-79 0 -129 49z" />
    <glyph glyph-name="semicolon" unicode=";" horiz-adv-x="712" 
d="M137 -388l79 635h288l-133 -635h-234zM226 760q-48 49 -48 125t48 124q49 49 129 49t129 -49q48 -47 48 -124t-48 -125q-49 -49 -129 -49q-79 0 -129 49z" />
    <glyph glyph-name="less" unicode="&#x3c;" horiz-adv-x="1415" 
d="M1183 -22l-953 496v235l953 496v-301l-657 -303v-19l657 -303v-301z" />
    <glyph glyph-name="equal" unicode="=" horiz-adv-x="1415" 
d="M170 216v259h1073v-259h-1073zM170 695v259h1073v-259h-1073z" />
    <glyph glyph-name="greater" unicode="&#x3e;" horiz-adv-x="1415" 
d="M887 582v19l-657 303v301l953 -496v-235l-953 -496v301z" />
    <glyph glyph-name="question" unicode="?" horiz-adv-x="1141" 
d="M77 1035q4 191 130 304q130 117 356 117q214 0 345 -108q130 -108 130 -282q0 -212 -214 -338q-100 -58 -135 -104t-35 -118v-53h-265l-2 55q-10 118 33 195q42 74 147 136q98 58 132 103q36 46 36 115q0 70 -52 114q-53 45 -138 45q-86 0 -139 -49t-58 -132h-271z
M399 16q-49 45 -49 124t49 125t133 46t133 -46q48 -46 48 -125t-48 -124q-49 -46 -133 -46t-133 46z" />
    <glyph glyph-name="at" unicode="@" horiz-adv-x="1899" 
d="M815 777q-45 -61 -45 -168t45 -167q44 -61 123 -61q80 0 127 61t47 167t-47 167q-46 61 -126 61q-79 0 -124 -60zM1554 1244q224 -206 224 -537q0 -239 -106 -378t-287 -139q-94 0 -158 42q-63 42 -80 114h-18q-64 -153 -240 -153q-156 0 -251 116t-95 306q0 182 93 295
t243 113q171 0 234 -141h18v119h202v-530q0 -112 96 -112q76 0 121 89q45 90 45 242q0 271 -172 435q-173 163 -458 163q-290 0 -473 -189t-183 -488q0 -304 188 -483q187 -179 506 -179q180 0 272 33v-163q-122 -36 -287 -36q-390 0 -626 228t-236 605q0 370 235 602
t610 232q359 0 583 -206z" />
    <glyph glyph-name="A" unicode="A" horiz-adv-x="1500" 
d="M992 344h-507l-111 -344h-303l501 1443h355l501 -1443h-327zM550 577h378l-179 566h-18z" />
    <glyph glyph-name="B" unicode="B" horiz-adv-x="1420" 
d="M174 0v1443h631q209 0 329 -96q118 -96 118 -264q0 -115 -75 -203t-186 -105v-18q143 -11 237 -107q93 -98 93 -237q0 -190 -134 -301q-134 -112 -365 -112h-648zM476 845h227q122 0 187 48t65 135t-59 135q-60 49 -168 49h-252v-367zM745 231q268 0 268 208
q0 202 -275 202h-262v-410h269z" />
    <glyph glyph-name="C" unicode="C" horiz-adv-x="1518" 
d="M292 166q-182 204 -182 556t181 555q182 203 496 203q256 0 433 -153q176 -152 193 -388h-294q-22 125 -112 200q-91 75 -220 75q-170 0 -269 -132t-99 -360t99 -360q99 -133 270 -133q130 0 220 71t112 190h294q-19 -234 -192 -380q-174 -147 -435 -147q-314 0 -495 203
z" />
    <glyph glyph-name="D" unicode="D" horiz-adv-x="1530" 
d="M742 1444q322 0 499 -186q178 -187 178 -526q0 -351 -176 -542q-177 -190 -501 -190h-568v1444h568zM476 258h218q201 0 309 120q108 121 108 349q0 218 -110 339q-110 120 -307 120h-218v-928z" />
    <glyph glyph-name="E" unicode="E" horiz-adv-x="1274" 
d="M1130 0h-956v1443h956v-258h-654v-337h617v-239h-617v-351h654v-258z" />
    <glyph glyph-name="F" unicode="F" horiz-adv-x="1224" 
d="M174 0v1443h945v-258h-643v-376h587v-247h-587v-562h-302z" />
    <glyph glyph-name="G" unicode="G" horiz-adv-x="1557" 
d="M1442 589q0 -289 -172 -458q-172 -168 -468 -168q-322 0 -507 203t-185 557q0 349 185 553t500 204q256 0 429 -136t205 -361h-300q-34 110 -121 170q-87 61 -213 61q-175 0 -275 -130q-101 -131 -101 -358q0 -231 105 -364q104 -133 283 -133q148 0 243 80q93 80 98 211
l1 26h-313v227h606v-184z" />
    <glyph glyph-name="H" unicode="H" horiz-adv-x="1604" 
d="M1126 0v603h-650v-603h-302v1443h302v-582h650v582h302v-1443h-302z" />
    <glyph glyph-name="I" unicode="I" horiz-adv-x="652" 
d="M174 0v1443h302v-1443h-302z" />
    <glyph glyph-name="J" unicode="J" horiz-adv-x="1231" 
d="M367 424q2 -87 54 -139q53 -52 140 -52q192 0 192 217v993h302v-995q0 -232 -130 -359q-129 -126 -360 -126q-223 0 -356 124q-134 126 -134 337h292z" />
    <glyph glyph-name="K" unicode="K" horiz-adv-x="1453" 
d="M174 0v1443h302v-643h18l533 643h336l-526 -633l563 -810h-362l-419 604l-143 -169v-435h-302z" />
    <glyph glyph-name="L" unicode="L" horiz-adv-x="1218" 
d="M1118 0h-944v1443h302v-1180h642v-263z" />
    <glyph glyph-name="M" unicode="M" horiz-adv-x="1878" 
d="M174 0v1443h356l399 -970h18l400 970h355v-1443h-280v965h-16l-367 -882h-201l-368 882h-16v-965h-280z" />
    <glyph glyph-name="N" unicode="N" horiz-adv-x="1573" 
d="M174 0v1443h252l664 -899h18v899h289v-1443h-250l-666 903h-18v-903h-289z" />
    <glyph glyph-name="O" unicode="O" horiz-adv-x="1610" 
d="M1311 1276q187 -204 187 -554q0 -351 -186 -555q-187 -204 -507 -204q-321 0 -508 204t-187 555q0 350 189 555q187 203 506 203q320 0 506 -204zM524 1082q-105 -134 -105 -360t104 -360q105 -134 282 -134q176 0 281 134q104 134 104 360t-104 360q-105 133 -281 133
t-281 -133z" />
    <glyph glyph-name="P" unicode="P" horiz-adv-x="1380" 
d="M776 1443q223 0 361 -137q139 -138 139 -362q0 -222 -143 -359t-372 -137h-285v-448h-302v1443h602zM476 693h219q131 0 202 64q72 65 72 186q0 122 -71 188q-71 64 -202 64h-220v-502z" />
    <glyph glyph-name="Q" unicode="Q" horiz-adv-x="1610" 
d="M1158 -141l-100 142q-116 -38 -253 -38q-321 0 -508 203q-187 204 -187 556q0 350 189 555q187 203 506 203t506 -203q187 -205 187 -555q0 -397 -227 -591l179 -272h-292zM910 241l-164 240h274l67 -81q103 111 103 322q0 226 -105 360q-105 133 -280 133
q-176 0 -281 -133q-105 -134 -105 -360q0 -228 105 -361t282 -133q49 0 104 13z" />
    <glyph glyph-name="R" unicode="R" horiz-adv-x="1422" 
d="M476 755h265q114 0 178 58q63 59 63 163q0 103 -66 163t-178 60h-262v-444zM476 0h-302v1443h606q238 0 375 -124t137 -339q0 -140 -69 -249q-70 -112 -193 -161l304 -570h-342l-269 523h-247v-523z" />
    <glyph glyph-name="S" unicode="S" horiz-adv-x="1383" 
d="M401 401q10 -88 93 -140q81 -52 209 -52q118 0 193 52q75 51 75 133q0 69 -58 112t-191 71l-188 40q-392 82 -392 412q0 204 151 328q151 123 401 123q238 0 392 -121q153 -121 160 -314h-284q-11 86 -83 138q-74 52 -183 52q-114 0 -182 -49q-69 -49 -69 -131
q0 -67 56 -108q55 -41 182 -68l174 -37q217 -46 316 -144t99 -266q0 -218 -157 -344q-156 -125 -428 -125q-258 0 -414 118t-164 320h292z" />
    <glyph glyph-name="T" unicode="T" horiz-adv-x="1352" 
d="M524 0v1185h-433v258h1168v-258h-433v-1185h-302z" />
    <glyph glyph-name="U" unicode="U" horiz-adv-x="1564" 
d="M479 529q0 -138 79 -217q80 -81 223 -81q144 0 224 81q79 79 79 217v914h302v-945q0 -241 -164 -387q-165 -148 -441 -148q-275 0 -440 148q-164 146 -164 387v945h302v-914z" />
    <glyph glyph-name="V" unicode="V" horiz-adv-x="1477" 
d="M559 0l-488 1443h341l328 -1103h18l322 1103h325l-481 -1443h-365z" />
    <glyph glyph-name="W" unicode="W" horiz-adv-x="2067" 
d="M754 0h-285l-382 1443h314l225 -1017h16l263 1017h255l268 -1017h16l223 1017h312l-383 -1443h-283l-273 955h-16z" />
    <glyph glyph-name="X" unicode="X" horiz-adv-x="1494" 
d="M548 727l-458 716h355l301 -505h18l304 505h338l-475 -721l468 -722h-344l-310 489h-18l-314 -489h-326z" />
    <glyph glyph-name="Y" unicode="Y" horiz-adv-x="1451" 
d="M574 0v531l-503 912h327l318 -604h18l317 604h327l-502 -912v-531h-302z" />
    <glyph glyph-name="Z" unicode="Z" horiz-adv-x="1384" 
d="M134 204l726 963v18h-709v258h1077v-203l-724 -964v-18h744v-258h-1114v204z" />
    <glyph glyph-name="bracketleft" unicode="[" horiz-adv-x="848" 
d="M733 1444v-223h-294v-1239h306v-222h-587v1684h575z" />
    <glyph glyph-name="backslash" unicode="\" horiz-adv-x="772" 
d="M41 1443h274l414 -1731h-268z" />
    <glyph glyph-name="bracketright" unicode="]" horiz-adv-x="848" 
d="M688 -240h-587v222h307v1239h-294v223h574v-1684z" />
    <glyph glyph-name="asciicircum" unicode="^" horiz-adv-x="1066" 
d="M341 802h-257l319 631h259l319 -631h-257l-183 405h-18z" />
    <glyph glyph-name="underscore" unicode="_" horiz-adv-x="945" 
d="M-2 -334v227h949v-227h-949z" />
    <glyph glyph-name="grave" unicode="`" horiz-adv-x="1098" 
d="M556 1281l-287 353h309l247 -353h-269z" />
    <glyph glyph-name="a" unicode="a" horiz-adv-x="1208" 
d="M712 259q68 57 68 141v81l-223 -14q-186 -13 -186 -133q0 -61 48 -97q47 -35 124 -35q101 0 169 57zM187 73q-101 92 -101 242q0 149 111 235q110 85 316 97l267 16v90q0 144 -186 144q-162 0 -199 -102h-268q14 153 145 243q130 89 338 89q218 0 338 -98
q119 -98 119 -276v-753h-282v144h-18q-91 -161 -320 -161q-160 0 -260 90z" />
    <glyph glyph-name="b" unicode="b" horiz-adv-x="1334" 
d="M455 173h-18v-173h-282v1524h291v-597h18q42 91 130 142q88 52 201 52q209 0 328 -151t119 -418q0 -265 -120 -417q-119 -152 -327 -152q-247 0 -340 190zM512 789q-68 -87 -69 -238q1 -150 68 -237q68 -88 183 -88q116 0 183 87q66 87 66 239q0 151 -67 238t-182 87
t-182 -88z" />
    <glyph glyph-name="c" unicode="c" horiz-adv-x="1203" 
d="M849 714q-15 81 -70 126q-58 48 -149 48q-118 0 -181 -86q-64 -86 -64 -248q0 -164 64 -252q63 -87 181 -87q185 0 219 167h272q-18 -187 -147 -296q-131 -110 -344 -110q-258 0 -398 150q-141 151 -141 428q0 275 140 424t399 149q216 0 346 -112q127 -110 145 -301
h-272z" />
    <glyph glyph-name="d" unicode="d" horiz-adv-x="1334" 
d="M211 136q-120 153 -120 417q0 263 121 416q120 152 328 152q112 0 199 -51q87 -52 130 -143h17v597h291v-1524h-282v173h-18q-44 -89 -133 -140q-89 -50 -204 -50q-208 0 -329 153zM456 790q-66 -86 -66 -238q0 -153 66 -239q66 -87 183 -87t184 87q66 86 66 238
q0 151 -67 238q-67 88 -183 88t-183 -87z" />
    <glyph glyph-name="e" unicode="e" horiz-adv-x="1231" 
d="M455 839q-65 -65 -73 -172h470q-5 110 -66 173q-62 64 -164 64q-101 0 -167 -65zM1129 314q-33 -157 -167 -247q-135 -91 -337 -91q-252 0 -393 151q-141 150 -141 419t142 425t388 156q244 0 380 -147q137 -147 137 -410v-89h-757v-15q3 -123 71 -194q67 -72 181 -72
q177 0 225 114h271z" />
    <glyph glyph-name="f" unicode="f" horiz-adv-x="836" 
d="M228 863h-175v229h175v111q0 166 90 240q88 72 284 72q75 0 146 -11v-209q-44 8 -95 8q-140 0 -140 -121v-90h231v-229h-225v-863h-291v863z" />
    <glyph glyph-name="g" unicode="g" horiz-adv-x="1322" 
d="M820 792q-68 85 -185 85t-183 -85q-65 -84 -65 -230q0 -147 65 -231q65 -85 183 -85t185 85q67 84 67 230t-67 231zM275 -329q-135 88 -149 234h288q11 -51 70 -81t153 -30q117 0 182 52q65 51 65 144v204h-18q-94 -178 -332 -178q-206 0 -326 148q-120 147 -120 397
q0 257 121 408q122 152 331 152q112 0 201 -52q90 -52 134 -143h18v177h282v-1099q0 -194 -147 -308t-397 -114q-218 0 -356 89z" />
    <glyph glyph-name="h" unicode="h" horiz-adv-x="1332" 
d="M155 1524h286v-602h18q38 94 131 148t215 54q185 0 287 -108q103 -108 103 -306v-710h-291v641q0 232 -216 232q-109 0 -176 -66q-66 -66 -66 -174v-633h-291v1524z" />
    <glyph glyph-name="i" unicode="i" horiz-adv-x="587" 
d="M147 1103h291v-1103h-291v1103zM168 1298q-47 41 -47 106q0 66 47 106q47 41 125 41t125 -41q47 -40 47 -106q0 -65 -47 -106q-48 -41 -125 -41q-78 0 -125 41z" />
    <glyph glyph-name="j" unicode="j" horiz-adv-x="587" 
d="M439 -33q0 -341 -390 -341q-42 0 -78 3v224q12 -2 37 -2q76 0 108 30q32 28 32 95v1127h291v-1136zM169 1298q-47 41 -47 106q0 66 47 106q47 41 125 41t125 -41q47 -40 47 -106q0 -65 -47 -106q-48 -41 -125 -41q-78 0 -125 41z" />
    <glyph glyph-name="k" unicode="k" horiz-adv-x="1232" 
d="M833 1103h331l-420 -473l449 -630h-345l-322 448l-80 -82v-366h-291v1524h291v-852h18z" />
    <glyph glyph-name="l" unicode="l" horiz-adv-x="603" 
d="M155 1524h291v-1524h-291v1524z" />
    <glyph glyph-name="m" unicode="m" horiz-adv-x="1899" 
d="M145 1103h282v-180h18q34 95 115 149q82 55 190 55q235 0 305 -204h18q39 93 127 148q90 56 205 56q165 0 261 -100t96 -270v-757h-291v680q0 196 -184 196q-88 0 -141 -57q-53 -55 -53 -144v-675h-280v692q0 87 -48 136q-48 48 -134 48q-85 0 -140 -60t-55 -152v-664
h-291v1103z" />
    <glyph glyph-name="n" unicode="n" horiz-adv-x="1310" 
d="M145 1103h282v-177h18q38 93 130 147t213 54q184 0 285 -108q100 -108 100 -306v-713h-291v644q0 232 -210 232q-108 0 -172 -66q-64 -65 -64 -174v-636h-291v1103z" />
    <glyph glyph-name="o" unicode="o" horiz-adv-x="1269" 
d="M814 303q64 88 64 249q0 159 -64 248q-65 89 -180 89q-116 0 -180 -89t-64 -248q0 -161 64 -250q63 -88 180 -88q116 0 180 89zM235 129q-144 153 -144 423q0 268 146 421q145 154 397 154t398 -153q145 -154 145 -422q0 -270 -144 -423q-145 -153 -399 -153t-399 153z
" />
    <glyph glyph-name="p" unicode="p" horiz-adv-x="1324" 
d="M1112 970q120 -151 120 -418q0 -266 -119 -418q-119 -151 -326 -151q-247 0 -333 186h-18v-514h-291v1448h282v-181h18q45 93 134 146t203 53q210 0 330 -151zM867 313q66 86 66 239q0 152 -66 238q-67 87 -183 87t-184 -87q-67 -88 -67 -239t67 -238t183 -87
q118 0 184 87z" />
    <glyph glyph-name="q" unicode="q" horiz-adv-x="1324" 
d="M743 1067q89 -53 133 -145h18v181h283v-1448h-292v514h-18q-93 -186 -331 -186q-207 0 -326 153q-119 152 -119 417q0 263 121 415q122 153 330 153q111 0 201 -54zM822 313q67 87 67 238t-68 238q-67 88 -183 88t-182 -87q-66 -86 -66 -238q0 -153 65 -239
q66 -87 182 -87q117 0 185 87z" />
    <glyph glyph-name="r" unicode="r" horiz-adv-x="884" 
d="M145 1103h282v-176h18q22 84 99 138q79 56 181 56q73 0 112 -14v-265q-46 18 -136 18q-119 0 -191 -66q-74 -68 -74 -183v-611h-291v1103z" />
    <glyph glyph-name="s" unicode="s" horiz-adv-x="1160" 
d="M246 1031q127 96 333 96q210 0 330 -85q119 -85 131 -243h-269q-24 115 -190 115q-79 0 -129 -32q-52 -33 -52 -85q0 -76 149 -110l207 -45q161 -35 235 -107q75 -72 75 -195q0 -164 -135 -264q-133 -100 -351 -100t-345 86t-142 245h284q35 -118 209 -118q85 0 138 32
q53 33 53 86q0 78 -139 108l-200 45q-318 70 -318 319q0 157 126 252z" />
    <glyph glyph-name="t" unicode="t" horiz-adv-x="845" 
d="M519 1360v-268h234v-229h-234v-496q0 -140 143 -140q48 0 85 4v-222q-67 -13 -145 -13q-201 0 -287 70q-87 70 -87 232v565h-175v229h175v268h291z" />
    <glyph glyph-name="u" unicode="u" horiz-adv-x="1315" 
d="M1168 0h-282v177h-18q-39 -96 -127 -148q-88 -53 -208 -53q-183 0 -290 109q-108 110 -108 304v714h291v-644q0 -230 215 -230q108 0 172 64t64 174v636h291v-1103z" />
    <glyph glyph-name="v" unicode="v" horiz-adv-x="1194" 
d="M363 1103l228 -822h18l226 822h307l-381 -1103h-328l-383 1103h313z" />
    <glyph glyph-name="w" unicode="w" horiz-adv-x="1735" 
d="M1380 0h-310l-197 761h-18l-195 -761h-306l-294 1103h295l164 -791h18l193 791h278l194 -791h18l164 791h289z" />
    <glyph glyph-name="x" unicode="x" horiz-adv-x="1190" 
d="M579 360l-205 -360h-309l346 545l-348 558h334l195 -362h18l195 362h318l-346 -545l349 -558h-324l-205 360h-18z" />
    <glyph glyph-name="y" unicode="y" horiz-adv-x="1223" 
d="M171 -400v235q15 -3 66 -3q160 0 195 121l10 40l-387 1110h321l232 -836h18l232 836h308l-380 -1120q-70 -213 -184 -299q-113 -87 -320 -87q-93 0 -111 3z" />
    <glyph glyph-name="z" unicode="z" horiz-adv-x="1160" 
d="M120 172l558 681v18h-550v232h898v-192l-526 -661v-18h539v-232h-919v172z" />
    <glyph glyph-name="braceleft" unicode="{" horiz-adv-x="927" 
d="M370 601q208 -20 208 -256v-260q0 -117 46 -160q46 -44 168 -44h45v-219h-105q-228 0 -330 91q-103 90 -103 294v218q0 116 -37 162q-37 45 -131 45v277q95 0 131 46q37 45 37 162v185q0 199 102 288q102 88 331 88h105v-220h-45q-122 0 -168 -44q-46 -43 -46 -161v-237
q0 -218 -208 -237v-18z" />
    <glyph glyph-name="bar" unicode="|" horiz-adv-x="749" 
d="M240 -289v1732h267v-1732h-267z" />
    <glyph glyph-name="braceright" unicode="}" horiz-adv-x="927" 
d="M555 619q-208 19 -208 237v237q0 118 -46 161q-46 44 -168 44h-45v220h105q229 0 331 -88q102 -89 102 -288v-185q0 -117 37 -162q37 -46 131 -46v-277q-94 0 -131 -45q-37 -46 -37 -162v-218q0 -204 -102 -294q-103 -91 -331 -91h-105v219h45q122 0 168 44q46 43 46 160
v260q0 236 208 256v18z" />
    <glyph glyph-name="asciitilde" unicode="~" horiz-adv-x="1225" 
d="M428 703q-115 0 -119 -178h-228q-2 26 -2 38q0 182 87 288q86 106 236 106q125 0 259 -131q80 -79 135 -79q113 0 119 178h227q2 -26 2 -38q0 -182 -86 -288t-235 -106q-126 0 -258 129q-82 81 -137 81z" />
    <glyph glyph-name="uni00A0" unicode="&#xa0;" horiz-adv-x="528" 
 />
    <glyph glyph-name="exclamdown" unicode="&#xa1;" horiz-adv-x="730" 
d="M230 647h267l27 -969h-320zM231 1106q49 46 133 46q85 0 133 -46q49 -45 49 -124q0 -80 -49 -125q-48 -46 -133 -46q-84 0 -133 46t-49 125t49 124z" />
    <glyph glyph-name="cent" unicode="&#xa2;" horiz-adv-x="1415" 
d="M1252 528q-16 -160 -129 -266q-110 -103 -284 -130v-184h-242v188q-200 39 -318 186q-122 152 -122 378q0 224 122 375q119 147 318 185v189h242v-185q171 -29 282 -135q115 -110 131 -269h-272q-22 80 -89 127t-159 47q-122 0 -200 -88q-81 -92 -81 -246q0 -156 81 -249
q78 -89 199 -89q100 0 165 44t84 122h272z" />
    <glyph glyph-name="sterling" unicode="&#xa3;" horiz-adv-x="1415" 
d="M1263 0h-1124v240q133 19 217 108q84 90 86 216q0 30 -11 68h-288v213h224q-59 143 -59 243q0 186 147 289q146 103 411 103q195 0 330 -33v-243q-138 33 -287 33q-138 0 -218 -55t-80 -149q0 -83 42 -188h417v-213h-354q10 -33 10 -65q5 -91 -40 -170t-125 -121v-19h702
v-257z" />
    <glyph glyph-name="currency" unicode="&#xa4;" horiz-adv-x="1415" 
d="M542 485q69 -69 165 -69t166 69q69 68 69 163t-69 164q-70 69 -166 69t-165 -69t-69 -164t69 -163zM1100 872q58 -103 58 -224q0 -122 -59 -224l148 -149l-166 -172l-149 150q-103 -61 -225 -61t-225 61l-149 -150l-166 172l148 149q-58 105 -58 224q0 121 58 224
l-148 149l166 172l148 -150q104 62 226 62t225 -61l149 149l166 -172z" />
    <glyph glyph-name="yen" unicode="&#xa5;" horiz-adv-x="1415" 
d="M858 206v-206h-302v206h-271v169h271v133h-271v169h195l-427 766h327l318 -604h18l317 604h327l-426 -766h195v-169h-271v-133h271v-169h-271z" />
    <glyph glyph-name="brokenbar" unicode="&#xa6;" horiz-adv-x="749" 
d="M240 773v670h267v-670h-267zM240 -289v669h267v-669h-267z" />
    <glyph glyph-name="section" unicode="&#xa7;" horiz-adv-x="1032" 
d="M572 416q59 9 99 49q40 39 40 89q0 100 -141 139l-109 38q-59 -9 -99 -49q-41 -40 -41 -89q0 -98 142 -139zM206 -194q-121 93 -128 242h253q7 -55 60 -89q52 -35 127 -35q77 0 126 35q48 36 48 92q0 80 -149 124l-175 60q-158 51 -230 122q-71 72 -71 179q0 94 57 165
q58 72 158 103v18q-205 95 -205 274q0 152 120 245q120 92 318 92q184 0 301 -90q118 -90 129 -239h-251q-8 53 -57 86q-51 33 -124 33q-76 0 -124 -35q-47 -35 -47 -91q0 -78 147 -124l171 -60q160 -55 232 -125q72 -71 72 -174q0 -97 -63 -172q-64 -76 -168 -104v-19
q223 -85 223 -267q0 -151 -122 -245q-122 -93 -320 -93q-187 0 -308 92z" />
    <glyph glyph-name="dieresis" unicode="&#xa8;" horiz-adv-x="1176" 
d="M242 1310q-44 43 -44 109t44 109q43 42 111 42t111 -42q44 -43 44 -109t-44 -109t-111 -43t-111 43zM710 1310q-44 43 -44 109t44 109q44 42 111 42q68 0 112 -42q44 -43 44 -109t-44 -109t-112 -43q-67 0 -111 43z" />
    <glyph glyph-name="copyright" unicode="&#xa9;" horiz-adv-x="1742" 
d="M311 93q-229 230 -229 559q0 330 229 560q229 229 559 229q331 0 560 -229q229 -230 229 -560q0 -329 -229 -559q-230 -229 -560 -229q-329 0 -559 229zM1314 211q181 181 181 441q0 262 -181 442q-181 181 -444 181q-262 0 -443 -181t-181 -442q0 -260 181 -441
t443 -181t444 181zM1049 759q-11 58 -55 92t-107 34q-85 0 -133 -61q-49 -62 -49 -170q0 -110 49 -172q48 -62 133 -62q138 0 162 120h188q-14 -132 -108 -208t-243 -76q-177 0 -279 107q-103 107 -103 291q0 182 103 288q103 107 278 107q146 0 242 -79t110 -211h-188z" />
    <glyph glyph-name="ordfeminine" unicode="&#xaa;" horiz-adv-x="1031" 
d="M614 737q49 44 49 111v70l-167 -12q-143 -9 -143 -107q0 -49 37 -77q36 -29 100 -29q75 0 124 44zM172 575q-82 78 -82 208q0 259 364 282l207 11v75q1 50 -37 79q-39 28 -107 28q-124 0 -141 -82h-252q10 135 118 212q107 77 285 77q185 0 291 -85t106 -234v-631h-256
v113h-18q-70 -131 -259 -131q-137 0 -219 78z" />
    <glyph glyph-name="guillemotleft" unicode="&#xab;" horiz-adv-x="1447" 
d="M941 561l347 -410h-276l-344 411v8l349 411h271l-347 -409v-11zM430 561l347 -410h-276l-344 411v8l349 411h271l-347 -409v-11z" />
    <glyph glyph-name="logicalnot" unicode="&#xac;" horiz-adv-x="1415" 
d="M1229 59h-255v396h-790v258h1045v-654z" />
    <glyph glyph-name="registered" unicode="&#xae;" horiz-adv-x="1260" 
d="M254 567q-155 156 -155 376t155 376q155 155 375 155t375 -155t155 -376t-155 -376t-375 -155t-375 155zM910 663q116 116 116 280q0 165 -116 280q-115 115 -281 115q-165 0 -281 -115t-116 -280q0 -164 116 -280q116 -115 281 -115q166 0 281 115zM420 707v487h256
q80 0 130 -43t50 -113q0 -116 -103 -148l127 -183h-149l-111 165h-75v-165h-125zM545 969h99q78 0 78 61q0 60 -76 60h-101v-121z" />
    <glyph glyph-name="macron" unicode="&#xaf;" horiz-adv-x="1048" 
d="M156 1316v180h735v-180h-735z" />
    <glyph glyph-name="degree" unicode="&#xb0;" horiz-adv-x="887" 
d="M200 860q-99 100 -99 242q0 143 99 243q99 101 242 101q144 0 243 -101q99 -100 99 -243t-99 -242q-99 -101 -243 -101q-143 0 -242 101zM565 985q48 48 48 117q0 70 -48 118q-50 49 -123 49t-122 -49q-47 -48 -47 -118q0 -69 47 -117q49 -49 122 -49q74 0 123 49z" />
    <glyph glyph-name="plusminus" unicode="&#xb1;" horiz-adv-x="1415" 
d="M207 71v225h997v-225h-997zM831 416h-249v234h-375v224h375v234h249v-234h375v-224h-375v-234z" />
    <glyph glyph-name="uni00B2" unicode="&#xb2;" horiz-adv-x="914" 
d="M79 1530q0 145 102 232q102 88 271 88q163 0 261 -77q97 -77 97 -206q0 -167 -239 -343l-114 -97v-18h368v-213h-727v189l277 239q107 89 141 132q35 43 35 86t-31 71q-31 27 -80 27q-52 0 -84 -30t-32 -79v-6h-245v5z" />
    <glyph glyph-name="uni00B3" unicode="&#xb3;" horiz-adv-x="950" 
d="M353 1455h113q53 0 85 26q31 25 31 68q0 40 -33 66q-32 25 -85 25q-56 0 -91 -28q-34 -28 -37 -76h-243q1 142 103 226q102 85 273 85q162 0 262 -71q99 -71 99 -186q0 -79 -49 -135q-48 -57 -127 -70v-19q97 -8 153 -66q57 -58 57 -147q0 -127 -109 -205
q-110 -79 -286 -79q-175 0 -279 87q-105 87 -106 233h246q2 -49 40 -77q37 -29 97 -29q59 0 95 27q36 28 36 72q0 96 -130 96h-115v177z" />
    <glyph glyph-name="acute" unicode="&#xb4;" horiz-adv-x="1098" 
d="M506 1634h309l-287 -353h-269z" />
    <glyph glyph-name="paragraph" unicode="&#xb6;" horiz-adv-x="1580" 
d="M685 -259v702h-20q-224 0 -375 144q-149 142 -149 352q0 219 147 361q147 143 378 143h299v-1702h-280zM1134 1443h280v-1702h-280v1702z" />
    <glyph glyph-name="periodcentered" unicode="&#xb7;" horiz-adv-x="723" 
d="M227 604q-49 49 -49 130q0 80 49 128q50 50 134 50t133 -50q49 -48 49 -128q0 -81 -49 -130t-133 -49t-134 49z" />
    <glyph glyph-name="cedilla" unicode="&#xb8;" horiz-adv-x="1098" 
d="M404 -126l55 132h174l-49 -119q196 -9 196 -177q0 -96 -69 -150q-71 -54 -198 -54q-84 0 -147 17v135q37 -14 116 -14q112 0 112 59q0 56 -130 56h-60v115z" />
    <glyph glyph-name="uni00B9" unicode="&#xb9;" horiz-adv-x="761" 
d="M321 896v679h-18q-190 -114 -217 -141v235q91 68 232 155h270v-928h-267z" />
    <glyph glyph-name="ordmasculine" unicode="&#xba;" horiz-adv-x="1107" 
d="M689 781q49 70 49 199q0 128 -49 198q-49 71 -137 71t-137 -71t-49 -198q0 -129 48 -199q49 -71 138 -71t137 71zM215 625q-121 128 -121 355q0 223 123 353q123 129 335 129q214 0 336 -128q122 -129 122 -354q0 -228 -121 -355q-121 -128 -337 -128q-215 0 -337 128z
" />
    <glyph glyph-name="guillemotright" unicode="&#xbb;" horiz-adv-x="1447" 
d="M157 981h271l349 -411v-8l-344 -411h-276l347 410v11zM668 981h271l349 -411v-8l-344 -411h-276l347 410v11z" />
    <glyph glyph-name="onequarter" unicode="&#xbc;" horiz-adv-x="2242" 
d="M2043 928v-588h110v-196h-119v-144h-236v134h-481v214q88 182 359 580h367zM1545 334h254v393h-14q-191 -295 -240 -390v-3zM321 515v679h-18q-190 -114 -217 -141v235q91 68 232 155h270v-928h-267zM962 749l305 694h274l-399 -742l-300 -701h-274z" />
    <glyph glyph-name="onehalf" unicode="&#xbd;" horiz-adv-x="2243" 
d="M1409 634q0 145 102 232q102 88 271 88q163 0 261 -77q97 -77 97 -206q0 -167 -239 -343l-114 -97v-18h368v-213h-727v189l277 239q107 89 141 132q35 43 35 86t-31 71q-31 27 -80 27q-52 0 -84 -30t-32 -79v-6h-245v5zM321 515v679h-18q-190 -114 -217 -141v235
q91 68 232 155h270v-928h-267zM962 749l305 694h274l-399 -742l-300 -701h-274z" />
    <glyph glyph-name="threequarters" unicode="&#xbe;" horiz-adv-x="2402" 
d="M353 1074h113q53 0 85 26q31 25 31 68q0 40 -33 66q-32 25 -85 25q-56 0 -91 -28q-34 -28 -37 -76h-243q1 142 103 226q102 85 273 85q162 0 262 -71q99 -71 99 -186q0 -79 -49 -135q-48 -57 -127 -70v-19q97 -8 153 -66q57 -58 57 -147q0 -127 -109 -205
q-110 -79 -286 -79q-175 0 -279 87q-105 87 -106 233h246q2 -49 40 -77q37 -29 97 -29q59 0 95 27q36 28 36 72q0 96 -130 96h-115v177zM2203 928v-588h110v-196h-119v-144h-236v134h-481v214q88 182 359 580h367zM1705 334h254v393h-14q-191 -295 -240 -390v-3zM1122 749
l305 694h274l-399 -742l-300 -701h-274z" />
    <glyph glyph-name="questiondown" unicode="&#xbf;" horiz-adv-x="1141" 
d="M1063 87q-4 -191 -130 -305q-130 -117 -355 -117q-214 0 -346 109q-130 107 -130 282q0 210 214 337q100 59 135 104q35 46 35 118v53h264l2 -54q10 -119 -33 -196q-41 -74 -147 -136q-97 -58 -132 -103q-36 -46 -36 -114q0 -71 53 -115q53 -45 138 -45t139 49
q52 50 57 133h272zM475 856q-49 46 -49 125t49 124q49 46 133 46q85 0 133 -46q49 -45 49 -124t-49 -125q-48 -45 -133 -45q-84 0 -133 45z" />
    <glyph glyph-name="Agrave" unicode="&#xc0;" horiz-adv-x="1500" 
d="M992 344h-507l-111 -344h-303l501 1443h355l501 -1443h-327zM550 577h378l-179 566h-18zM899 1590h-277l-314 318h315z" />
    <glyph glyph-name="Aacute" unicode="&#xc1;" horiz-adv-x="1500" 
d="M992 344h-507l-111 -344h-303l501 1443h355l501 -1443h-327zM550 577h378l-179 566h-18zM885 1908h315l-314 -318h-278z" />
    <glyph glyph-name="Acircumflex" unicode="&#xc2;" horiz-adv-x="1500" 
d="M992 344h-507l-111 -344h-303l501 1443h355l501 -1443h-327zM550 577h378l-179 566h-18zM1169 1590h-265l-146 187h-18l-146 -187h-265l284 335h272z" />
    <glyph glyph-name="Atilde" unicode="&#xc3;" horiz-adv-x="1500" 
d="M992 344h-507l-111 -344h-303l501 1443h355l501 -1443h-327zM550 577h378l-179 566h-18zM735 1646q-83 69 -122 69q-82 0 -86 -128h-184q0 145 70 229q66 80 177 80q94 0 179 -69q84 -69 116 -69q80 0 87 124h183q0 -141 -69 -224q-68 -81 -178 -81q-89 0 -173 69z" />
    <glyph glyph-name="Adieresis" unicode="&#xc4;" horiz-adv-x="1500" 
d="M992 344h-507l-111 -344h-303l501 1443h355l501 -1443h-327zM550 577h378l-179 566h-18zM404 1622q-44 43 -44 109t44 109q43 42 111 42t111 -42q44 -43 44 -109t-44 -109t-111 -43t-111 43zM872 1622q-44 43 -44 109t44 109q44 42 111 42q68 0 112 -42q44 -43 44 -109
t-44 -109t-112 -43q-67 0 -111 43z" />
    <glyph glyph-name="Aring" unicode="&#xc5;" horiz-adv-x="1500" 
d="M992 344h-507l-111 -344h-303l501 1443h355l501 -1443h-327zM550 577h378l-179 566h-18zM574 1646q-71 69 -71 173q0 102 71 170q70 68 175 68t175 -68q70 -67 70 -170q0 -104 -70 -173q-70 -68 -175 -68t-175 68zM824 1744q30 29 30 74q0 44 -30 74q-30 29 -75 29
q-46 0 -76 -29q-30 -30 -30 -74q0 -46 30 -75t76 -29t75 30z" />
    <glyph glyph-name="AE" unicode="&#xc6;" horiz-adv-x="2059" 
d="M860 1202l-249 -604h378v604h-129zM989 364h-465l-154 -364h-299l595 1443h1250v-258h-651v-341h614v-239h-614v-347h651v-258h-927v364z" />
    <glyph glyph-name="Ccedilla" unicode="&#xc7;" horiz-adv-x="1518" 
d="M1414 490q-17 -214 -166 -357q-147 -142 -376 -166l-33 -79q196 -9 196 -177q0 -96 -69 -150q-71 -54 -198 -54q-84 0 -147 17v135q37 -14 116 -14q112 0 112 59q0 56 -130 56h-60v115l39 93q-275 29 -431 228q-157 200 -157 526q0 352 181 555q182 203 496 203
q256 0 433 -153q176 -152 193 -388h-294q-22 125 -112 200q-91 75 -220 75q-170 0 -269 -132t-99 -360t99 -360q99 -133 270 -133q130 0 220 71t112 190h294z" />
    <glyph glyph-name="Egrave" unicode="&#xc8;" horiz-adv-x="1274" 
d="M802 1590h-277l-314 318h315zM1130 0h-956v1443h956v-258h-654v-337h617v-239h-617v-351h654v-258z" />
    <glyph glyph-name="Eacute" unicode="&#xc9;" horiz-adv-x="1274" 
d="M788 1908h315l-314 -318h-278zM1130 0h-956v1443h956v-258h-654v-337h617v-239h-617v-351h654v-258z" />
    <glyph glyph-name="Ecircumflex" unicode="&#xca;" horiz-adv-x="1274" 
d="M1072 1590h-265l-146 187h-18l-146 -187h-265l284 335h272zM1130 0h-956v1443h956v-258h-654v-337h617v-239h-617v-351h654v-258z" />
    <glyph glyph-name="Edieresis" unicode="&#xcb;" horiz-adv-x="1274" 
d="M307 1622q-44 43 -44 109t44 109q43 42 111 42t111 -42q44 -43 44 -109t-44 -109t-111 -43t-111 43zM775 1622q-44 43 -44 109t44 109q44 42 111 42q68 0 112 -42q44 -43 44 -109t-44 -109t-112 -43q-67 0 -111 43zM1130 0h-956v1443h956v-258h-654v-337h617v-239h-617
v-351h654v-258z" />
    <glyph glyph-name="Igrave" unicode="&#xcc;" horiz-adv-x="652" 
d="M175 0v1443h302v-1443h-302zM476 1590h-277l-314 318h315z" />
    <glyph glyph-name="Iacute" unicode="&#xcd;" horiz-adv-x="652" 
d="M174 0v1443h302v-1443h-302zM461 1908h315l-314 -318h-278z" />
    <glyph glyph-name="Icircumflex" unicode="&#xce;" horiz-adv-x="652" 
d="M175 0v1443h302v-1443h-302zM746 1590h-265l-146 187h-18l-146 -187h-265l284 335h272z" />
    <glyph glyph-name="Idieresis" unicode="&#xcf;" horiz-adv-x="652" 
d="M175 0v1443h302v-1443h-302zM-19 1622q-44 43 -44 109t44 109q43 42 111 42t111 -42q44 -43 44 -109t-44 -109t-111 -43t-111 43zM449 1622q-44 43 -44 109t44 109q44 42 111 42q68 0 112 -42q44 -43 44 -109t-44 -109t-112 -43q-67 0 -111 43z" />
    <glyph glyph-name="Eth" unicode="&#xd0;" horiz-adv-x="1499" 
d="M694 258q201 0 309 120q108 121 108 349q0 218 -110 339q-110 120 -307 120h-218v-341h210v-227h-210v-360h218zM742 1444q322 0 499 -186q178 -187 178 -526q0 -351 -176 -542q-177 -190 -501 -190h-568v618h-142v227h142v599h568z" />
    <glyph glyph-name="Ntilde" unicode="&#xd1;" horiz-adv-x="1573" 
d="M768 1646q-83 69 -122 69q-82 0 -86 -128h-184q0 145 70 229q66 80 177 80q94 0 179 -69q84 -69 116 -69q80 0 87 124h183q0 -141 -69 -224q-68 -81 -178 -81q-89 0 -173 69zM174 0v1443h252l664 -899h18v899h289v-1443h-250l-666 903h-18v-903h-289z" />
    <glyph glyph-name="Ograve" unicode="&#xd2;" horiz-adv-x="1610" 
d="M955 1590h-277l-314 318h315zM1311 1276q187 -204 187 -554q0 -351 -186 -555q-187 -204 -507 -204q-321 0 -508 204t-187 555q0 350 189 555q187 203 506 203q320 0 506 -204zM524 1082q-105 -134 -105 -360t104 -360q105 -134 282 -134q176 0 281 134q104 134 104 360
t-104 360q-105 133 -281 133t-281 -133z" />
    <glyph glyph-name="Oacute" unicode="&#xd3;" horiz-adv-x="1610" 
d="M941 1908h315l-314 -318h-278zM1311 1276q187 -204 187 -554q0 -351 -186 -555q-187 -204 -507 -204q-321 0 -508 204t-187 555q0 350 189 555q187 203 506 203q320 0 506 -204zM524 1082q-105 -134 -105 -360t104 -360q105 -134 282 -134q176 0 281 134q104 134 104 360
t-104 360q-105 133 -281 133t-281 -133z" />
    <glyph glyph-name="Ocircumflex" unicode="&#xd4;" horiz-adv-x="1610" 
d="M1225 1590h-265l-146 187h-18l-146 -187h-265l284 335h272zM1311 1276q187 -204 187 -554q0 -351 -186 -555q-187 -204 -507 -204q-321 0 -508 204t-187 555q0 350 189 555q187 203 506 203q320 0 506 -204zM524 1082q-105 -134 -105 -360t104 -360q105 -134 282 -134
q176 0 281 134q104 134 104 360t-104 360q-105 133 -281 133t-281 -133z" />
    <glyph glyph-name="Otilde" unicode="&#xd5;" horiz-adv-x="1610" 
d="M1311 1276q187 -204 187 -554q0 -351 -186 -555q-187 -204 -507 -204q-321 0 -508 204t-187 555q0 350 189 555q187 203 506 203q320 0 506 -204zM524 1082q-105 -134 -105 -360t104 -360q105 -134 282 -134q176 0 281 134q104 134 104 360t-104 360q-105 133 -281 133
t-281 -133zM791 1646q-83 69 -122 69q-82 0 -86 -128h-184q0 145 70 229q66 80 177 80q94 0 179 -69q84 -69 116 -69q80 0 87 124h183q0 -141 -69 -224q-68 -81 -178 -81q-89 0 -173 69z" />
    <glyph glyph-name="Odieresis" unicode="&#xd6;" horiz-adv-x="1610" 
d="M460 1622q-44 43 -44 109t44 109q43 42 111 42t111 -42q44 -43 44 -109t-44 -109t-111 -43t-111 43zM928 1622q-44 43 -44 109t44 109q44 42 111 42q68 0 112 -42q44 -43 44 -109t-44 -109t-112 -43q-67 0 -111 43zM1311 1276q187 -204 187 -554q0 -351 -186 -555
q-187 -204 -507 -204q-321 0 -508 204t-187 555q0 350 189 555q187 203 506 203q320 0 506 -204zM524 1082q-105 -134 -105 -360t104 -360q105 -134 282 -134q176 0 281 134q104 134 104 360t-104 360q-105 133 -281 133t-281 -133z" />
    <glyph glyph-name="multiply" unicode="&#xd7;" horiz-adv-x="1415" 
d="M402 98l-175 182l304 304l-304 305l175 182l305 -304l304 304l175 -182l-304 -305l304 -304l-175 -182l-304 304z" />
    <glyph glyph-name="Oslash" unicode="&#xd8;" horiz-adv-x="1592" 
d="M586 299q93 -71 219 -71q176 0 281 134q104 134 104 360q0 216 -94 345zM1008 1155q-88 60 -203 60q-176 0 -281 -133q-105 -134 -105 -360q0 -201 83 -330zM1265 1321q233 -203 233 -599q0 -351 -186 -555q-187 -204 -507 -204q-217 0 -377 97l-85 -128l-102 66l90 135
q-221 205 -221 589q0 350 189 555q187 203 506 203q207 0 360 -88l76 115l108 -59z" />
    <glyph glyph-name="Ugrave" unicode="&#xd9;" horiz-adv-x="1565" 
d="M931 1590h-277l-314 318h315zM479 529q0 -138 79 -217q80 -81 223 -81q144 0 224 81q79 79 79 217v914h302v-945q0 -241 -164 -387q-165 -148 -441 -148q-275 0 -440 148q-164 146 -164 387v945h302v-914z" />
    <glyph glyph-name="Uacute" unicode="&#xda;" horiz-adv-x="1565" 
d="M917 1908h315l-314 -318h-278zM479 529q0 -138 79 -217q80 -81 223 -81q144 0 224 81q79 79 79 217v914h302v-945q0 -241 -164 -387q-165 -148 -441 -148q-275 0 -440 148q-164 146 -164 387v945h302v-914z" />
    <glyph glyph-name="Ucircumflex" unicode="&#xdb;" horiz-adv-x="1565" 
d="M1201 1590h-265l-146 187h-18l-146 -187h-265l284 335h272zM479 529q0 -138 79 -217q80 -81 223 -81q144 0 224 81q79 79 79 217v914h302v-945q0 -241 -164 -387q-165 -148 -441 -148q-275 0 -440 148q-164 146 -164 387v945h302v-914z" />
    <glyph glyph-name="Udieresis" unicode="&#xdc;" horiz-adv-x="1565" 
d="M436 1622q-44 43 -44 109t44 109q43 42 111 42t111 -42q44 -43 44 -109t-44 -109t-111 -43t-111 43zM904 1622q-44 43 -44 109t44 109q44 42 111 42q68 0 112 -42q44 -43 44 -109t-44 -109t-112 -43q-67 0 -111 43zM479 529q0 -138 79 -217q80 -81 223 -81q144 0 224 81
q79 79 79 217v914h302v-945q0 -241 -164 -387q-165 -148 -441 -148q-275 0 -440 148q-164 146 -164 387v945h302v-914z" />
    <glyph glyph-name="Yacute" unicode="&#xdd;" horiz-adv-x="1452" 
d="M574 0v531l-503 912h327l318 -604h18l317 604h327l-502 -912v-531h-302zM861 1908h315l-314 -318h-278z" />
    <glyph glyph-name="Thorn" unicode="&#xde;" horiz-adv-x="1378" 
d="M478 1443v-232h307q209 0 340 -123q135 -127 135 -339q0 -211 -140 -338q-136 -123 -350 -123h-294v-288h-302v1443h304zM476 533h226q117 0 183 54q68 57 68 162q0 104 -68 160q-65 54 -182 54h-227v-430z" />
    <glyph glyph-name="germandbls" unicode="&#xdf;" horiz-adv-x="1402" 
d="M191 0v1079q0 186 136 294q135 108 364 108q219 0 357 -105q137 -105 137 -272q0 -119 -61 -207q-60 -88 -157 -115v-19q151 -10 242 -106q93 -99 93 -256q0 -187 -131 -301q-133 -115 -354 -115q-114 0 -181 16v241q54 -18 129 -18q115 0 179 53q62 52 62 142
q0 91 -72 143q-73 53 -202 53h-72v245h49q88 0 140 51q53 51 53 141q0 83 -55 133q-56 52 -151 52q-104 0 -159 -56q-56 -57 -56 -164v-1017h-290z" />
    <glyph glyph-name="agrave" unicode="&#xe0;" horiz-adv-x="1208" 
d="M712 259q68 57 68 141v81l-223 -14q-186 -13 -186 -133q0 -61 48 -97q47 -35 124 -35q101 0 169 57zM187 73q-101 92 -101 242q0 149 111 235q110 85 316 97l267 16v90q0 144 -186 144q-162 0 -199 -102h-268q14 153 145 243q130 89 338 89q218 0 338 -98
q119 -98 119 -276v-753h-282v144h-18q-91 -161 -320 -161q-160 0 -260 90zM500 1281l-287 353h309l247 -353h-269z" />
    <glyph glyph-name="aacute" unicode="&#xe1;" horiz-adv-x="1208" 
d="M712 259q68 57 68 141v81l-223 -14q-186 -13 -186 -133q0 -61 48 -97q47 -35 124 -35q101 0 169 57zM187 73q-101 92 -101 242q0 149 111 235q110 85 316 97l267 16v90q0 144 -186 144q-162 0 -199 -102h-268q14 153 145 243q130 89 338 89q218 0 338 -98
q119 -98 119 -276v-753h-282v144h-18q-91 -161 -320 -161q-160 0 -260 90zM702 1634h309l-287 -353h-269z" />
    <glyph glyph-name="acircumflex" unicode="&#xe2;" horiz-adv-x="1208" 
d="M712 259q68 57 68 141v81l-223 -14q-186 -13 -186 -133q0 -61 48 -97q47 -35 124 -35q101 0 169 57zM187 73q-101 92 -101 242q0 149 111 235q110 85 316 97l267 16v90q0 144 -186 144q-162 0 -199 -102h-268q14 153 145 243q130 89 338 89q218 0 338 -98
q119 -98 119 -276v-753h-282v144h-18q-91 -161 -320 -161q-160 0 -260 90zM1030 1251h-263l-148 209h-18l-149 -209h-263l275 354h291z" />
    <glyph glyph-name="atilde" unicode="&#xe3;" horiz-adv-x="1208" 
d="M712 259q68 57 68 141v81l-223 -14q-186 -13 -186 -133q0 -61 48 -97q47 -35 124 -35q101 0 169 57zM187 73q-101 92 -101 242q0 149 111 235q110 85 316 97l267 16v90q0 144 -186 144q-162 0 -199 -102h-268q14 153 145 243q130 89 338 89q218 0 338 -98
q119 -98 119 -276v-753h-282v144h-18q-91 -161 -320 -161q-160 0 -260 90zM395 1256h-187q0 145 72 233q71 88 189 88q85 0 166 -72q82 -72 112 -72q87 0 88 138h187q0 -144 -71 -231q-72 -87 -190 -87q-85 0 -166 72q-82 72 -112 72q-86 0 -88 -141z" />
    <glyph glyph-name="adieresis" unicode="&#xe4;" horiz-adv-x="1208" 
d="M712 259q68 57 68 141v81l-223 -14q-186 -13 -186 -133q0 -61 48 -97q47 -35 124 -35q101 0 169 57zM187 73q-101 92 -101 242q0 149 111 235q110 85 316 97l267 16v90q0 144 -186 144q-162 0 -199 -102h-268q14 153 145 243q130 89 338 89q218 0 338 -98
q119 -98 119 -276v-753h-282v144h-18q-91 -161 -320 -161q-160 0 -260 90zM265 1294q-44 43 -44 109t44 109q43 42 111 42t111 -42q44 -43 44 -109t-44 -109t-111 -43t-111 43zM733 1294q-44 43 -44 109t44 109q44 42 111 42q68 0 112 -42q44 -43 44 -109t-44 -109t-112 -43
q-67 0 -111 43z" />
    <glyph glyph-name="aring" unicode="&#xe5;" horiz-adv-x="1208" 
d="M712 259q68 57 68 141v81l-223 -14q-186 -13 -186 -133q0 -61 48 -97q47 -35 124 -35q101 0 169 57zM187 73q-101 92 -101 242q0 149 111 235q110 85 316 97l267 16v90q0 144 -186 144q-162 0 -199 -102h-268q14 153 145 243q130 89 338 89q218 0 338 -98
q119 -98 119 -276v-753h-282v144h-18q-91 -161 -320 -161q-160 0 -260 90zM435 1319q-71 69 -71 173q0 102 71 170q70 68 175 68t175 -68q70 -67 70 -170q0 -104 -70 -173q-70 -68 -175 -68t-175 68zM685 1417q30 29 30 74q0 44 -30 74q-30 29 -75 29q-46 0 -76 -29
q-30 -30 -30 -74q0 -46 30 -75t76 -29t75 30z" />
    <glyph glyph-name="ae" unicode="&#xe6;" horiz-adv-x="1894" 
d="M1079 30q-105 53 -156 144h-18q-136 -198 -407 -198q-187 0 -300 95q-112 93 -112 244q0 149 111 235q110 85 316 97l267 16v90q0 144 -186 144q-162 0 -199 -102h-268q13 146 139 239t313 93q251 0 357 -158h18q127 158 356 158q228 0 360 -148t132 -401v-94h-747v-26
q4 -117 74 -187q70 -71 182 -71q155 0 212 114h269q-33 -156 -161 -247t-317 -91q-130 0 -235 54zM1126 839q-65 -64 -71 -170h462q-4 105 -67 170q-62 65 -158 65q-102 0 -166 -65zM714 260q66 59 66 144v77l-223 -14q-186 -13 -186 -135q0 -62 49 -98q48 -35 128 -35
q98 0 166 61z" />
    <glyph glyph-name="ccedilla" unicode="&#xe7;" horiz-adv-x="1203" 
d="M849 714q-15 81 -70 126q-58 48 -149 48q-118 0 -181 -86q-64 -86 -64 -248q0 -164 64 -252q63 -87 181 -87q185 0 219 167h272q-16 -166 -120 -271q-106 -107 -280 -129l-39 -94q196 -9 196 -177q0 -96 -69 -150q-71 -54 -198 -54q-84 0 -147 17v135q37 -14 116 -14
q112 0 112 59q0 56 -130 56h-60v115l44 105q-219 24 -337 172t-118 402q0 275 140 424t399 149q216 0 346 -112q127 -110 145 -301h-272z" />
    <glyph glyph-name="egrave" unicode="&#xe8;" horiz-adv-x="1231" 
d="M511 1281l-287 353h309l247 -353h-269zM455 839q-65 -65 -73 -172h470q-5 110 -66 173q-62 64 -164 64q-101 0 -167 -65zM1129 314q-33 -157 -167 -247q-135 -91 -337 -91q-252 0 -393 151q-141 150 -141 419t142 425t388 156q244 0 380 -147q137 -147 137 -410v-89h-757
v-15q3 -123 71 -194q67 -72 181 -72q177 0 225 114h271z" />
    <glyph glyph-name="eacute" unicode="&#xe9;" horiz-adv-x="1231" 
d="M713 1634h309l-287 -353h-269zM455 839q-65 -65 -73 -172h470q-5 110 -66 173q-62 64 -164 64q-101 0 -167 -65zM1129 314q-33 -157 -167 -247q-135 -91 -337 -91q-252 0 -393 151q-141 150 -141 419t142 425t388 156q244 0 380 -147q137 -147 137 -410v-89h-757v-15
q3 -123 71 -194q67 -72 181 -72q177 0 225 114h271z" />
    <glyph glyph-name="ecircumflex" unicode="&#xea;" horiz-adv-x="1231" 
d="M1041 1251h-263l-148 209h-18l-149 -209h-263l275 354h291zM455 839q-65 -65 -73 -172h470q-5 110 -66 173q-62 64 -164 64q-101 0 -167 -65zM1129 314q-33 -157 -167 -247q-135 -91 -337 -91q-252 0 -393 151q-141 150 -141 419t142 425t388 156q244 0 380 -147
q137 -147 137 -410v-89h-757v-15q3 -123 71 -194q67 -72 181 -72q177 0 225 114h271z" />
    <glyph glyph-name="edieresis" unicode="&#xeb;" horiz-adv-x="1231" 
d="M455 839q-65 -65 -73 -172h470q-5 110 -66 173q-62 64 -164 64q-101 0 -167 -65zM1129 314q-33 -157 -167 -247q-135 -91 -337 -91q-252 0 -393 151q-141 150 -141 419t142 425t388 156q244 0 380 -147q137 -147 137 -410v-89h-757v-15q3 -123 71 -194q67 -72 181 -72
q177 0 225 114h271zM276 1294q-44 43 -44 109t44 109q43 42 111 42t111 -42q44 -43 44 -109t-44 -109t-111 -43t-111 43zM744 1294q-44 43 -44 109t44 109q44 42 111 42q68 0 112 -42q44 -43 44 -109t-44 -109t-112 -43q-67 0 -111 43z" />
    <glyph glyph-name="igrave" unicode="&#xec;" horiz-adv-x="593" 
d="M187 1281l-287 353h309l247 -353h-269zM151 1103h291v-1103h-291v1103z" />
    <glyph glyph-name="iacute" unicode="&#xed;" horiz-adv-x="593" 
d="M388 1634h309l-287 -353h-269zM150 1103h291v-1103h-291v1103z" />
    <glyph glyph-name="icircumflex" unicode="&#xee;" horiz-adv-x="593" 
d="M717 1251h-263l-148 209h-18l-149 -209h-263l275 354h291zM151 1103h291v-1103h-291v1103z" />
    <glyph glyph-name="idieresis" unicode="&#xef;" horiz-adv-x="593" 
d="M151 1103h291v-1103h-291v1103zM-48 1294q-44 43 -44 109t44 109q43 42 111 42t111 -42q44 -43 44 -109t-44 -109t-111 -43t-111 43zM420 1294q-44 43 -44 109t44 109q44 42 111 42q68 0 112 -42q44 -43 44 -109t-44 -109t-112 -43q-67 0 -111 43z" />
    <glyph glyph-name="eth" unicode="&#xf0;" horiz-adv-x="1277" 
d="M244 134q-148 151 -148 402q0 230 127 374q127 143 331 143q196 0 283 -125h17q-42 141 -171 281l-285 -95l-55 143l228 76q-78 69 -242 183h363q61 -45 119 -100l265 89l57 -143l-205 -68q253 -299 253 -690q0 -283 -148 -452t-396 -169q-245 0 -393 151zM462 759
q-67 -83 -67 -225t67 -225t182 -83q116 0 183 83t67 225q0 141 -68 225t-182 84q-115 0 -182 -84z" />
    <glyph glyph-name="ntilde" unicode="&#xf1;" horiz-adv-x="1310" 
d="M451 1256h-187q0 145 72 233q71 88 189 88q85 0 166 -72q82 -72 112 -72q87 0 88 138h187q0 -144 -71 -231q-72 -87 -190 -87q-85 0 -166 72q-82 72 -112 72q-86 0 -88 -141zM145 1103h282v-177h18q38 93 130 147t213 54q184 0 285 -108q100 -108 100 -306v-713h-291v644
q0 232 -210 232q-108 0 -172 -66q-64 -65 -64 -174v-636h-291v1103z" />
    <glyph glyph-name="ograve" unicode="&#xf2;" horiz-adv-x="1269" 
d="M524 1281l-287 353h309l247 -353h-269zM814 303q64 88 64 249q0 159 -64 248q-65 89 -180 89q-116 0 -180 -89t-64 -248q0 -161 64 -250q63 -88 180 -88q116 0 180 89zM235 129q-144 153 -144 423q0 268 146 421q145 154 397 154t398 -153q145 -154 145 -422
q0 -270 -144 -423q-145 -153 -399 -153t-399 153z" />
    <glyph glyph-name="oacute" unicode="&#xf3;" horiz-adv-x="1269" 
d="M726 1634h309l-287 -353h-269zM814 303q64 88 64 249q0 159 -64 248q-65 89 -180 89q-116 0 -180 -89t-64 -248q0 -161 64 -250q63 -88 180 -88q116 0 180 89zM235 129q-144 153 -144 423q0 268 146 421q145 154 397 154t398 -153q145 -154 145 -422q0 -270 -144 -423
q-145 -153 -399 -153t-399 153z" />
    <glyph glyph-name="ocircumflex" unicode="&#xf4;" horiz-adv-x="1269" 
d="M1054 1251h-263l-148 209h-18l-149 -209h-263l275 354h291zM814 303q64 88 64 249q0 159 -64 248q-65 89 -180 89q-116 0 -180 -89t-64 -248q0 -161 64 -250q63 -88 180 -88q116 0 180 89zM235 129q-144 153 -144 423q0 268 146 421q145 154 397 154t398 -153
q145 -154 145 -422q0 -270 -144 -423q-145 -153 -399 -153t-399 153z" />
    <glyph glyph-name="otilde" unicode="&#xf5;" horiz-adv-x="1269" 
d="M419 1256h-187q0 145 72 233q71 88 189 88q85 0 166 -72q82 -72 112 -72q87 0 88 138h187q0 -144 -71 -231q-72 -87 -190 -87q-85 0 -166 72q-82 72 -112 72q-86 0 -88 -141zM814 303q64 88 64 249q0 159 -64 248q-65 89 -180 89q-116 0 -180 -89t-64 -248
q0 -161 64 -250q63 -88 180 -88q116 0 180 89zM235 129q-144 153 -144 423q0 268 146 421q145 154 397 154t398 -153q145 -154 145 -422q0 -270 -144 -423q-145 -153 -399 -153t-399 153z" />
    <glyph glyph-name="odieresis" unicode="&#xf6;" horiz-adv-x="1269" 
d="M289 1294q-44 43 -44 109t44 109q43 42 111 42t111 -42q44 -43 44 -109t-44 -109t-111 -43t-111 43zM757 1294q-44 43 -44 109t44 109q44 42 111 42q68 0 112 -42q44 -43 44 -109t-44 -109t-112 -43q-67 0 -111 43zM814 303q64 88 64 249q0 159 -64 248q-65 89 -180 89
q-116 0 -180 -89t-64 -248q0 -161 64 -250q63 -88 180 -88q116 0 180 89zM235 129q-144 153 -144 423q0 268 146 421q145 154 397 154t398 -153q145 -154 145 -422q0 -270 -144 -423q-145 -153 -399 -153t-399 153z" />
    <glyph glyph-name="divide" unicode="&#xf7;" horiz-adv-x="1415" 
d="M167 472v225h1080v-225h-1080zM586 860q-46 45 -46 117t46 117q47 44 121 44t121 -44q46 -45 46 -117t-46 -117q-47 -45 -121 -45t-121 45zM586 75q-46 45 -46 117t46 117q47 45 121 45t121 -45q46 -45 46 -117t-46 -117q-47 -45 -121 -45t-121 45z" />
    <glyph glyph-name="oslash" unicode="&#xf8;" horiz-adv-x="1269" 
d="M520 242q49 -28 114 -28q116 0 180 89q64 88 64 249q0 121 -38 203zM759 853q-52 36 -125 36q-116 0 -180 -89t-64 -248q0 -136 45 -219zM997 1007q180 -155 180 -455q0 -270 -144 -423q-145 -153 -399 -153q-139 0 -249 48l-61 -97l-103 63l60 96q-190 153 -190 466
q0 268 146 421q145 154 397 154q147 0 262 -55l62 100l106 -58z" />
    <glyph glyph-name="ugrave" unicode="&#xf9;" horiz-adv-x="1318" 
d="M545 1281l-287 353h309l247 -353h-269zM1168 0h-282v177h-18q-39 -96 -127 -148q-88 -53 -208 -53q-183 0 -290 109q-108 110 -108 304v714h291v-644q0 -230 215 -230q108 0 172 64t64 174v636h291v-1103z" />
    <glyph glyph-name="uacute" unicode="&#xfa;" horiz-adv-x="1318" 
d="M747 1634h309l-287 -353h-269zM1168 0h-282v177h-18q-39 -96 -127 -148q-88 -53 -208 -53q-183 0 -290 109q-108 110 -108 304v714h291v-644q0 -230 215 -230q108 0 172 64t64 174v636h291v-1103z" />
    <glyph glyph-name="ucircumflex" unicode="&#xfb;" horiz-adv-x="1318" 
d="M1075 1251h-263l-148 209h-18l-149 -209h-263l275 354h291zM1168 0h-282v177h-18q-39 -96 -127 -148q-88 -53 -208 -53q-183 0 -290 109q-108 110 -108 304v714h291v-644q0 -230 215 -230q108 0 172 64t64 174v636h291v-1103z" />
    <glyph glyph-name="udieresis" unicode="&#xfc;" horiz-adv-x="1318" 
d="M1168 0h-282v177h-18q-39 -96 -127 -148q-88 -53 -208 -53q-183 0 -290 109q-108 110 -108 304v714h291v-644q0 -230 215 -230q108 0 172 64t64 174v636h291v-1103zM310 1294q-44 43 -44 109t44 109q43 42 111 42t111 -42q44 -43 44 -109t-44 -109t-111 -43t-111 43z
M778 1294q-44 43 -44 109t44 109q44 42 111 42q68 0 112 -42q44 -43 44 -109t-44 -109t-112 -43q-67 0 -111 43z" />
    <glyph glyph-name="yacute" unicode="&#xfd;" horiz-adv-x="1223" 
d="M171 -400v235q15 -3 66 -3q160 0 195 121l10 40l-387 1110h321l232 -836h18l232 836h308l-380 -1120q-70 -213 -184 -299q-113 -87 -320 -87q-93 0 -111 3zM707 1634h309l-287 -353h-269z" />
    <glyph glyph-name="thorn" unicode="&#xfe;" horiz-adv-x="1339" 
d="M1118 970q119 -151 119 -418q0 -266 -119 -418q-119 -151 -326 -151q-247 0 -333 186h-18v-514h-291v1852h287v-585h18q45 93 133 146t201 53q210 0 329 -151zM872 313q66 86 66 239q0 152 -66 238q-67 87 -183 87t-184 -87q-67 -88 -67 -239t67 -238t183 -87
q118 0 184 87z" />
    <glyph glyph-name="ydieresis" unicode="&#xff;" horiz-adv-x="1223" 
d="M171 -400v235q15 -3 66 -3q160 0 195 121l10 40l-387 1110h321l232 -836h18l232 836h308l-380 -1120q-70 -213 -184 -299q-113 -87 -320 -87q-93 0 -111 3zM270 1294q-44 43 -44 109t44 109q43 42 111 42t111 -42q44 -43 44 -109t-44 -109t-111 -43t-111 43zM738 1294
q-44 43 -44 109t44 109q44 42 111 42q68 0 112 -42q44 -43 44 -109t-44 -109t-112 -43q-67 0 -111 43z" />
    <glyph glyph-name="Amacron" unicode="&#x100;" horiz-adv-x="1500" 
d="M992 344h-507l-111 -344h-303l501 1443h355l501 -1443h-327zM550 577h378l-179 566h-18zM376 1632v181h746v-181h-746z" />
    <glyph glyph-name="amacron" unicode="&#x101;" horiz-adv-x="1208" 
d="M712 259q68 57 68 141v81l-223 -14q-186 -13 -186 -133q0 -61 48 -97q47 -35 124 -35q101 0 169 57zM187 73q-101 92 -101 242q0 149 111 235q110 85 316 97l267 16v90q0 144 -186 144q-162 0 -199 -102h-268q14 153 145 243q130 89 338 89q218 0 338 -98
q119 -98 119 -276v-753h-282v144h-18q-91 -161 -320 -161q-160 0 -260 90zM243 1316v180h735v-180h-735z" />
    <glyph glyph-name="Abreve" unicode="&#x102;" horiz-adv-x="1500" 
d="M992 344h-507l-111 -344h-303l501 1443h355l501 -1443h-327zM550 577h378l-179 566h-18zM557 1915q2 -75 53 -119q52 -45 139 -45t139 45q51 44 53 119h208q0 -150 -107 -242q-110 -94 -293 -94t-293 94q-107 92 -107 242h208z" />
    <glyph glyph-name="abreve" unicode="&#x103;" horiz-adv-x="1208" 
d="M712 259q68 57 68 141v81l-223 -14q-186 -13 -186 -133q0 -61 48 -97q47 -35 124 -35q101 0 169 57zM187 73q-101 92 -101 242q0 149 111 235q110 85 316 97l267 16v90q0 144 -186 144q-162 0 -199 -102h-268q14 153 145 243q130 89 338 89q218 0 338 -98
q119 -98 119 -276v-753h-282v144h-18q-91 -161 -320 -161q-160 0 -260 90zM417 1602q2 -81 52 -129q52 -49 140 -49t140 49q50 48 52 129h208q0 -156 -107 -252q-110 -99 -293 -99t-292 99q-107 96 -107 252h207z" />
    <glyph glyph-name="Aogonek" unicode="&#x104;" horiz-adv-x="1500" 
d="M550 577h378l-179 566h-18zM1408 -444q-57 -25 -149 -25q-117 0 -186 60q-70 60 -70 161q0 153 161 260h-67l-105 332h-507l-111 -344h-303l501 1443h355l498 -1437h-59q-155 -86 -155 -197q0 -46 33 -73t88 -27q39 0 76 9v-162z" />
    <glyph glyph-name="aogonek" unicode="&#x105;" horiz-adv-x="1208" 
d="M713 259q67 57 67 141v87l-221 -14q-188 -11 -188 -135q0 -62 47 -99q48 -37 128 -37q99 0 167 57zM1071 -444q-58 -25 -148 -25q-114 0 -182 60q-69 59 -69 158q0 158 166 261h-53v134h-18q-91 -161 -322 -161q-161 0 -260 92q-99 93 -99 244q0 150 111 236t320 98
l263 16v84q-2 144 -186 144q-162 0 -199 -102h-268q14 153 145 243q130 89 338 89q218 0 338 -98q119 -98 119 -276v-744h-41q-150 -91 -150 -196q0 -47 33 -76q33 -28 86 -28q45 0 76 9v-162z" />
    <glyph glyph-name="Cacute" unicode="&#x106;" horiz-adv-x="1518" 
d="M923 1909h315l-314 -318h-278zM292 166q-182 204 -182 556t181 555q182 203 496 203q256 0 433 -153q176 -152 193 -388h-294q-22 125 -112 200q-91 75 -220 75q-170 0 -269 -132t-99 -360t99 -360q99 -133 270 -133q130 0 220 71t112 190h294q-19 -234 -192 -380
q-174 -147 -435 -147q-314 0 -495 203z" />
    <glyph glyph-name="cacute" unicode="&#x107;" horiz-adv-x="1203" 
d="M849 714q-15 81 -70 126q-58 48 -149 48q-118 0 -181 -86q-64 -86 -64 -248q0 -164 64 -252q63 -87 181 -87q185 0 219 167h272q-18 -187 -147 -296q-131 -110 -344 -110q-258 0 -398 150q-141 151 -141 428q0 275 140 424t399 149q216 0 346 -112q127 -110 145 -301
h-272zM721 1634h309l-287 -353h-269z" />
    <glyph glyph-name="Ccircumflex" unicode="&#x108;" horiz-adv-x="1518" 
d="M292 166q-182 204 -182 556t181 555q182 203 496 203q256 0 433 -153q176 -152 193 -388h-294q-22 125 -112 200q-91 75 -220 75q-170 0 -269 -132t-99 -360t99 -360q99 -133 270 -133q130 0 220 71t112 190h294q-19 -234 -192 -380q-174 -147 -435 -147q-314 0 -495 203
zM1207 1591h-265l-146 187h-18l-146 -187h-265l284 335h272z" />
    <glyph glyph-name="ccircumflex" unicode="&#x109;" horiz-adv-x="1203" 
d="M1049 1251h-263l-148 209h-18l-149 -209h-263l275 354h291zM849 714q-15 81 -70 126q-58 48 -149 48q-118 0 -181 -86q-64 -86 -64 -248q0 -164 64 -252q63 -87 181 -87q185 0 219 167h272q-18 -187 -147 -296q-131 -110 -344 -110q-258 0 -398 150q-141 151 -141 428
q0 275 140 424t399 149q216 0 346 -112q127 -110 145 -301h-272z" />
    <glyph glyph-name="Cdotaccent" unicode="&#x10a;" horiz-adv-x="1518" 
d="M673 1625q-44 45 -44 113t44 113q45 45 114 45t113 -45t44 -113t-44 -113t-113 -45t-114 45zM292 166q-182 204 -182 556t181 555q182 203 496 203q256 0 433 -153q176 -152 193 -388h-294q-22 125 -112 200q-91 75 -220 75q-170 0 -269 -132t-99 -360t99 -360
q99 -133 270 -133q130 0 220 71t112 190h294q-19 -234 -192 -380q-174 -147 -435 -147q-314 0 -495 203z" />
    <glyph glyph-name="cdotaccent" unicode="&#x10b;" horiz-adv-x="1203" 
d="M849 714q-15 81 -70 126q-58 48 -149 48q-118 0 -181 -86q-64 -86 -64 -248q0 -164 64 -252q63 -87 181 -87q185 0 219 167h272q-18 -187 -147 -296q-131 -110 -344 -110q-258 0 -398 150q-141 151 -141 428q0 275 140 424t399 149q216 0 346 -112q127 -110 145 -301
h-272zM513 1324q-45 45 -45 114t45 115q46 46 116 46t116 -46q45 -46 45 -115t-45 -114q-46 -46 -116 -46t-116 46z" />
    <glyph glyph-name="Ccaron" unicode="&#x10c;" horiz-adv-x="1518" 
d="M292 166q-182 204 -182 556t181 555q182 203 496 203q256 0 433 -153q176 -152 193 -388h-294q-22 125 -112 200q-91 75 -220 75q-170 0 -269 -132t-99 -360t99 -360q99 -133 270 -133q130 0 220 71t112 190h294q-19 -234 -192 -380q-174 -147 -435 -147q-314 0 -495 203
zM660 1591l-281 318h253l145 -173h20l145 173h253l-281 -318h-254z" />
    <glyph glyph-name="ccaron" unicode="&#x10d;" horiz-adv-x="1203" 
d="M483 1251l-275 354h263l149 -209h18l148 209h263l-275 -354h-291zM849 714q-15 81 -70 126q-58 48 -149 48q-118 0 -181 -86q-64 -86 -64 -248q0 -164 64 -252q63 -87 181 -87q185 0 219 167h272q-18 -187 -147 -296q-131 -110 -344 -110q-258 0 -398 150
q-141 151 -141 428q0 275 140 424t399 149q216 0 346 -112q127 -110 145 -301h-272z" />
    <glyph glyph-name="Dcaron" unicode="&#x10e;" horiz-adv-x="1530" 
d="M511 1590l-281 318h253l145 -173h20l145 173h253l-281 -318h-254zM742 1444q322 0 499 -186q178 -187 178 -526q0 -351 -176 -542q-177 -190 -501 -190h-568v1444h568zM476 258h218q201 0 309 120q108 121 108 349q0 218 -110 339q-110 120 -307 120h-218v-928z" />
    <glyph glyph-name="dcaron" unicode="&#x10f;" horiz-adv-x="1520" 
d="M1549 1524l-50 -505h-201v505h251zM211 136q-120 153 -120 417q0 263 121 416q120 152 328 152q112 0 199 -51q87 -52 130 -143h17v597h291v-1524h-282v173h-18q-44 -89 -133 -140q-89 -50 -204 -50q-208 0 -329 153zM456 790q-66 -86 -66 -238q0 -153 66 -239
q66 -87 183 -87t184 87q66 86 66 238q0 151 -67 238q-67 88 -183 88t-183 -87z" />
    <glyph glyph-name="Dcroat" unicode="&#x110;" horiz-adv-x="1513" 
d="M694 258q201 0 309 120q108 121 108 349q0 218 -110 339q-110 120 -307 120h-218v-341h220v-227h-220v-360h218zM742 1444q322 0 499 -186q178 -187 178 -526q0 -351 -176 -542q-177 -190 -501 -190h-568v618h-122v227h122v599h568z" />
    <glyph glyph-name="dcroat" unicode="&#x111;" horiz-adv-x="1343" 
d="M835 313q66 86 66 238q0 151 -67 238q-67 88 -183 88t-183 -87q-66 -86 -66 -238q0 -153 66 -239q66 -87 183 -87t184 87zM1313 1260h-124v-1260h-287v173h-18q-94 -190 -335 -190q-207 0 -326 152q-120 152 -120 418q0 263 121 416q121 152 328 152q112 0 200 -52
q86 -51 129 -142h17v333h-223v152h223v143h291v-143h124v-152z" />
    <glyph glyph-name="Emacron" unicode="&#x112;" horiz-adv-x="1274" 
d="M1130 0h-956v1443h956v-258h-654v-337h617v-239h-617v-351h654v-258zM279 1632v181h746v-181h-746z" />
    <glyph glyph-name="emacron" unicode="&#x113;" horiz-adv-x="1231" 
d="M455 839q-65 -65 -73 -172h470q-5 110 -66 173q-62 64 -164 64q-101 0 -167 -65zM1129 314q-33 -157 -167 -247q-135 -91 -337 -91q-252 0 -393 151q-141 150 -141 419t142 425t388 156q244 0 380 -147q137 -147 137 -410v-89h-757v-15q3 -123 71 -194q67 -72 181 -72
q177 0 225 114h271zM254 1316v180h735v-180h-735z" />
    <glyph glyph-name="Ebreve" unicode="&#x114;" horiz-adv-x="1274" 
d="M1130 0h-956v1443h956v-258h-654v-337h617v-239h-617v-351h654v-258zM460 1915q2 -75 53 -119q52 -45 139 -45t139 45q51 44 53 119h208q0 -150 -107 -242q-110 -94 -293 -94t-293 94q-107 92 -107 242h208z" />
    <glyph glyph-name="ebreve" unicode="&#x115;" horiz-adv-x="1231" 
d="M455 839q-65 -65 -73 -172h470q-5 110 -66 173q-62 64 -164 64q-101 0 -167 -65zM1129 314q-33 -157 -167 -247q-135 -91 -337 -91q-252 0 -393 151q-141 150 -141 419t142 425t388 156q244 0 380 -147q137 -147 137 -410v-89h-757v-15q3 -123 71 -194q67 -72 181 -72
q177 0 225 114h271zM428 1602q2 -81 52 -129q52 -49 140 -49t140 49q50 48 52 129h208q0 -156 -107 -252q-110 -99 -293 -99t-292 99q-107 96 -107 252h207z" />
    <glyph glyph-name="Edotaccent" unicode="&#x116;" horiz-adv-x="1274" 
d="M538 1624q-44 45 -44 113t44 113q45 45 114 45t113 -45t44 -113t-44 -113t-113 -45t-114 45zM1130 0h-956v1443h956v-258h-654v-337h617v-239h-617v-351h654v-258z" />
    <glyph glyph-name="edotaccent" unicode="&#x117;" horiz-adv-x="1231" 
d="M505 1324q-45 45 -45 114t45 115q46 46 116 46t116 -46q45 -46 45 -115t-45 -114q-46 -46 -116 -46t-116 46zM455 839q-65 -65 -73 -172h470q-5 110 -66 173q-62 64 -164 64q-101 0 -167 -65zM1129 314q-33 -157 -167 -247q-135 -91 -337 -91q-252 0 -393 151
q-141 150 -141 419t142 425t388 156q244 0 380 -147q137 -147 137 -410v-89h-757v-15q3 -123 71 -194q67 -72 181 -72q177 0 225 114h271z" />
    <glyph glyph-name="Eogonek" unicode="&#x118;" horiz-adv-x="1274" 
d="M174 0v1443h956v-258h-654v-337h617v-239h-617v-351h654v-225q-196 -101 -196 -220q0 -47 33 -76q33 -28 88 -28q45 0 75 9v-162q-55 -25 -149 -25q-116 0 -186 60q-70 59 -70 158q0 152 159 251h-710z" />
    <glyph glyph-name="eogonek" unicode="&#x119;" horiz-adv-x="1231" 
d="M604 -408q-70 60 -70 155q0 112 112 214v18q-16 -2 -38 -2q-245 5 -381 154q-136 150 -136 415q0 270 142 426q142 155 388 155q244 0 380 -147q137 -147 137 -410v-89h-757v-15q3 -123 71 -195q68 -71 181 -71q176 0 225 114h271q-28 -145 -216 -286
q-174 -132 -174 -226q0 -41 31 -67q32 -26 82 -26q41 0 80 9v-162q-53 -25 -149 -25q-109 0 -179 61zM455 840q-66 -65 -73 -173h470q-5 110 -66 173q-62 64 -164 64q-101 0 -167 -64z" />
    <glyph glyph-name="Ecaron" unicode="&#x11a;" horiz-adv-x="1274" 
d="M525 1590l-281 318h253l145 -173h20l145 173h253l-281 -318h-254zM1130 0h-956v1443h956v-258h-654v-337h617v-239h-617v-351h654v-258z" />
    <glyph glyph-name="ecaron" unicode="&#x11b;" horiz-adv-x="1231" 
d="M475 1251l-275 354h263l149 -209h18l148 209h263l-275 -354h-291zM455 839q-65 -65 -73 -172h470q-5 110 -66 173q-62 64 -164 64q-101 0 -167 -65zM1129 314q-33 -157 -167 -247q-135 -91 -337 -91q-252 0 -393 151q-141 150 -141 419t142 425t388 156q244 0 380 -147
q137 -147 137 -410v-89h-757v-15q3 -123 71 -194q67 -72 181 -72q177 0 225 114h271z" />
    <glyph glyph-name="Gcircumflex" unicode="&#x11c;" horiz-adv-x="1557" 
d="M1215 1591h-265l-146 187h-18l-146 -187h-265l284 335h272zM1442 589q0 -289 -172 -458q-172 -168 -468 -168q-322 0 -507 203t-185 557q0 349 185 553t500 204q256 0 429 -136t205 -361h-300q-34 110 -121 170q-87 61 -213 61q-175 0 -275 -130q-101 -131 -101 -358
q0 -231 105 -364q104 -133 283 -133q148 0 243 80q93 80 98 211l1 26h-313v227h606v-184z" />
    <glyph glyph-name="gcircumflex" unicode="&#x11d;" horiz-adv-x="1322" 
d="M1063 1251h-263l-148 209h-18l-149 -209h-263l275 354h291zM820 792q-68 85 -185 85t-183 -85q-65 -84 -65 -230q0 -147 65 -231q65 -85 183 -85t185 85q67 84 67 230t-67 231zM275 -329q-135 88 -149 234h288q11 -51 70 -81t153 -30q117 0 182 52q65 51 65 144v204h-18
q-94 -178 -332 -178q-206 0 -326 148q-120 147 -120 397q0 257 121 408q122 152 331 152q112 0 201 -52q90 -52 134 -143h18v177h282v-1099q0 -194 -147 -308t-397 -114q-218 0 -356 89z" />
    <glyph glyph-name="Gbreve" unicode="&#x11e;" horiz-adv-x="1557" 
d="M1442 589q0 -289 -172 -458q-172 -168 -468 -168q-322 0 -507 203t-185 557q0 349 185 553t500 204q256 0 429 -136t205 -361h-300q-34 110 -121 170q-87 61 -213 61q-175 0 -275 -130q-101 -131 -101 -358q0 -231 105 -364q104 -133 283 -133q148 0 243 80q93 80 98 211
l1 26h-313v227h606v-184zM603 1916q2 -75 53 -119q52 -45 139 -45t139 45q51 44 53 119h208q0 -150 -107 -242q-110 -94 -293 -94t-293 94q-107 92 -107 242h208z" />
    <glyph glyph-name="gbreve" unicode="&#x11f;" horiz-adv-x="1322" 
d="M450 1602q2 -81 52 -129q52 -49 140 -49t140 49q50 48 52 129h208q0 -156 -107 -252q-110 -99 -293 -99t-292 99q-107 96 -107 252h207zM820 792q-68 85 -185 85t-183 -85q-65 -84 -65 -230q0 -147 65 -231q65 -85 183 -85t185 85q67 84 67 230t-67 231zM275 -329
q-135 88 -149 234h288q11 -51 70 -81t153 -30q117 0 182 52q65 51 65 144v204h-18q-94 -178 -332 -178q-206 0 -326 148q-120 147 -120 397q0 257 121 408q122 152 331 152q112 0 201 -52q90 -52 134 -143h18v177h282v-1099q0 -194 -147 -308t-397 -114q-218 0 -356 89z" />
    <glyph glyph-name="Gdotaccent" unicode="&#x120;" horiz-adv-x="1557" 
d="M681 1625q-44 45 -44 113t44 113q45 45 114 45t113 -45t44 -113t-44 -113t-113 -45t-114 45zM1442 589q0 -289 -172 -458q-172 -168 -468 -168q-322 0 -507 203t-185 557q0 349 185 553t500 204q256 0 429 -136t205 -361h-300q-34 110 -121 170q-87 61 -213 61
q-175 0 -275 -130q-101 -131 -101 -358q0 -231 105 -364q104 -133 283 -133q148 0 243 80q93 80 98 211l1 26h-313v227h606v-184z" />
    <glyph glyph-name="gdotaccent" unicode="&#x121;" horiz-adv-x="1322" 
d="M527 1324q-45 45 -45 114t45 115q46 46 116 46t116 -46q45 -46 45 -115t-45 -114q-46 -46 -116 -46t-116 46zM820 792q-68 85 -185 85t-183 -85q-65 -84 -65 -230q0 -147 65 -231q65 -85 183 -85t185 85q67 84 67 230t-67 231zM275 -329q-135 88 -149 234h288
q11 -51 70 -81t153 -30q117 0 182 52q65 51 65 144v204h-18q-94 -178 -332 -178q-206 0 -326 148q-120 147 -120 397q0 257 121 408q122 152 331 152q112 0 201 -52q90 -52 134 -143h18v177h282v-1099q0 -194 -147 -308t-397 -114q-218 0 -356 89z" />
    <glyph glyph-name="uni0122" unicode="&#x122;" horiz-adv-x="1557" 
d="M548 -509l132 358h292l-166 -358h-258zM1442 589q0 -289 -172 -458q-172 -168 -468 -168q-322 0 -507 203t-185 557q0 349 185 553t500 204q256 0 429 -136t205 -361h-300q-34 110 -121 170q-87 61 -213 61q-175 0 -275 -130q-101 -131 -101 -358q0 -231 105 -364
q104 -133 283 -133q148 0 243 80q93 80 98 211l1 26h-313v227h606v-184z" />
    <glyph glyph-name="uni0123" unicode="&#x123;" horiz-adv-x="1322" 
d="M926 1649l-132 -358h-292l166 358h258zM820 792q-68 85 -185 85t-183 -85q-65 -84 -65 -230q0 -147 65 -231q65 -85 183 -85t185 85q67 84 67 230t-67 231zM275 -329q-135 88 -149 234h288q11 -51 70 -81t153 -30q117 0 182 52q65 51 65 144v204h-18q-94 -178 -332 -178
q-206 0 -326 148q-120 147 -120 397q0 257 121 408q122 152 331 152q112 0 201 -52q90 -52 134 -143h18v177h282v-1099q0 -194 -147 -308t-397 -114q-218 0 -356 89z" />
    <glyph glyph-name="Hcircumflex" unicode="&#x124;" horiz-adv-x="1604" 
d="M1126 0v603h-650v-603h-302v1443h302v-582h650v582h302v-1443h-302zM1221 1590h-265l-146 187h-18l-146 -187h-265l284 335h272z" />
    <glyph glyph-name="hcircumflex" unicode="&#x125;" horiz-adv-x="1332" 
d="M156 1524h286v-602h18q38 94 131 148t215 54q185 0 287 -108q103 -108 103 -306v-710h-291v641q0 232 -216 232q-109 0 -176 -66q-66 -66 -66 -174v-633h-291v1524zM719 1671h-265l-146 187h-18l-146 -187h-265l284 335h272z" />
    <glyph glyph-name="Hbar" unicode="&#x126;" horiz-adv-x="1556" 
d="M1102 1055h-650v-194h650v194zM1532 1055h-128v-1055h-302v603h-650v-603h-302v1055h-128v206h128v182h302v-182h650v182h302v-182h128v-206z" />
    <glyph glyph-name="hbar" unicode="&#x127;" horiz-adv-x="1334" 
d="M457 922q38 94 132 148t216 54q186 0 289 -108q104 -108 104 -306v-710h-291v641q0 114 -57 173q-56 59 -161 59q-109 0 -177 -66q-68 -67 -68 -174v-633h-291v1260h-151v152h151v149h286v-149h249v-152h-249v-338h18z" />
    <glyph glyph-name="Itilde" unicode="&#x128;" horiz-adv-x="652" 
d="M175 0v1443h302v-1443h-302zM312 1646q-83 69 -122 69q-82 0 -86 -128h-184q0 145 70 229q66 80 177 80q94 0 179 -69q84 -69 116 -69q80 0 87 124h183q0 -141 -69 -224q-68 -81 -178 -81q-89 0 -173 69z" />
    <glyph glyph-name="itilde" unicode="&#x129;" horiz-adv-x="593" 
d="M151 1103h291v-1103h-291v1103zM82 1256h-187q0 145 72 233q71 88 189 88q85 0 166 -72q82 -72 112 -72q87 0 88 138h187q0 -144 -71 -231q-72 -87 -190 -87q-85 0 -166 72q-82 72 -112 72q-86 0 -88 -141z" />
    <glyph glyph-name="Imacron" unicode="&#x12a;" horiz-adv-x="652" 
d="M175 0v1443h302v-1443h-302zM-47 1632v181h746v-181h-746z" />
    <glyph glyph-name="imacron" unicode="&#x12b;" horiz-adv-x="593" 
d="M151 1103h291v-1103h-291v1103zM-70 1316v180h735v-180h-735z" />
    <glyph glyph-name="Ibreve" unicode="&#x12c;" horiz-adv-x="652" 
d="M175 0v1443h302v-1443h-302zM134 1915q2 -75 53 -119q52 -45 139 -45t139 45q51 44 53 119h208q0 -150 -107 -242q-110 -94 -293 -94t-293 94q-107 92 -107 242h208z" />
    <glyph glyph-name="ibreve" unicode="&#x12d;" horiz-adv-x="593" 
d="M151 1103h291v-1103h-291v1103zM104 1602q2 -81 52 -129q52 -49 140 -49t140 49q50 48 52 129h208q0 -156 -107 -252q-110 -99 -293 -99t-292 99q-107 96 -107 252h207z" />
    <glyph glyph-name="Iogonek" unicode="&#x12e;" horiz-adv-x="652" 
d="M480 -441q-60 -25 -148 -25q-114 0 -182 60q-69 59 -69 158q0 153 156 258h-63v1433h302v-1439h-42q-149 -91 -149 -190q0 -46 33 -75q33 -28 87 -28q37 0 75 9v-161z" />
    <glyph glyph-name="iogonek" unicode="&#x12f;" horiz-adv-x="593" 
d="M168 1298q-47 41 -47 106q0 66 47 106q47 41 125 41t125 -41q47 -40 47 -106q0 -65 -47 -106q-48 -41 -125 -41q-78 0 -125 41zM441 -444q-62 -25 -149 -25q-113 0 -182 60q-69 59 -69 158q0 154 163 261h-57v1093h291v-1094h-42q-150 -91 -150 -198q0 -46 33 -74t87 -28
q42 0 75 9v-162z" />
    <glyph glyph-name="Idotaccent" unicode="&#x130;" horiz-adv-x="652" 
d="M174 0v1443h302v-1443h-302zM211 1624q-44 45 -44 113t44 113q45 45 114 45t113 -45t44 -113t-44 -113t-113 -45t-114 45z" />
    <glyph glyph-name="dotlessi" unicode="&#x131;" horiz-adv-x="593" 
d="M150 1103h291v-1103h-291v1103z" />
    <glyph glyph-name="IJ" unicode="&#x132;" horiz-adv-x="1883" 
d="M174 0v1443h302v-1443h-302zM1019 424q2 -87 54 -139q53 -52 140 -52q192 0 192 217v993h302v-995q0 -232 -130 -359q-129 -126 -360 -126q-223 0 -356 124q-134 126 -134 337h292z" />
    <glyph glyph-name="ij" unicode="&#x133;" horiz-adv-x="1194" 
d="M147 1103h291v-1103h-291v1103zM168 1298q-47 41 -47 106q0 66 47 106q47 41 125 41t125 -41q47 -40 47 -106q0 -65 -47 -106q-48 -41 -125 -41q-78 0 -125 41zM1035 -33q0 -341 -390 -341q-42 0 -78 3v224q12 -2 37 -2q76 0 108 30q32 28 32 95v1127h291v-1136z
M765 1298q-47 41 -47 106q0 66 47 106q47 41 125 41t125 -41q47 -40 47 -106q0 -65 -47 -106q-48 -41 -125 -41q-78 0 -125 41z" />
    <glyph glyph-name="Jcircumflex" unicode="&#x134;" horiz-adv-x="1231" 
d="M367 424q2 -87 54 -139q53 -52 140 -52q192 0 192 217v993h302v-995q0 -232 -130 -359q-129 -126 -360 -126q-223 0 -356 124q-134 126 -134 337h292zM1324 1590h-265l-146 187h-18l-146 -187h-265l284 335h272z" />
    <glyph glyph-name="jcircumflex" unicode="&#x135;" horiz-adv-x="587" 
d="M436 -33q0 -341 -390 -341q-42 0 -78 3v224q12 -2 37 -2q76 0 108 30q32 28 32 95v1127h291v-1136zM715 1251h-263l-148 209h-18l-149 -209h-263l275 354h291z" />
    <glyph glyph-name="uni0136" unicode="&#x136;" horiz-adv-x="1453" 
d="M174 0v1443h302v-643h18l533 643h336l-526 -633l563 -810h-362l-419 604l-143 -169v-435h-302zM437 -509l132 358h292l-166 -358h-258z" />
    <glyph glyph-name="uni0137" unicode="&#x137;" horiz-adv-x="1232" 
d="M833 1103h331l-420 -473l449 -630h-345l-322 448l-80 -82v-366h-291v1524h291v-852h18zM386 -509l132 358h292l-166 -358h-258z" />
    <glyph glyph-name="Lacute" unicode="&#x139;" horiz-adv-x="1218" 
d="M461 1908h315l-314 -318h-278zM1118 0h-944v1443h302v-1180h642v-263z" />
    <glyph glyph-name="lacute" unicode="&#x13a;" horiz-adv-x="603" 
d="M437 1989h315l-314 -318h-278zM155 1524h291v-1524h-291v1524z" />
    <glyph glyph-name="uni013B" unicode="&#x13b;" horiz-adv-x="1218" 
d="M377 -509l132 358h292l-166 -358h-258zM1118 0h-944v1443h302v-1180h642v-263z" />
    <glyph glyph-name="uni013C" unicode="&#x13c;" horiz-adv-x="603" 
d="M37 -509l132 358h292l-166 -358h-258zM155 1524h291v-1524h-291v1524z" />
    <glyph glyph-name="Lcaron" unicode="&#x13d;" horiz-adv-x="1218" 
d="M920 1443l-50 -504h-196v504h246zM1118 0h-944v1443h302v-1180h642v-263z" />
    <glyph glyph-name="lcaron" unicode="&#x13e;" horiz-adv-x="774" 
d="M803 1524l-50 -505h-201v505h251zM155 1524h291v-1524h-291v1524z" />
    <glyph glyph-name="Lslash" unicode="&#x141;" horiz-adv-x="1194" 
d="M1118 263v-263h-944v661l-152 -78v205l152 78v577h302v-423l238 122v-205l-238 -122v-552h642z" />
    <glyph glyph-name="lslash" unicode="&#x142;" horiz-adv-x="603" 
d="M570 889l-124 -66v-823h-291v668l-124 -66v205l124 66v651h291v-496l124 66v-205z" />
    <glyph glyph-name="Nacute" unicode="&#x143;" horiz-adv-x="1573" 
d="M918 1908h315l-314 -318h-278zM174 0v1443h252l664 -899h18v899h289v-1443h-250l-666 903h-18v-903h-289z" />
    <glyph glyph-name="nacute" unicode="&#x144;" horiz-adv-x="1310" 
d="M758 1634h309l-287 -353h-269zM145 1103h282v-177h18q38 93 130 147t213 54q184 0 285 -108q100 -108 100 -306v-713h-291v644q0 232 -210 232q-108 0 -172 -66q-64 -65 -64 -174v-636h-291v1103z" />
    <glyph glyph-name="uni0145" unicode="&#x145;" horiz-adv-x="1573" 
d="M518 -509l132 358h292l-166 -358h-258zM174 0v1443h252l664 -899h18v899h289v-1443h-250l-666 903h-18v-903h-289z" />
    <glyph glyph-name="uni0146" unicode="&#x146;" horiz-adv-x="1310" 
d="M395 -509l132 358h292l-166 -358h-258zM145 1103h282v-177h18q38 93 130 147t213 54q184 0 285 -108q100 -108 100 -306v-713h-291v644q0 232 -210 232q-108 0 -172 -66q-64 -65 -64 -174v-636h-291v1103z" />
    <glyph glyph-name="Ncaron" unicode="&#x147;" horiz-adv-x="1573" 
d="M655 1590l-281 318h253l145 -173h20l145 173h253l-281 -318h-254zM174 0v1443h252l664 -899h18v899h289v-1443h-250l-666 903h-18v-903h-289z" />
    <glyph glyph-name="ncaron" unicode="&#x148;" horiz-adv-x="1310" 
d="M520 1251l-275 354h263l149 -209h18l148 209h263l-275 -354h-291zM145 1103h282v-177h18q38 93 130 147t213 54q184 0 285 -108q100 -108 100 -306v-713h-291v644q0 232 -210 232q-108 0 -172 -66q-64 -65 -64 -174v-636h-291v1103z" />
    <glyph glyph-name="Omacron" unicode="&#x14c;" horiz-adv-x="1610" 
d="M1311 1276q187 -204 187 -554q0 -351 -186 -555q-187 -204 -507 -204q-321 0 -508 204t-187 555q0 350 189 555q187 203 506 203q320 0 506 -204zM524 1082q-105 -134 -105 -360t104 -360q105 -134 282 -134q176 0 281 134q104 134 104 360t-104 360q-105 133 -281 133
t-281 -133zM432 1632v181h746v-181h-746z" />
    <glyph glyph-name="omacron" unicode="&#x14d;" horiz-adv-x="1269" 
d="M267 1316v180h735v-180h-735zM814 303q64 88 64 249q0 159 -64 248q-65 89 -180 89q-116 0 -180 -89t-64 -248q0 -161 64 -250q63 -88 180 -88q116 0 180 89zM235 129q-144 153 -144 423q0 268 146 421q145 154 397 154t398 -153q145 -154 145 -422q0 -270 -144 -423
q-145 -153 -399 -153t-399 153z" />
    <glyph glyph-name="Obreve" unicode="&#x14e;" horiz-adv-x="1610" 
d="M1311 1276q187 -204 187 -554q0 -351 -186 -555q-187 -204 -507 -204q-321 0 -508 204t-187 555q0 350 189 555q187 203 506 203q320 0 506 -204zM524 1082q-105 -134 -105 -360t104 -360q105 -134 282 -134q176 0 281 134q104 134 104 360t-104 360q-105 133 -281 133
t-281 -133zM613 1915q2 -75 53 -119q52 -45 139 -45t139 45q51 44 53 119h208q0 -150 -107 -242q-110 -94 -293 -94t-293 94q-107 92 -107 242h208z" />
    <glyph glyph-name="obreve" unicode="&#x14f;" horiz-adv-x="1269" 
d="M441 1602q2 -81 52 -129q52 -49 140 -49t140 49q50 48 52 129h208q0 -156 -107 -252q-110 -99 -293 -99t-292 99q-107 96 -107 252h207zM814 303q64 88 64 249q0 159 -64 248q-65 89 -180 89q-116 0 -180 -89t-64 -248q0 -161 64 -250q63 -88 180 -88q116 0 180 89z
M235 129q-144 153 -144 423q0 268 146 421q145 154 397 154t398 -153q145 -154 145 -422q0 -270 -144 -423q-145 -153 -399 -153t-399 153z" />
    <glyph glyph-name="Ohungarumlaut" unicode="&#x150;" horiz-adv-x="1610" 
d="M1126 1908h270l-278 -318h-244zM688 1908h271l-278 -318h-244zM1311 1276q187 -204 187 -554q0 -351 -186 -555q-187 -204 -507 -204q-321 0 -508 204t-187 555q0 350 189 555q187 203 506 203q320 0 506 -204zM524 1082q-105 -134 -105 -360t104 -360q105 -134 282 -134
q176 0 281 134q104 134 104 360t-104 360q-105 133 -281 133t-281 -133z" />
    <glyph glyph-name="ohungarumlaut" unicode="&#x151;" horiz-adv-x="1269" 
d="M923 1634h259l-242 -353h-229zM487 1634h259l-242 -353h-229zM814 303q64 88 64 249q0 159 -64 248q-65 89 -180 89q-116 0 -180 -89t-64 -248q0 -161 64 -250q63 -88 180 -88q116 0 180 89zM235 129q-144 153 -144 423q0 268 146 421q145 154 397 154t398 -153
q145 -154 145 -422q0 -270 -144 -423q-145 -153 -399 -153t-399 153z" />
    <glyph glyph-name="OE" unicode="&#x152;" horiz-adv-x="2271" 
d="M535 1081q-106 -133 -106 -359q0 -227 106 -361q105 -133 285 -133q175 0 278 134q103 133 103 360t-103 360t-278 133q-179 0 -285 -134zM1253 232h-18q-55 -121 -183 -195t-282 -74q-305 0 -478 201q-172 201 -172 558t172 558q173 200 478 200q152 0 283 -74
q130 -73 182 -188h18v225h916v-258h-663v-337h626v-239h-626v-351h663v-258h-916v232z" />
    <glyph glyph-name="oe" unicode="&#x153;" horiz-adv-x="2017" 
d="M1033 162h-18q-119 -186 -390 -186q-245 0 -387 154t-142 420q0 269 142 423q141 154 388 154q265 0 390 -190h18q123 190 391 190q228 0 365 -151q136 -151 136 -406v-88h-757v-16q3 -123 71 -194q68 -72 181 -72q177 0 225 114h269q-33 -156 -166 -247
q-132 -91 -323 -91q-273 0 -393 186zM1243 840q-66 -65 -73 -173h470q-5 110 -66 173q-62 64 -164 64q-101 0 -167 -64zM819 302q64 88 64 249q0 160 -64 249q-65 89 -180 89t-180 -89q-64 -89 -64 -249q0 -161 64 -249t180 -88t180 88z" />
    <glyph glyph-name="Racute" unicode="&#x154;" horiz-adv-x="1422" 
d="M787 1908h315l-314 -318h-278zM476 755h265q114 0 178 58q63 59 63 163q0 103 -66 163t-178 60h-262v-444zM476 0h-302v1443h606q238 0 375 -124t137 -339q0 -140 -69 -249q-70 -112 -193 -161l304 -570h-342l-269 523h-247v-523z" />
    <glyph glyph-name="racute" unicode="&#x155;" horiz-adv-x="881" 
d="M539 1634h309l-287 -353h-269zM145 1103h282v-176h18q22 84 99 138q79 56 181 56q73 0 112 -14v-265q-46 18 -136 18q-119 0 -191 -66q-74 -68 -74 -183v-611h-291v1103z" />
    <glyph glyph-name="uni0156" unicode="&#x156;" horiz-adv-x="1422" 
d="M476 755h265q114 0 178 58q63 59 63 163q0 103 -66 163t-178 60h-262v-444zM476 0h-302v1443h606q238 0 375 -124t137 -339q0 -140 -69 -249q-70 -112 -193 -161l304 -570h-342l-269 523h-247v-523zM387 -509l132 358h292l-166 -358h-258z" />
    <glyph glyph-name="uni0157" unicode="&#x157;" horiz-adv-x="881" 
d="M145 1103h282v-176h18q22 84 99 138q79 56 181 56q73 0 112 -14v-265q-46 18 -136 18q-119 0 -191 -66q-74 -68 -74 -183v-611h-291v1103zM24 -509l132 358h292l-166 -358h-258z" />
    <glyph glyph-name="Rcaron" unicode="&#x158;" horiz-adv-x="1422" 
d="M476 755h265q114 0 178 58q63 59 63 163q0 103 -66 163t-178 60h-262v-444zM476 0h-302v1443h606q238 0 375 -124t137 -339q0 -140 -69 -249q-70 -112 -193 -161l304 -570h-342l-269 523h-247v-523zM524 1590l-281 318h253l145 -173h20l145 173h253l-281 -318h-254z" />
    <glyph glyph-name="rcaron" unicode="&#x159;" horiz-adv-x="881" 
d="M301 1251l-275 354h263l149 -209h18l148 209h263l-275 -354h-291zM145 1103h282v-176h18q22 84 99 138q79 56 181 56q73 0 112 -14v-265q-46 18 -136 18q-119 0 -191 -66q-74 -68 -74 -183v-611h-291v1103z" />
    <glyph glyph-name="Sacute" unicode="&#x15a;" horiz-adv-x="1383" 
d="M831 1908h315l-314 -318h-278zM401 401q10 -88 93 -140q81 -52 209 -52q118 0 193 52q75 51 75 133q0 69 -58 112t-191 71l-188 40q-392 82 -392 412q0 204 151 328q151 123 401 123q238 0 392 -121q153 -121 160 -314h-284q-11 86 -83 138q-74 52 -183 52
q-114 0 -182 -49q-69 -49 -69 -131q0 -67 56 -108q55 -41 182 -68l174 -37q217 -46 316 -144t99 -266q0 -218 -157 -344q-156 -125 -428 -125q-258 0 -414 118t-164 320h292z" />
    <glyph glyph-name="sacute" unicode="&#x15b;" horiz-adv-x="1160" 
d="M246 1031q127 96 333 96q210 0 330 -85q119 -85 131 -243h-269q-24 115 -190 115q-79 0 -129 -32q-52 -33 -52 -85q0 -76 149 -110l207 -45q161 -35 235 -107q75 -72 75 -195q0 -164 -135 -264q-133 -100 -351 -100t-345 86t-142 245h284q35 -118 209 -118q85 0 138 32
q53 33 53 86q0 78 -139 108l-200 45q-318 70 -318 319q0 157 126 252zM671 1634h309l-287 -353h-269z" />
    <glyph glyph-name="Scircumflex" unicode="&#x15c;" horiz-adv-x="1383" 
d="M401 401q10 -88 93 -140q81 -52 209 -52q118 0 193 52q75 51 75 133q0 69 -58 112t-191 71l-188 40q-392 82 -392 412q0 204 151 328q151 123 401 123q238 0 392 -121q153 -121 160 -314h-284q-11 86 -83 138q-74 52 -183 52q-114 0 -182 -49q-69 -49 -69 -131
q0 -67 56 -108q55 -41 182 -68l174 -37q217 -46 316 -144t99 -266q0 -218 -157 -344q-156 -125 -428 -125q-258 0 -414 118t-164 320h292zM1115 1590h-265l-146 187h-18l-146 -187h-265l284 335h272z" />
    <glyph glyph-name="scircumflex" unicode="&#x15d;" horiz-adv-x="1160" 
d="M999 1251h-263l-148 209h-18l-149 -209h-263l275 354h291zM246 1031q127 96 333 96q210 0 330 -85q119 -85 131 -243h-269q-24 115 -190 115q-79 0 -129 -32q-52 -33 -52 -85q0 -76 149 -110l207 -45q161 -35 235 -107q75 -72 75 -195q0 -164 -135 -264
q-133 -100 -351 -100t-345 86t-142 245h284q35 -118 209 -118q85 0 138 32q53 33 53 86q0 78 -139 108l-200 45q-318 70 -318 319q0 157 126 252z" />
    <glyph glyph-name="Scedilla" unicode="&#x15e;" horiz-adv-x="1383" 
d="M857 842q217 -46 316 -144t99 -266q0 -200 -133 -324q-133 -122 -367 -142l-33 -79q196 -9 196 -177q0 -96 -69 -150q-71 -54 -198 -54q-84 0 -147 17v135q37 -14 116 -14q112 0 112 59q0 56 -130 56h-60v115l39 93q-220 20 -351 135q-131 116 -138 299h292
q10 -88 93 -140q81 -52 209 -52q118 0 193 52q75 51 75 133q0 69 -58 112t-191 71l-188 40q-392 82 -392 412q0 204 151 328q151 123 401 123q238 0 392 -121q153 -121 160 -314h-284q-11 86 -83 138q-74 52 -183 52q-114 0 -182 -49q-69 -49 -69 -131q0 -67 56 -108
q55 -41 182 -68z" />
    <glyph glyph-name="scedilla" unicode="&#x15f;" horiz-adv-x="1160" 
d="M756 642q161 -35 235 -107q75 -72 75 -195q0 -146 -108 -243q-107 -96 -288 -116l-38 -93q196 -9 196 -177q0 -96 -69 -150q-71 -54 -198 -54q-84 0 -147 17v135q37 -14 116 -14q112 0 112 59q0 56 -130 56h-60v115l44 105q-181 16 -285 100q-105 84 -118 227h284
q35 -118 209 -118q85 0 138 32q53 33 53 86q0 78 -139 108l-200 45q-318 70 -318 319q0 157 126 252q127 96 333 96q210 0 330 -85q119 -85 131 -243h-269q-24 115 -190 115q-79 0 -129 -32q-52 -33 -52 -85q0 -76 149 -110z" />
    <glyph glyph-name="Scaron" unicode="&#x160;" horiz-adv-x="1383" 
d="M401 401q10 -88 93 -140q81 -52 209 -52q118 0 193 52q75 51 75 133q0 69 -58 112t-191 71l-188 40q-392 82 -392 412q0 204 151 328q151 123 401 123q238 0 392 -121q153 -121 160 -314h-284q-11 86 -83 138q-74 52 -183 52q-114 0 -182 -49q-69 -49 -69 -131
q0 -67 56 -108q55 -41 182 -68l174 -37q217 -46 316 -144t99 -266q0 -218 -157 -344q-156 -125 -428 -125q-258 0 -414 118t-164 320h292zM568 1590l-281 318h253l145 -173h20l145 173h253l-281 -318h-254z" />
    <glyph glyph-name="scaron" unicode="&#x161;" horiz-adv-x="1160" 
d="M433 1251l-275 354h263l149 -209h18l148 209h263l-275 -354h-291zM246 1031q127 96 333 96q210 0 330 -85q119 -85 131 -243h-269q-24 115 -190 115q-79 0 -129 -32q-52 -33 -52 -85q0 -76 149 -110l207 -45q161 -35 235 -107q75 -72 75 -195q0 -164 -135 -264
q-133 -100 -351 -100t-345 86t-142 245h284q35 -118 209 -118q85 0 138 32q53 33 53 86q0 78 -139 108l-200 45q-318 70 -318 319q0 157 126 252z" />
    <glyph glyph-name="uni0162" unicode="&#x162;" horiz-adv-x="1352" 
d="M773 0l-46 -112q196 -9 196 -177q0 -96 -69 -150q-71 -54 -198 -54q-84 0 -147 17v135q37 -14 116 -14q112 0 112 59q0 56 -130 56h-60v115l52 125h-75v1185h-433v258h1168v-258h-433v-1185h-53z" />
    <glyph glyph-name="uni0163" unicode="&#x163;" horiz-adv-x="845" 
d="M315 -476v134q42 -14 116 -14q112 0 112 59q0 56 -130 56h-60v116l60 144q-185 52 -185 279v565h-175v229h175v268h291v-268h234v-229h-234v-496q0 -140 143 -140q48 0 85 4v-222q-67 -13 -142 -13l-27 1l-45 -109q196 -11 196 -177q0 -96 -69 -150q-70 -54 -198 -54
q-90 0 -147 17z" />
    <glyph glyph-name="Tcaron" unicode="&#x164;" horiz-adv-x="1352" 
d="M545 1590l-281 318h253l145 -173h20l145 173h253l-281 -318h-254zM524 0v1185h-433v258h1168v-258h-433v-1185h-302z" />
    <glyph glyph-name="tcaron" unicode="&#x165;" horiz-adv-x="845" 
d="M622 1231v504h251l-50 -504h-201zM519 1360v-268h234v-229h-234v-496q0 -140 143 -140q48 0 85 4v-222q-67 -13 -145 -13q-201 0 -287 70q-87 70 -87 232v565h-175v229h175v268h291z" />
    <glyph glyph-name="Tbar" unicode="&#x166;" horiz-adv-x="1352" 
d="M826 1185v-384h281v-218h-281v-583h-302v583h-286v218h286v384h-433v258h1168v-258h-433z" />
    <glyph glyph-name="tbar" unicode="&#x167;" horiz-adv-x="843" 
d="M519 492v-125q0 -140 143 -140q48 0 85 4v-222q-67 -13 -145 -13q-201 0 -287 70q-87 70 -87 232v194h-173v162h173v209h-175v229h175v268h291v-268h234v-229h-234v-209h243v-162h-243z" />
    <glyph glyph-name="Utilde" unicode="&#x168;" horiz-adv-x="1565" 
d="M479 529q0 -138 79 -217q80 -81 223 -81q144 0 224 81q79 79 79 217v914h302v-945q0 -241 -164 -387q-165 -148 -441 -148q-275 0 -440 148q-164 146 -164 387v945h302v-914zM767 1646q-83 69 -122 69q-82 0 -86 -128h-184q0 145 70 229q66 80 177 80q94 0 179 -69
q84 -69 116 -69q80 0 87 124h183q0 -141 -69 -224q-68 -81 -178 -81q-89 0 -173 69z" />
    <glyph glyph-name="utilde" unicode="&#x169;" horiz-adv-x="1318" 
d="M1168 0h-282v177h-18q-39 -96 -127 -148q-88 -53 -208 -53q-183 0 -290 109q-108 110 -108 304v714h291v-644q0 -230 215 -230q108 0 172 64t64 174v636h291v-1103zM440 1256h-187q0 145 72 233q71 88 189 88q85 0 166 -72q82 -72 112 -72q87 0 88 138h187
q0 -144 -71 -231q-72 -87 -190 -87q-85 0 -166 72q-82 72 -112 72q-86 0 -88 -141z" />
    <glyph glyph-name="Umacron" unicode="&#x16a;" horiz-adv-x="1565" 
d="M479 529q0 -138 79 -217q80 -81 223 -81q144 0 224 81q79 79 79 217v914h302v-945q0 -241 -164 -387q-165 -148 -441 -148q-275 0 -440 148q-164 146 -164 387v945h302v-914zM408 1632v181h746v-181h-746z" />
    <glyph glyph-name="umacron" unicode="&#x16b;" horiz-adv-x="1318" 
d="M1168 0h-282v177h-18q-39 -96 -127 -148q-88 -53 -208 -53q-183 0 -290 109q-108 110 -108 304v714h291v-644q0 -230 215 -230q108 0 172 64t64 174v636h291v-1103zM288 1316v180h735v-180h-735z" />
    <glyph glyph-name="Ubreve" unicode="&#x16c;" horiz-adv-x="1565" 
d="M479 529q0 -138 79 -217q80 -81 223 -81q144 0 224 81q79 79 79 217v914h302v-945q0 -241 -164 -387q-165 -148 -441 -148q-275 0 -440 148q-164 146 -164 387v945h302v-914zM589 1915q2 -75 53 -119q52 -45 139 -45t139 45q51 44 53 119h208q0 -150 -107 -242
q-110 -94 -293 -94t-293 94q-107 92 -107 242h208z" />
    <glyph glyph-name="ubreve" unicode="&#x16d;" horiz-adv-x="1318" 
d="M1168 0h-282v177h-18q-39 -96 -127 -148q-88 -53 -208 -53q-183 0 -290 109q-108 110 -108 304v714h291v-644q0 -230 215 -230q108 0 172 64t64 174v636h291v-1103zM462 1602q2 -81 52 -129q52 -49 140 -49t140 49q50 48 52 129h208q0 -156 -107 -252q-110 -99 -293 -99
t-292 99q-107 96 -107 252h207z" />
    <glyph glyph-name="Uring" unicode="&#x16e;" horiz-adv-x="1565" 
d="M606 1646q-71 69 -71 173q0 102 71 170q70 68 175 68t175 -68q70 -67 70 -170q0 -104 -70 -173q-70 -68 -175 -68t-175 68zM856 1744q30 29 30 74q0 44 -30 74q-30 29 -75 29q-46 0 -76 -29q-30 -30 -30 -74q0 -46 30 -75t76 -29t75 30zM479 529q0 -138 79 -217
q80 -81 223 -81q144 0 224 81q79 79 79 217v914h302v-945q0 -241 -164 -387q-165 -148 -441 -148q-275 0 -440 148q-164 146 -164 387v945h302v-914z" />
    <glyph glyph-name="uring" unicode="&#x16f;" horiz-adv-x="1318" 
d="M1168 0h-282v177h-18q-39 -96 -127 -148q-88 -53 -208 -53q-183 0 -290 109q-108 110 -108 304v714h291v-644q0 -230 215 -230q108 0 172 64t64 174v636h291v-1103zM480 1319q-71 69 -71 173q0 102 71 170q70 68 175 68t175 -68q70 -67 70 -170q0 -104 -70 -173
q-70 -68 -175 -68t-175 68zM730 1417q30 29 30 74q0 44 -30 74q-30 29 -75 29q-46 0 -76 -29q-30 -30 -30 -74q0 -46 30 -75t76 -29t75 30z" />
    <glyph glyph-name="Uhungarumlaut" unicode="&#x170;" horiz-adv-x="1565" 
d="M479 529q0 -138 79 -217q80 -81 223 -81q144 0 224 81q79 79 79 217v914h302v-945q0 -241 -164 -387q-165 -148 -441 -148q-275 0 -440 148q-164 146 -164 387v945h302v-914zM1102 1908h270l-278 -318h-244zM664 1908h271l-278 -318h-244z" />
    <glyph glyph-name="uhungarumlaut" unicode="&#x171;" horiz-adv-x="1318" 
d="M944 1634h259l-242 -353h-229zM508 1634h259l-242 -353h-229zM1168 0h-282v177h-18q-39 -96 -127 -148q-88 -53 -208 -53q-183 0 -290 109q-108 110 -108 304v714h291v-644q0 -230 215 -230q108 0 172 64t64 174v636h291v-1103z" />
    <glyph glyph-name="Uogonek" unicode="&#x172;" horiz-adv-x="1565" 
d="M804 -410q-69 60 -69 155q0 124 113 211v18q-23 -10 -63 -10q-279 0 -443 145q-165 145 -165 389v945h302v-914q0 -139 81 -219q80 -79 221 -79t222 79t81 219v914h302v-945q0 -258 -223 -435q-15 -12 -82 -62q-47 -36 -71 -58q-70 -65 -70 -132q0 -46 33 -74t88 -28
q37 0 74 9v-162q-58 -25 -150 -25q-112 0 -181 59z" />
    <glyph glyph-name="uogonek" unicode="&#x173;" horiz-adv-x="1312" 
d="M1151 -445q-60 -21 -133 -21q-113 0 -182 60q-69 59 -69 158q0 158 168 258h-49v167h-18q-39 -96 -127 -148q-88 -53 -208 -53q-183 0 -290 109q-108 110 -108 304v714h291v-644q0 -230 215 -230q108 0 172 64t64 174v636h291v-1094h-45q-151 -86 -151 -193q0 -48 33 -76
q32 -29 86 -29q33 0 60 7v-163z" />
    <glyph glyph-name="Wcircumflex" unicode="&#x174;" horiz-adv-x="2067" 
d="M1453 1590h-265l-146 187h-18l-146 -187h-265l284 335h272zM754 0h-285l-382 1443h314l225 -1017h16l263 1017h255l268 -1017h16l223 1017h312l-383 -1443h-283l-273 955h-16z" />
    <glyph glyph-name="wcircumflex" unicode="&#x175;" horiz-adv-x="1735" 
d="M1289 1251h-263l-148 209h-18l-149 -209h-263l275 354h291zM1380 0h-310l-197 761h-18l-195 -761h-306l-294 1103h295l164 -791h18l193 791h278l194 -791h18l164 791h289z" />
    <glyph glyph-name="Ycircumflex" unicode="&#x176;" horiz-adv-x="1452" 
d="M574 0v531l-503 912h327l318 -604h18l317 604h327l-502 -912v-531h-302zM1145 1590h-265l-146 187h-18l-146 -187h-265l284 335h272z" />
    <glyph glyph-name="ycircumflex" unicode="&#x177;" horiz-adv-x="1223" 
d="M171 -400v235q15 -3 66 -3q160 0 195 121l10 40l-387 1110h321l232 -836h18l232 836h308l-380 -1120q-70 -213 -184 -299q-113 -87 -320 -87q-93 0 -111 3zM1035 1251h-263l-148 209h-18l-149 -209h-263l275 354h291z" />
    <glyph glyph-name="Ydieresis" unicode="&#x178;" horiz-adv-x="1452" 
d="M574 0v531l-503 912h327l318 -604h18l317 604h327l-502 -912v-531h-302zM380 1622q-44 43 -44 109t44 109q43 42 111 42t111 -42q44 -43 44 -109t-44 -109t-111 -43t-111 43zM848 1622q-44 43 -44 109t44 109q44 42 111 42q68 0 112 -42q44 -43 44 -109t-44 -109
t-112 -43q-67 0 -111 43z" />
    <glyph glyph-name="Zacute" unicode="&#x179;" horiz-adv-x="1384" 
d="M827 1908h315l-314 -318h-278zM134 204l726 963v18h-709v258h1077v-203l-724 -964v-18h744v-258h-1114v204z" />
    <glyph glyph-name="zacute" unicode="&#x17a;" horiz-adv-x="1160" 
d="M668 1634h309l-287 -353h-269zM120 172l558 681v18h-550v232h898v-192l-526 -661v-18h539v-232h-919v172z" />
    <glyph glyph-name="Zdotaccent" unicode="&#x17b;" horiz-adv-x="1384" 
d="M577 1624q-44 45 -44 113t44 113q45 45 114 45t113 -45t44 -113t-44 -113t-113 -45t-114 45zM134 204l726 963v18h-709v258h1077v-203l-724 -964v-18h744v-258h-1114v204z" />
    <glyph glyph-name="zdotaccent" unicode="&#x17c;" horiz-adv-x="1160" 
d="M460 1324q-45 45 -45 114t45 115q46 46 116 46t116 -46q45 -46 45 -115t-45 -114q-46 -46 -116 -46t-116 46zM120 172l558 681v18h-550v232h898v-192l-526 -661v-18h539v-232h-919v172z" />
    <glyph glyph-name="Zcaron" unicode="&#x17d;" horiz-adv-x="1384" 
d="M134 204l726 963v18h-709v258h1077v-203l-724 -964v-18h744v-258h-1114v204zM564 1590l-281 318h253l145 -173h20l145 173h253l-281 -318h-254z" />
    <glyph glyph-name="zcaron" unicode="&#x17e;" horiz-adv-x="1160" 
d="M430 1251l-275 354h263l149 -209h18l148 209h263l-275 -354h-291zM120 172l558 681v18h-550v232h898v-192l-526 -661v-18h539v-232h-919v172z" />
    <glyph glyph-name="florin" unicode="&#x192;" horiz-adv-x="1415" 
d="M106 -1v246q87 -26 179 -26q187 0 215 180l41 256h-317v217h350l29 188q63 399 495 399q121 0 202 -15v-245q-66 18 -168 18q-201 0 -231 -190l-24 -155h349v-217h-383l-42 -271q-33 -211 -151 -310q-117 -98 -328 -98q-121 0 -216 23z" />
    <glyph glyph-name="Ohorn" unicode="&#x1a0;" horiz-adv-x="1689" 
d="M1310 166q-187 -203 -506 -203q-320 0 -507 204q-187 205 -187 554t186 554t502 205q169 0 322 -70q153 -71 191 -71q93 0 93 124v185h231v-280q0 -103 -48 -161q-48 -59 -131 -59q-31 0 -44 9l-14 -16q100 -180 100 -425q0 -346 -188 -550zM524 1081
q-105 -134 -105 -360q0 -225 105 -359t281 -134t281 134q104 134 104 360q0 225 -104 359q-105 134 -281 134t-281 -134z" />
    <glyph glyph-name="ohorn" unicode="&#x1a1;" horiz-adv-x="1425" 
d="M454 302q64 -88 180 -88t180 88t64 249q0 160 -64 249q-65 89 -180 89t-180 -89q-64 -89 -64 -249q0 -161 64 -249zM1031 128q-147 -152 -404 -152q-245 0 -391 155q-145 156 -145 416q0 262 146 421q145 159 385 159q153 0 289 -76q137 -77 168 -77q86 0 86 115v167h231
v-233q0 -115 -55 -183q-55 -67 -146 -67q-24 0 -49 7l-9 -10q40 -113 40 -224q0 -266 -146 -418z" />
    <glyph glyph-name="Uhorn" unicode="&#x1af;" horiz-adv-x="1794" 
d="M1390 1394q39 -20 78 -13q72 8 72 118v166h231v-224q0 -132 -71 -207q-70 -75 -195 -75q-93 0 -119 20v-681q0 -243 -166 -389q-165 -146 -439 -146q-273 0 -438 146q-166 146 -166 389v945h302v-914q0 -139 81 -219q80 -79 221 -79t222 79t81 219v914h306v-49z" />
    <glyph glyph-name="uhorn" unicode="&#x1b0;" horiz-adv-x="1555" 
d="M865 177q-39 -95 -127 -148q-87 -53 -208 -53q-185 0 -292 111q-106 111 -106 302v714h291v-644q0 -230 215 -230q108 0 172 65q64 64 64 173v636h296v-41q43 -20 81 -10q69 10 69 115v166h231v-224q0 -132 -71 -207t-196 -75q-90 0 -119 19v-846h-282v177h-18z" />
    <glyph glyph-name="uni01C4" unicode="&#x1c4;" horiz-adv-x="2924" 
d="M742 1444q322 0 499 -186q178 -187 178 -526q0 -351 -176 -542q-177 -190 -501 -190h-568v1444h568zM476 258h218q201 0 309 120q108 121 108 349q0 218 -110 339q-110 120 -307 120h-218v-928zM1674 204l726 963v18h-709v258h1077v-203l-724 -964v-18h744v-258h-1114
v204zM2104 1590l-281 318h253l145 -173h20l145 173h253l-281 -318h-254z" />
    <glyph glyph-name="uni01C5" unicode="&#x1c5;" horiz-adv-x="2700" 
d="M742 1444q322 0 499 -186q178 -187 178 -526q0 -351 -176 -542q-177 -190 -501 -190h-568v1444h568zM476 258h218q201 0 309 120q108 121 108 349q0 218 -110 339q-110 120 -307 120h-218v-928zM1970 1251l-275 354h263l149 -209h18l148 209h263l-275 -354h-291z
M1660 172l558 681v18h-550v232h898v-192l-526 -661v-18h539v-232h-919v172z" />
    <glyph glyph-name="uni01C6" unicode="&#x1c6;" horiz-adv-x="2503" 
d="M211 136q-120 153 -120 417q0 263 121 416q120 152 328 152q112 0 199 -51q87 -52 130 -143h17v597h291v-1524h-282v173h-18q-44 -89 -133 -140q-89 -50 -204 -50q-208 0 -329 153zM456 790q-66 -86 -66 -238q0 -153 66 -239q66 -87 183 -87t184 87q66 86 66 238
q0 151 -67 238q-67 88 -183 88t-183 -87zM1773 1251l-275 354h263l149 -209h18l148 209h263l-275 -354h-291zM1463 172l558 681v18h-550v232h898v-192l-526 -661v-18h539v-232h-919v172z" />
    <glyph glyph-name="uni01C7" unicode="&#x1c7;" horiz-adv-x="2444" 
d="M1580 424q2 -87 54 -139q53 -52 140 -52q192 0 192 217v993h302v-995q0 -232 -130 -359q-129 -126 -360 -126q-223 0 -356 124q-134 126 -134 337h292zM1118 0h-944v1443h302v-1180h642v-263z" />
    <glyph glyph-name="uni01C8" unicode="&#x1c8;" horiz-adv-x="1810" 
d="M1651 -33q0 -341 -390 -341q-42 0 -78 3v224q12 -2 37 -2q76 0 108 30q32 28 32 95v1127h291v-1136zM1381 1298q-47 41 -47 106q0 66 47 106q47 41 125 41t125 -41q47 -40 47 -106q0 -65 -47 -106q-48 -41 -125 -41q-78 0 -125 41zM1118 0h-944v1443h302v-1180h642v-263z
" />
    <glyph glyph-name="uni01C9" unicode="&#x1c9;" horiz-adv-x="1194" 
d="M1035 -33q0 -341 -390 -341q-42 0 -78 3v224q12 -2 37 -2q76 0 108 30q32 28 32 95v1127h291v-1136zM765 1298q-47 41 -47 106q0 66 47 106q47 41 125 41t125 -41q47 -40 47 -106q0 -65 -47 -106q-48 -41 -125 -41q-78 0 -125 41zM155 1524h291v-1524h-291v1524z" />
    <glyph glyph-name="uni01CA" unicode="&#x1ca;" horiz-adv-x="2804" 
d="M1940 424q2 -87 54 -139q53 -52 140 -52q192 0 192 217v993h302v-995q0 -232 -130 -359q-129 -126 -360 -126q-223 0 -356 124q-134 126 -134 337h292zM174 0v1443h252l664 -899h18v899h289v-1443h-250l-666 903h-18v-903h-289z" />
    <glyph glyph-name="uni01CB" unicode="&#x1cb;" horiz-adv-x="2170" 
d="M2011 -33q0 -341 -390 -341q-42 0 -78 3v224q12 -2 37 -2q76 0 108 30q32 28 32 95v1127h291v-1136zM1741 1298q-47 41 -47 106q0 66 47 106q47 41 125 41t125 -41q47 -40 47 -106q0 -65 -47 -106q-48 -41 -125 -41q-78 0 -125 41zM174 0v1443h252l664 -899h18v899h289
v-1443h-250l-666 903h-18v-903h-289z" />
    <glyph glyph-name="uni01CC" unicode="&#x1cc;" horiz-adv-x="1914" 
d="M1755 -33q0 -341 -390 -341q-42 0 -78 3v224q12 -2 37 -2q76 0 108 30q32 28 32 95v1127h291v-1136zM1485 1298q-47 41 -47 106q0 66 47 106q47 41 125 41t125 -41q47 -40 47 -106q0 -65 -47 -106q-48 -41 -125 -41q-78 0 -125 41zM145 1103h282v-177h18q38 93 130 147
t213 54q184 0 285 -108q100 -108 100 -306v-713h-291v644q0 232 -210 232q-108 0 -172 -66q-64 -65 -64 -174v-636h-291v1103z" />
    <glyph glyph-name="uni01CD" unicode="&#x1cd;" horiz-adv-x="1500" 
d="M992 344h-507l-111 -344h-303l501 1443h355l501 -1443h-327zM550 577h378l-179 566h-18zM622 1590l-281 318h253l145 -173h20l145 173h253l-281 -318h-254z" />
    <glyph glyph-name="uni01CE" unicode="&#x1ce;" horiz-adv-x="1208" 
d="M712 259q68 57 68 141v81l-223 -14q-186 -13 -186 -133q0 -61 48 -97q47 -35 124 -35q101 0 169 57zM187 73q-101 92 -101 242q0 149 111 235q110 85 316 97l267 16v90q0 144 -186 144q-162 0 -199 -102h-268q14 153 145 243q130 89 338 89q218 0 338 -98
q119 -98 119 -276v-753h-282v144h-18q-91 -161 -320 -161q-160 0 -260 90zM464 1251l-275 354h263l149 -209h18l148 209h263l-275 -354h-291z" />
    <glyph glyph-name="uni01CF" unicode="&#x1cf;" horiz-adv-x="652" 
d="M175 0v1443h302v-1443h-302zM199 1590l-281 318h253l145 -173h20l145 173h253l-281 -318h-254z" />
    <glyph glyph-name="uni01D0" unicode="&#x1d0;" horiz-adv-x="593" 
d="M151 1251l-275 354h263l149 -209h18l148 209h263l-275 -354h-291zM151 1103h291v-1103h-291v1103z" />
    <glyph glyph-name="uni01D1" unicode="&#x1d1;" horiz-adv-x="1610" 
d="M678 1590l-281 318h253l145 -173h20l145 173h253l-281 -318h-254zM1311 1276q187 -204 187 -554q0 -351 -186 -555q-187 -204 -507 -204q-321 0 -508 204t-187 555q0 350 189 555q187 203 506 203q320 0 506 -204zM524 1082q-105 -134 -105 -360t104 -360
q105 -134 282 -134q176 0 281 134q104 134 104 360t-104 360q-105 133 -281 133t-281 -133z" />
    <glyph glyph-name="uni01D2" unicode="&#x1d2;" horiz-adv-x="1269" 
d="M488 1251l-275 354h263l149 -209h18l148 209h263l-275 -354h-291zM814 303q64 88 64 249q0 159 -64 248q-65 89 -180 89q-116 0 -180 -89t-64 -248q0 -161 64 -250q63 -88 180 -88q116 0 180 89zM235 129q-144 153 -144 423q0 268 146 421q145 154 397 154t398 -153
q145 -154 145 -422q0 -270 -144 -423q-145 -153 -399 -153t-399 153z" />
    <glyph glyph-name="uni01D3" unicode="&#x1d3;" horiz-adv-x="1565" 
d="M654 1590l-281 318h253l145 -173h20l145 173h253l-281 -318h-254zM479 529q0 -138 79 -217q80 -81 223 -81q144 0 224 81q79 79 79 217v914h302v-945q0 -241 -164 -387q-165 -148 -441 -148q-275 0 -440 148q-164 146 -164 387v945h302v-914z" />
    <glyph glyph-name="uni01D4" unicode="&#x1d4;" horiz-adv-x="1318" 
d="M509 1251l-275 354h263l149 -209h18l148 209h263l-275 -354h-291zM1168 0h-282v177h-18q-39 -96 -127 -148q-88 -53 -208 -53q-183 0 -290 109q-108 110 -108 304v714h291v-644q0 -230 215 -230q108 0 172 64t64 174v636h291v-1103z" />
    <glyph glyph-name="uni01D5" unicode="&#x1d5;" horiz-adv-x="1565" 
d="M479 529q0 -138 79 -217q80 -81 223 -81q144 0 224 81q79 79 79 217v914h302v-945q0 -241 -164 -387q-165 -148 -441 -148q-275 0 -440 148q-164 146 -164 387v945h302v-914zM408 2164h746v-168h-746v168zM437 1621q-44 43 -44 108t44 108q43 42 110 42q66 0 110 -42
q43 -43 43 -108t-43 -108q-44 -42 -110 -42q-67 0 -110 42zM906 1621q-44 43 -44 108t44 108q43 42 109 42q67 0 110 -42q44 -43 44 -108t-44 -108q-43 -42 -110 -42q-66 0 -109 42z" />
    <glyph glyph-name="uni01D6" unicode="&#x1d6;" horiz-adv-x="1318" 
d="M1168 0h-282v177h-18q-39 -96 -127 -148q-88 -53 -208 -53q-183 0 -290 109q-108 110 -108 304v714h291v-644q0 -230 215 -230q108 0 172 64t64 174v636h291v-1103zM328 1293q-41 42 -41 103q0 62 41 103q42 42 106 42q63 0 104 -42q41 -41 41 -103q0 -61 -41 -103
t-104 -42q-64 0 -106 42zM772 1293q-41 42 -41 103q0 62 41 103q41 42 104 42q64 0 106 -42q41 -41 41 -103q0 -61 -41 -103q-42 -42 -106 -42q-63 0 -104 42zM288 1678v180h735v-180h-735z" />
    <glyph glyph-name="uni01D7" unicode="&#x1d7;" horiz-adv-x="1565" 
d="M827 2179h292l-218 -242h-240zM436 1622q-44 43 -44 109t44 109q43 42 111 42t111 -42q44 -43 44 -109t-44 -109t-111 -43t-111 43zM904 1622q-44 43 -44 109t44 109q44 42 111 42q68 0 112 -42q44 -43 44 -109t-44 -109t-112 -43q-67 0 -111 43zM479 529q0 -138 79 -217
q80 -81 223 -81q144 0 224 81q79 79 79 217v914h302v-945q0 -241 -164 -387q-165 -148 -441 -148q-275 0 -440 148q-164 146 -164 387v945h302v-914z" />
    <glyph glyph-name="uni01D8" unicode="&#x1d8;" horiz-adv-x="1318" 
d="M734 1959h281l-247 -319h-241zM310 1301q-44 43 -44 109t44 109q43 42 111 42t111 -42q44 -43 44 -109t-44 -109t-111 -43t-111 43zM778 1301q-44 43 -44 109t44 109q44 42 111 42q68 0 112 -42q44 -43 44 -109t-44 -109t-112 -43q-67 0 -111 43zM1168 0h-282v177h-18
q-39 -96 -127 -148q-88 -53 -208 -53q-183 0 -290 109q-108 110 -108 304v714h291v-644q0 -230 215 -230q108 0 172 64t64 174v636h291v-1103z" />
    <glyph glyph-name="uni01D9" unicode="&#x1d9;" horiz-adv-x="1565" 
d="M438 1605q-43 41 -43 104q0 62 43 103t109 41t109 -41q42 -41 42 -103q0 -63 -42 -104q-43 -41 -109 -41t-109 41zM907 1605q-43 41 -43 104q0 62 43 103q42 41 108 41t109 -41t43 -103q0 -63 -43 -104t-109 -41t-108 41zM646 1910l-278 300h263l140 -166h20l140 166h263
l-278 -300h-270zM479 529q0 -138 79 -217q80 -81 223 -81q144 0 224 81q79 79 79 217v914h302v-945q0 -241 -164 -387q-165 -148 -441 -148q-275 0 -440 148q-164 146 -164 387v945h302v-914z" />
    <glyph glyph-name="uni01DA" unicode="&#x1da;" horiz-adv-x="1318" 
d="M328 1293q-41 42 -41 103q0 62 41 103q42 42 106 42q63 0 104 -42q41 -41 41 -103q0 -61 -41 -103t-104 -42q-64 0 -106 42zM772 1293q-41 42 -41 103q0 62 41 103q41 42 104 42q64 0 106 -42q41 -41 41 -103q0 -61 -41 -103q-42 -42 -106 -42q-63 0 -104 42zM518 1622
l-272 347h252l148 -208h18l148 208h252l-272 -347h-274zM1168 0h-282v177h-18q-39 -96 -127 -148q-88 -53 -208 -53q-183 0 -290 109q-108 110 -108 304v714h291v-644q0 -230 215 -230q108 0 172 64t64 174v636h291v-1103z" />
    <glyph glyph-name="uni01DB" unicode="&#x1db;" horiz-adv-x="1565" 
d="M670 1937l-218 242h292l166 -242h-240zM436 1622q-44 43 -44 109t44 109q43 42 111 42t111 -42q44 -43 44 -109t-44 -109t-111 -43t-111 43zM904 1622q-44 43 -44 109t44 109q44 42 111 42q68 0 112 -42q44 -43 44 -109t-44 -109t-112 -43q-67 0 -111 43zM479 529
q0 -138 79 -217q80 -81 223 -81q144 0 224 81q79 79 79 217v914h302v-945q0 -241 -164 -387q-165 -148 -441 -148q-275 0 -440 148q-164 146 -164 387v945h302v-914z" />
    <glyph glyph-name="uni01DC" unicode="&#x1dc;" horiz-adv-x="1318" 
d="M542 1640l-247 319h281l207 -319h-241zM310 1301q-44 43 -44 109t44 109q43 42 111 42t111 -42q44 -43 44 -109t-44 -109t-111 -43t-111 43zM778 1301q-44 43 -44 109t44 109q44 42 111 42q68 0 112 -42q44 -43 44 -109t-44 -109t-112 -43q-67 0 -111 43zM1168 0h-282
v177h-18q-39 -96 -127 -148q-88 -53 -208 -53q-183 0 -290 109q-108 110 -108 304v714h291v-644q0 -230 215 -230q108 0 172 64t64 174v636h291v-1103z" />
    <glyph glyph-name="uni01DE" unicode="&#x1de;" horiz-adv-x="1500" 
d="M992 344h-507l-111 -344h-303l501 1443h355l501 -1443h-327zM550 577h378l-179 566h-18zM376 2164h746v-168h-746v168zM405 1621q-44 43 -44 108t44 108q43 42 110 42q66 0 110 -42q43 -43 43 -108t-43 -108q-44 -42 -110 -42q-67 0 -110 42zM874 1621q-44 43 -44 108
t44 108q43 42 109 42q67 0 110 -42q44 -43 44 -108t-44 -108q-43 -42 -110 -42q-66 0 -109 42z" />
    <glyph glyph-name="uni01DF" unicode="&#x1df;" horiz-adv-x="1208" 
d="M712 259q68 57 68 141v81l-223 -14q-186 -13 -186 -133q0 -61 48 -97q47 -35 124 -35q101 0 169 57zM187 73q-101 92 -101 242q0 149 111 235q110 85 316 97l267 16v90q0 144 -186 144q-162 0 -199 -102h-268q14 153 145 243q130 89 338 89q218 0 338 -98
q119 -98 119 -276v-753h-282v144h-18q-91 -161 -320 -161q-160 0 -260 90zM283 1293q-41 42 -41 103q0 62 41 103q42 42 106 42q63 0 104 -42q41 -41 41 -103q0 -61 -41 -103t-104 -42q-64 0 -106 42zM727 1293q-41 42 -41 103q0 62 41 103q41 42 104 42q64 0 106 -42
q41 -41 41 -103q0 -61 -41 -103q-42 -42 -106 -42q-63 0 -104 42zM243 1678v180h735v-180h-735z" />
    <glyph glyph-name="uni01E0" unicode="&#x1e0;" horiz-adv-x="1500" 
d="M992 344h-507l-111 -344h-303l501 1443h355l501 -1443h-327zM550 577h378l-179 566h-18zM637 1618q-44 42 -44 107q0 64 44 106t112 42t112 -42t44 -106q0 -65 -44 -107q-44 -43 -112 -43t-112 43zM376 1996v168h746v-168h-746z" />
    <glyph glyph-name="uni01E1" unicode="&#x1e1;" horiz-adv-x="1208" 
d="M712 259q68 57 68 141v81l-223 -14q-186 -13 -186 -133q0 -61 48 -97q47 -35 124 -35q101 0 169 57zM187 73q-101 92 -101 242q0 149 111 235q110 85 316 97l267 16v90q0 144 -186 144q-162 0 -199 -102h-268q14 153 145 243q130 89 338 89q218 0 338 -98
q119 -98 119 -276v-753h-282v144h-18q-91 -161 -320 -161q-160 0 -260 90zM501 1294q-42 42 -42 106q0 65 42 108q43 43 109 43t109 -43q42 -43 42 -108q0 -64 -42 -106q-43 -43 -109 -43t-109 43zM243 1678v180h735v-180h-735z" />
    <glyph glyph-name="uni01E2" unicode="&#x1e2;" horiz-adv-x="2059" 
d="M860 1202l-249 -604h378v604h-129zM989 364h-465l-154 -364h-299l595 1443h1250v-258h-651v-341h614v-239h-614v-347h651v-258h-927v364zM1149 1632v181h746v-181h-746z" />
    <glyph glyph-name="uni01E3" unicode="&#x1e3;" horiz-adv-x="1902" 
d="M1079 30q-105 53 -156 144h-18q-136 -198 -407 -198q-187 0 -300 95q-112 93 -112 244q0 149 111 235q110 85 316 97l267 16v90q0 144 -186 144q-162 0 -199 -102h-268q13 146 139 239t313 93q251 0 357 -158h18q127 158 356 158q228 0 360 -148t132 -401v-94h-747v-26
q4 -117 74 -187q70 -71 182 -71q155 0 212 114h269q-33 -156 -161 -247t-317 -91q-130 0 -235 54zM1126 839q-65 -64 -71 -170h462q-4 105 -67 170q-62 65 -158 65q-102 0 -166 -65zM714 260q66 59 66 144v77l-223 -14q-186 -13 -186 -135q0 -62 49 -98q48 -35 128 -35
q98 0 166 61zM615 1316v180h735v-180h-735z" />
    <glyph glyph-name="Gcaron" unicode="&#x1e6;" horiz-adv-x="1557" 
d="M668 1591l-281 318h253l145 -173h20l145 173h253l-281 -318h-254zM1442 589q0 -289 -172 -458q-172 -168 -468 -168q-322 0 -507 203t-185 557q0 349 185 553t500 204q256 0 429 -136t205 -361h-300q-34 110 -121 170q-87 61 -213 61q-175 0 -275 -130
q-101 -131 -101 -358q0 -231 105 -364q104 -133 283 -133q148 0 243 80q93 80 98 211l1 26h-313v227h606v-184z" />
    <glyph glyph-name="gcaron" unicode="&#x1e7;" horiz-adv-x="1322" 
d="M497 1251l-275 354h263l149 -209h18l148 209h263l-275 -354h-291zM820 792q-68 85 -185 85t-183 -85q-65 -84 -65 -230q0 -147 65 -231q65 -85 183 -85t185 85q67 84 67 230t-67 231zM275 -329q-135 88 -149 234h288q11 -51 70 -81t153 -30q117 0 182 52q65 51 65 144
v204h-18q-94 -178 -332 -178q-206 0 -326 148q-120 147 -120 397q0 257 121 408q122 152 331 152q112 0 201 -52q90 -52 134 -143h18v177h282v-1099q0 -194 -147 -308t-397 -114q-218 0 -356 89z" />
    <glyph glyph-name="uni01E8" unicode="&#x1e8;" horiz-adv-x="1453" 
d="M174 0v1443h302v-643h18l533 643h336l-526 -633l563 -810h-362l-419 604l-143 -169v-435h-302zM574 1590l-281 318h253l145 -173h20l145 173h253l-281 -318h-254z" />
    <glyph glyph-name="uni01E9" unicode="&#x1e9;" horiz-adv-x="1232" 
d="M834 1103h331l-420 -473l449 -630h-345l-322 448l-80 -82v-366h-291v1524h291v-852h18zM175 1671l-281 318h253l145 -173h20l145 173h253l-281 -318h-254z" />
    <glyph glyph-name="uni01EA" unicode="&#x1ea;" horiz-adv-x="1610" 
d="M832 -409q-68 59 -68 155q0 129 108 211v18q-33 -9 -71 -9q-320 0 -506 202q-185 203 -185 553t187 554q188 205 508 205t507 -204q186 -204 186 -555q0 -390 -264 -616q-34 -29 -98 -77q-60 -45 -84 -67q-83 -73 -83 -149q0 -47 32 -75t85 -28q37 0 76 9v-162
q-55 -25 -152 -25q-110 0 -178 60zM524 1081q-105 -134 -105 -360q0 -225 105 -359q104 -134 281 -134q176 0 281 134q104 134 104 360q0 225 -104 359q-105 134 -281 134t-281 -134z" />
    <glyph glyph-name="uni01EB" unicode="&#x1eb;" horiz-adv-x="1269" 
d="M615 -410q-68 60 -68 155q0 121 110 216v18q-13 -2 -37 -2q-249 2 -389 154t-140 422q0 266 146 420q145 154 397 154t398 -153q145 -154 145 -421q0 -313 -210 -484q-129 -106 -172 -159q-44 -54 -44 -107q0 -43 33 -68q32 -26 85 -26q38 0 75 9v-162q-65 -25 -150 -25
q-111 0 -179 59zM814 302q64 89 64 250q0 159 -64 248q-65 89 -180 89t-180 -89q-64 -89 -64 -248q0 -161 64 -250q64 -88 180 -88t180 88z" />
    <glyph glyph-name="uni01EC" unicode="&#x1ec;" horiz-adv-x="1610" 
d="M832 -409q-68 59 -68 155q0 129 108 211v18q-33 -9 -71 -9q-320 0 -506 202q-185 203 -185 553t187 554q188 205 508 205t507 -204q186 -204 186 -555q0 -390 -264 -616q-34 -29 -98 -77q-60 -45 -84 -67q-83 -73 -83 -149q0 -47 32 -75t85 -28q37 0 76 9v-162
q-55 -25 -152 -25q-110 0 -178 60zM524 1081q-105 -134 -105 -360q0 -225 105 -359q104 -134 281 -134q176 0 281 134q104 134 104 360q0 225 -104 359q-105 134 -281 134t-281 -134zM432 1632v181h746v-181h-746z" />
    <glyph glyph-name="uni01ED" unicode="&#x1ed;" horiz-adv-x="1269" 
d="M615 -410q-68 60 -68 155q0 121 110 216v18q-13 -2 -37 -2q-249 2 -389 154t-140 422q0 266 146 420q145 154 397 154t398 -153q145 -154 145 -421q0 -313 -210 -484q-129 -106 -172 -159q-44 -54 -44 -107q0 -43 33 -68q32 -26 85 -26q38 0 75 9v-162q-65 -25 -150 -25
q-111 0 -179 59zM814 302q64 89 64 250q0 159 -64 248q-65 89 -180 89t-180 -89q-64 -89 -64 -248q0 -161 64 -250q64 -88 180 -88t180 88zM267 1316v180h735v-180h-735z" />
    <glyph glyph-name="uni01F1" unicode="&#x1f1;" horiz-adv-x="2924" 
d="M1674 204l726 963v18h-709v258h1077v-203l-724 -964v-18h744v-258h-1114v204zM742 1444q322 0 499 -186q178 -187 178 -526q0 -351 -176 -542q-177 -190 -501 -190h-568v1444h568zM476 258h218q201 0 309 120q108 121 108 349q0 218 -110 339q-110 120 -307 120h-218
v-928z" />
    <glyph glyph-name="uni01F2" unicode="&#x1f2;" horiz-adv-x="2700" 
d="M1660 172l558 681v18h-550v232h898v-192l-526 -661v-18h539v-232h-919v172zM742 1444q322 0 499 -186q178 -187 178 -526q0 -351 -176 -542q-177 -190 -501 -190h-568v1444h568zM476 258h218q201 0 309 120q108 121 108 349q0 218 -110 339q-110 120 -307 120h-218v-928z
" />
    <glyph glyph-name="uni01F3" unicode="&#x1f3;" horiz-adv-x="2503" 
d="M1463 172l558 681v18h-550v232h898v-192l-526 -661v-18h539v-232h-919v172zM211 136q-120 153 -120 417q0 263 121 416q120 152 328 152q112 0 199 -51q87 -52 130 -143h17v597h291v-1524h-282v173h-18q-44 -89 -133 -140q-89 -50 -204 -50q-208 0 -329 153zM456 790
q-66 -86 -66 -238q0 -153 66 -239q66 -87 183 -87t184 87q66 86 66 238q0 151 -67 238q-67 88 -183 88t-183 -87z" />
    <glyph glyph-name="uni01F4" unicode="&#x1f4;" horiz-adv-x="1557" 
d="M931 1909h315l-314 -318h-278zM1442 589q0 -289 -172 -458q-172 -168 -468 -168q-322 0 -507 203t-185 557q0 349 185 553t500 204q256 0 429 -136t205 -361h-300q-34 110 -121 170q-87 61 -213 61q-175 0 -275 -130q-101 -131 -101 -358q0 -231 105 -364
q104 -133 283 -133q148 0 243 80q93 80 98 211l1 26h-313v227h606v-184z" />
    <glyph glyph-name="uni01F5" unicode="&#x1f5;" horiz-adv-x="1322" 
d="M735 1634h309l-287 -353h-269zM820 792q-68 85 -185 85t-183 -85q-65 -84 -65 -230q0 -147 65 -231q65 -85 183 -85t185 85q67 84 67 230t-67 231zM275 -329q-135 88 -149 234h288q11 -51 70 -81t153 -30q117 0 182 52q65 51 65 144v204h-18q-94 -178 -332 -178
q-206 0 -326 148q-120 147 -120 397q0 257 121 408q122 152 331 152q112 0 201 -52q90 -52 134 -143h18v177h282v-1099q0 -194 -147 -308t-397 -114q-218 0 -356 89z" />
    <glyph glyph-name="uni01F8" unicode="&#x1f8;" horiz-adv-x="1573" 
d="M932 1590h-277l-314 318h315zM174 0v1443h252l664 -899h18v899h289v-1443h-250l-666 903h-18v-903h-289z" />
    <glyph glyph-name="uni01F9" unicode="&#x1f9;" horiz-adv-x="1310" 
d="M556 1281l-287 353h309l247 -353h-269zM145 1103h282v-177h18q38 93 130 147t213 54q184 0 285 -108q100 -108 100 -306v-713h-291v644q0 232 -210 232q-108 0 -172 -66q-64 -65 -64 -174v-636h-291v1103z" />
    <glyph glyph-name="Aringacute" unicode="&#x1fa;" horiz-adv-x="1500" 
d="M992 344h-507l-111 -344h-303l501 1443h355l501 -1443h-327zM550 577h378l-179 566h-18zM687 1735q4 -25 26 -41q21 -17 46 -14q24 2 40 21q16 20 12 44q-4 25 -26 41q-21 17 -46 15t-40 -22q-16 -20 -12 -44zM595 1591q-62 60 -62 151q0 90 62 149t155 59q92 0 153 -59
q62 -59 62 -149q0 -91 -62 -151q-61 -60 -153 -60q-93 0 -155 60zM1004 2214l-135 -191h-237l108 191h264z" />
    <glyph glyph-name="aringacute" unicode="&#x1fb;" horiz-adv-x="1208" 
d="M712 259q68 57 68 141v81l-223 -14q-186 -13 -186 -133q0 -61 48 -97q47 -35 124 -35q101 0 169 57zM187 73q-101 92 -101 242q0 149 111 235q110 85 316 97l267 16v90q0 144 -186 144q-162 0 -199 -102h-268q14 153 145 243q130 89 338 89q218 0 338 -98
q119 -98 119 -276v-753h-282v144h-18q-91 -161 -320 -161q-160 0 -260 90zM448 1279q-65 64 -65 159t65 159q65 63 162 63t162 -63q65 -64 65 -159t-65 -159t-162 -64t-162 64zM545 1372q26 -26 65 -26t66 26q26 26 26 65t-26 65q-27 26 -66 26t-65 -26q-27 -26 -27 -65
t27 -65zM664 1975h251l-198 -236h-213z" />
    <glyph glyph-name="AEacute" unicode="&#x1fc;" horiz-adv-x="2059" 
d="M1658 1908h315l-314 -318h-278zM860 1202l-249 -604h378v604h-129zM989 364h-465l-154 -364h-299l595 1443h1250v-258h-651v-341h614v-239h-614v-347h651v-258h-927v364z" />
    <glyph glyph-name="aeacute" unicode="&#x1fd;" horiz-adv-x="1902" 
d="M1074 1634h309l-287 -353h-269zM1079 30q-105 53 -156 144h-18q-136 -198 -407 -198q-187 0 -300 95q-112 93 -112 244q0 149 111 235q110 85 316 97l267 16v90q0 144 -186 144q-162 0 -199 -102h-268q13 146 139 239t313 93q251 0 357 -158h18q127 158 356 158
q228 0 360 -148t132 -401v-94h-747v-26q4 -117 74 -187q70 -71 182 -71q155 0 212 114h269q-33 -156 -161 -247t-317 -91q-130 0 -235 54zM1126 839q-65 -64 -71 -170h462q-4 105 -67 170q-62 65 -158 65q-102 0 -166 -65zM714 260q66 59 66 144v77l-223 -14
q-186 -13 -186 -135q0 -62 49 -98q48 -35 128 -35q98 0 166 61z" />
    <glyph glyph-name="Oslashacute" unicode="&#x1fe;" horiz-adv-x="1592" 
d="M955 1590h-278l277 318h315zM586 299q93 -71 219 -71q176 0 281 134q104 134 104 360q0 216 -94 345zM1008 1155q-88 60 -203 60q-176 0 -281 -133q-105 -134 -105 -360q0 -201 83 -330zM1265 1321q233 -203 233 -599q0 -351 -186 -555q-187 -204 -507 -204
q-217 0 -377 97l-85 -128l-102 66l90 135q-221 205 -221 589q0 350 189 555q187 203 506 203q207 0 360 -88l76 115l108 -59z" />
    <glyph glyph-name="oslashacute" unicode="&#x1ff;" horiz-adv-x="1269" 
d="M736 1281h-269l247 353h309zM520 242q49 -28 114 -28q116 0 180 89q64 88 64 249q0 121 -38 203zM759 853q-52 36 -125 36q-116 0 -180 -89t-64 -248q0 -136 45 -219zM997 1007q180 -155 180 -455q0 -270 -144 -423q-145 -153 -399 -153q-139 0 -249 48l-61 -97l-103 63
l60 96q-190 153 -190 466q0 268 146 421q145 154 397 154q147 0 262 -55l62 100l106 -58z" />
    <glyph glyph-name="uni0200" unicode="&#x200;" horiz-adv-x="1500" 
d="M992 344h-507l-111 -344h-303l501 1443h355l501 -1443h-327zM550 577h378l-179 566h-18zM416 1590l-278 318h270l252 -318h-244zM853 1590l-278 318h271l251 -318h-244z" />
    <glyph glyph-name="uni0201" unicode="&#x201;" horiz-adv-x="1208" 
d="M712 259q68 57 68 141v81l-223 -14q-186 -13 -186 -133q0 -61 48 -97q47 -35 124 -35q101 0 169 57zM187 73q-101 92 -101 242q0 149 111 235q110 85 316 97l267 16v90q0 144 -186 144q-162 0 -199 -102h-268q14 153 145 243q130 89 338 89q218 0 338 -98
q119 -98 119 -276v-753h-282v144h-18q-91 -161 -320 -161q-160 0 -260 90zM295 1281l-241 353h258l213 -353h-230zM731 1281l-241 353h258l213 -353h-230z" />
    <glyph glyph-name="uni0202" unicode="&#x202;" horiz-adv-x="1500" 
d="M992 344h-507l-111 -344h-303l501 1443h355l501 -1443h-327zM550 577h378l-179 566h-18zM349 1579q0 151 107 243q110 93 293 93t293 -93q107 -92 107 -243h-208q-2 76 -53 120q-52 45 -139 45t-139 -45q-51 -44 -53 -120h-208z" />
    <glyph glyph-name="uni0203" unicode="&#x203;" horiz-adv-x="1208" 
d="M712 259q68 57 68 141v81l-223 -14q-186 -13 -186 -133q0 -61 48 -97q47 -35 124 -35q101 0 169 57zM187 73q-101 92 -101 242q0 149 111 235q110 85 316 97l267 16v90q0 144 -186 144q-162 0 -199 -102h-268q14 153 145 243q130 89 338 89q218 0 338 -98
q119 -98 119 -276v-753h-282v144h-18q-91 -161 -320 -161q-160 0 -260 90zM210 1251q0 156 107 252q110 99 293 99t293 -99q107 -96 107 -252h-208q-2 81 -52 129q-52 49 -140 49t-140 -49q-50 -48 -52 -129h-208z" />
    <glyph glyph-name="uni0204" unicode="&#x204;" horiz-adv-x="1274" 
d="M319 1590l-278 318h270l252 -318h-244zM756 1590l-278 318h271l251 -318h-244zM1130 0h-956v1443h956v-258h-654v-337h617v-239h-617v-351h654v-258z" />
    <glyph glyph-name="uni0205" unicode="&#x205;" horiz-adv-x="1231" 
d="M455 839q-65 -65 -73 -172h470q-5 110 -66 173q-62 64 -164 64q-101 0 -167 -65zM1129 314q-33 -157 -167 -247q-135 -91 -337 -91q-252 0 -393 151q-141 150 -141 419t142 425t388 156q244 0 380 -147q137 -147 137 -410v-89h-757v-15q3 -123 71 -194q67 -72 181 -72
q177 0 225 114h271zM306 1281l-241 353h258l213 -353h-230zM742 1281l-241 353h258l213 -353h-230z" />
    <glyph glyph-name="uni0206" unicode="&#x206;" horiz-adv-x="1274" 
d="M1130 0h-956v1443h956v-258h-654v-337h617v-239h-617v-351h654v-258zM252 1579q0 151 107 243q110 93 293 93t293 -93q107 -92 107 -243h-208q-2 76 -53 120q-52 45 -139 45t-139 -45q-51 -44 -53 -120h-208z" />
    <glyph glyph-name="uni0207" unicode="&#x207;" horiz-adv-x="1231" 
d="M455 839q-65 -65 -73 -172h470q-5 110 -66 173q-62 64 -164 64q-101 0 -167 -65zM1129 314q-33 -157 -167 -247q-135 -91 -337 -91q-252 0 -393 151q-141 150 -141 419t142 425t388 156q244 0 380 -147q137 -147 137 -410v-89h-757v-15q3 -123 71 -194q67 -72 181 -72
q177 0 225 114h271zM221 1251q0 156 107 252q110 99 293 99t293 -99q107 -96 107 -252h-208q-2 81 -52 129q-52 49 -140 49t-140 -49q-50 -48 -52 -129h-208z" />
    <glyph glyph-name="uni0208" unicode="&#x208;" horiz-adv-x="652" 
d="M175 0v1443h302v-1443h-302zM-7 1590l-278 318h270l252 -318h-244zM430 1590l-278 318h271l251 -318h-244z" />
    <glyph glyph-name="uni0209" unicode="&#x209;" horiz-adv-x="593" 
d="M151 1103h291v-1103h-291v1103zM-18 1281l-241 353h258l213 -353h-230zM418 1281l-241 353h258l213 -353h-230z" />
    <glyph glyph-name="uni020A" unicode="&#x20a;" horiz-adv-x="652" 
d="M175 0v1443h302v-1443h-302zM-74 1579q0 151 107 243q110 93 293 93t293 -93q107 -92 107 -243h-208q-2 76 -53 120q-52 45 -139 45t-139 -45q-51 -44 -53 -120h-208z" />
    <glyph glyph-name="uni020B" unicode="&#x20b;" horiz-adv-x="593" 
d="M151 1103h291v-1103h-291v1103zM-103 1251q0 156 107 252q110 99 293 99t293 -99q107 -96 107 -252h-208q-2 81 -52 129q-52 49 -140 49t-140 -49q-50 -48 -52 -129h-208z" />
    <glyph glyph-name="uni020C" unicode="&#x20c;" horiz-adv-x="1610" 
d="M472 1590l-278 318h270l252 -318h-244zM909 1590l-278 318h271l251 -318h-244zM1311 1276q187 -204 187 -554q0 -351 -186 -555q-187 -204 -507 -204q-321 0 -508 204t-187 555q0 350 189 555q187 203 506 203q320 0 506 -204zM524 1082q-105 -134 -105 -360t104 -360
q105 -134 282 -134q176 0 281 134q104 134 104 360t-104 360q-105 133 -281 133t-281 -133z" />
    <glyph glyph-name="uni020D" unicode="&#x20d;" horiz-adv-x="1269" 
d="M814 303q64 88 64 249q0 159 -64 248q-65 89 -180 89q-116 0 -180 -89t-64 -248q0 -161 64 -250q63 -88 180 -88q116 0 180 89zM235 129q-144 153 -144 423q0 268 146 421q145 154 397 154t398 -153q145 -154 145 -422q0 -270 -144 -423q-145 -153 -399 -153t-399 153z
M319 1281l-241 353h258l213 -353h-230zM755 1281l-241 353h258l213 -353h-230z" />
    <glyph glyph-name="uni020E" unicode="&#x20e;" horiz-adv-x="1610" 
d="M405 1579q0 151 107 243q110 93 293 93t293 -93q107 -92 107 -243h-208q-2 76 -53 120q-52 45 -139 45t-139 -45q-51 -44 -53 -120h-208zM1311 1276q187 -204 187 -554q0 -351 -186 -555q-187 -204 -507 -204q-321 0 -508 204t-187 555q0 350 189 555q187 203 506 203
q320 0 506 -204zM524 1082q-105 -134 -105 -360t104 -360q105 -134 282 -134q176 0 281 134q104 134 104 360t-104 360q-105 133 -281 133t-281 -133z" />
    <glyph glyph-name="uni020F" unicode="&#x20f;" horiz-adv-x="1269" 
d="M814 303q64 88 64 249q0 159 -64 248q-65 89 -180 89q-116 0 -180 -89t-64 -248q0 -161 64 -250q63 -88 180 -88q116 0 180 89zM235 129q-144 153 -144 423q0 268 146 421q145 154 397 154t398 -153q145 -154 145 -422q0 -270 -144 -423q-145 -153 -399 -153t-399 153z
M234 1251q0 156 107 252q110 99 293 99t293 -99q107 -96 107 -252h-208q-2 81 -52 129q-52 49 -140 49t-140 -49q-50 -48 -52 -129h-208z" />
    <glyph glyph-name="uni0210" unicode="&#x210;" horiz-adv-x="1422" 
d="M318 1590l-278 318h270l252 -318h-244zM755 1590l-278 318h271l251 -318h-244zM476 755h265q114 0 178 58q63 59 63 163q0 103 -66 163t-178 60h-262v-444zM476 0h-302v1443h606q238 0 375 -124t137 -339q0 -140 -69 -249q-70 -112 -193 -161l304 -570h-342l-269 523
h-247v-523z" />
    <glyph glyph-name="uni0211" unicode="&#x211;" horiz-adv-x="881" 
d="M146 1103h282v-176h18q22 84 99 138q79 56 181 56q73 0 112 -14v-265q-46 18 -136 18q-119 0 -191 -66q-74 -68 -74 -183v-611h-291v1103zM133 1281l-241 353h258l213 -353h-230zM569 1281l-241 353h258l213 -353h-230z" />
    <glyph glyph-name="uni0212" unicode="&#x212;" horiz-adv-x="1422" 
d="M476 755h265q114 0 178 58q63 59 63 163q0 103 -66 163t-178 60h-262v-444zM476 0h-302v1443h606q238 0 375 -124t137 -339q0 -140 -69 -249q-70 -112 -193 -161l304 -570h-342l-269 523h-247v-523zM251 1579q0 151 107 243q110 93 293 93t293 -93q107 -92 107 -243h-208
q-2 76 -53 120q-52 45 -139 45t-139 -45q-51 -44 -53 -120h-208z" />
    <glyph glyph-name="uni0213" unicode="&#x213;" horiz-adv-x="881" 
d="M145 1103h282v-176h18q22 84 99 138q79 56 181 56q73 0 112 -14v-265q-46 18 -136 18q-119 0 -191 -66q-74 -68 -74 -183v-611h-291v1103zM47 1251q0 156 107 252q110 99 293 99t293 -99q107 -96 107 -252h-208q-2 81 -52 129q-52 49 -140 49t-140 -49q-50 -48 -52 -129
h-208z" />
    <glyph glyph-name="uni0214" unicode="&#x214;" horiz-adv-x="1565" 
d="M448 1590l-278 318h270l252 -318h-244zM885 1590l-278 318h271l251 -318h-244zM479 529q0 -138 79 -217q80 -81 223 -81q144 0 224 81q79 79 79 217v914h302v-945q0 -241 -164 -387q-165 -148 -441 -148q-275 0 -440 148q-164 146 -164 387v945h302v-914z" />
    <glyph glyph-name="uni0215" unicode="&#x215;" horiz-adv-x="1318" 
d="M1168 0h-282v177h-18q-39 -96 -127 -148q-88 -53 -208 -53q-183 0 -290 109q-108 110 -108 304v714h291v-644q0 -230 215 -230q108 0 172 64t64 174v636h291v-1103zM340 1281l-241 353h258l213 -353h-230zM776 1281l-241 353h258l213 -353h-230z" />
    <glyph glyph-name="uni0216" unicode="&#x216;" horiz-adv-x="1565" 
d="M479 529q0 -138 79 -217q80 -81 223 -81q144 0 224 81q79 79 79 217v914h302v-945q0 -241 -164 -387q-165 -148 -441 -148q-275 0 -440 148q-164 146 -164 387v945h302v-914zM381 1579q0 151 107 243q110 93 293 93t293 -93q107 -92 107 -243h-208q-2 76 -53 120
q-52 45 -139 45t-139 -45q-51 -44 -53 -120h-208z" />
    <glyph glyph-name="uni0217" unicode="&#x217;" horiz-adv-x="1318" 
d="M1168 0h-282v177h-18q-39 -96 -127 -148q-88 -53 -208 -53q-183 0 -290 109q-108 110 -108 304v714h291v-644q0 -230 215 -230q108 0 172 64t64 174v636h291v-1103zM255 1251q0 156 107 252q110 99 293 99t293 -99q107 -96 107 -252h-208q-2 81 -52 129q-52 49 -140 49
t-140 -49q-50 -48 -52 -129h-208z" />
    <glyph glyph-name="uni0218" unicode="&#x218;" horiz-adv-x="1383" 
d="M401 401q10 -88 93 -140q81 -52 209 -52q118 0 193 52q75 51 75 133q0 69 -58 112t-191 71l-188 40q-392 82 -392 412q0 204 151 328q151 123 401 123q238 0 392 -121q153 -121 160 -314h-284q-11 86 -83 138q-74 52 -183 52q-114 0 -182 -49q-69 -49 -69 -131
q0 -67 56 -108q55 -41 182 -68l174 -37q217 -46 316 -144t99 -266q0 -218 -157 -344q-156 -125 -428 -125q-258 0 -414 118t-164 320h292zM423 -509l132 358h292l-166 -358h-258z" />
    <glyph glyph-name="uni0219" unicode="&#x219;" horiz-adv-x="1160" 
d="M246 1031q127 96 333 96q210 0 330 -85q119 -85 131 -243h-269q-24 115 -190 115q-79 0 -129 -32q-52 -33 -52 -85q0 -76 149 -110l207 -45q161 -35 235 -107q75 -72 75 -195q0 -164 -135 -264q-133 -100 -351 -100t-345 86t-142 245h284q35 -118 209 -118q85 0 138 32
q53 33 53 86q0 78 -139 108l-200 45q-318 70 -318 319q0 157 126 252zM316 -509l132 358h292l-166 -358h-258z" />
    <glyph glyph-name="uni021A" unicode="&#x21a;" horiz-adv-x="1352" 
d="M408 -509l132 358h292l-166 -358h-258zM524 0v1185h-433v258h1168v-258h-433v-1185h-302z" />
    <glyph glyph-name="uni021B" unicode="&#x21b;" horiz-adv-x="845" 
d="M219 -509l132 358h292l-166 -358h-258zM519 1360v-268h234v-229h-234v-496q0 -140 143 -140q48 0 85 4v-222q-67 -13 -145 -13q-201 0 -287 70q-87 70 -87 232v565h-175v229h175v268h291z" />
    <glyph glyph-name="uni021E" unicode="&#x21e;" horiz-adv-x="1604" 
d="M1126 0v603h-650v-603h-302v1443h302v-582h650v582h302v-1443h-302zM674 1590l-281 318h253l145 -173h20l145 173h253l-281 -318h-254z" />
    <glyph glyph-name="uni021F" unicode="&#x21f;" horiz-adv-x="1332" 
d="M156 1524h286v-602h18q38 94 131 148t215 54q185 0 287 -108q103 -108 103 -306v-710h-291v641q0 232 -216 232q-109 0 -176 -66q-66 -66 -66 -174v-633h-291v1524zM172 1671l-281 318h253l145 -173h20l145 173h253l-281 -318h-254z" />
    <glyph glyph-name="uni0226" unicode="&#x226;" horiz-adv-x="1500" 
d="M992 344h-507l-111 -344h-303l501 1443h355l501 -1443h-327zM550 577h378l-179 566h-18zM635 1624q-44 45 -44 113t44 113q45 45 114 45t113 -45t44 -113t-44 -113t-113 -45t-114 45z" />
    <glyph glyph-name="uni0227" unicode="&#x227;" horiz-adv-x="1208" 
d="M712 259q68 57 68 141v81l-223 -14q-186 -13 -186 -133q0 -61 48 -97q47 -35 124 -35q101 0 169 57zM187 73q-101 92 -101 242q0 149 111 235q110 85 316 97l267 16v90q0 144 -186 144q-162 0 -199 -102h-268q14 153 145 243q130 89 338 89q218 0 338 -98
q119 -98 119 -276v-753h-282v144h-18q-91 -161 -320 -161q-160 0 -260 90zM494 1324q-45 45 -45 114t45 115q46 46 116 46t116 -46q45 -46 45 -115t-45 -114q-46 -46 -116 -46t-116 46z" />
    <glyph glyph-name="uni0228" unicode="&#x228;" horiz-adv-x="1274" 
d="M476 1185v-337h617v-239h-617v-351h654v-258h-380l-46 -112q196 -9 196 -177q0 -96 -69 -150q-71 -54 -198 -54q-84 0 -147 17v135q37 -14 116 -14q112 0 112 59q0 56 -130 56h-60v115l52 125h-402v1443h956v-258h-654z" />
    <glyph glyph-name="uni0229" unicode="&#x229;" horiz-adv-x="1231" 
d="M852 667q-5 110 -66 173q-62 64 -164 64q-101 0 -167 -65q-65 -65 -73 -172h470zM381 481v-15q3 -123 71 -194q67 -72 181 -72q177 0 225 114h271q-29 -138 -138 -226q-109 -87 -276 -107l-38 -93q196 -9 196 -177q0 -96 -69 -150q-71 -54 -198 -54q-84 0 -147 17v135
q37 -14 116 -14q112 0 112 59q0 56 -130 56h-60v115l44 106q-214 25 -332 172q-118 148 -118 393q0 269 142 425t388 156q244 0 380 -147q137 -147 137 -410v-89h-757z" />
    <glyph glyph-name="uni022A" unicode="&#x22a;" horiz-adv-x="1610" 
d="M1311 1276q187 -204 187 -554q0 -351 -186 -555q-187 -204 -507 -204q-321 0 -508 204t-187 555q0 350 189 555q187 203 506 203q320 0 506 -204zM524 1082q-105 -134 -105 -360t104 -360q105 -134 282 -134q176 0 281 134q104 134 104 360t-104 360q-105 133 -281 133
t-281 -133zM432 2164h746v-168h-746v168zM461 1621q-44 43 -44 108t44 108q43 42 110 42q66 0 110 -42q43 -43 43 -108t-43 -108q-44 -42 -110 -42q-67 0 -110 42zM930 1621q-44 43 -44 108t44 108q43 42 109 42q67 0 110 -42q44 -43 44 -108t-44 -108q-43 -42 -110 -42
q-66 0 -109 42z" />
    <glyph glyph-name="uni022B" unicode="&#x22b;" horiz-adv-x="1269" 
d="M307 1293q-41 42 -41 103q0 62 41 103q42 42 106 42q63 0 104 -42q41 -41 41 -103q0 -61 -41 -103t-104 -42q-64 0 -106 42zM751 1293q-41 42 -41 103q0 62 41 103q41 42 104 42q64 0 106 -42q41 -41 41 -103q0 -61 -41 -103q-42 -42 -106 -42q-63 0 -104 42zM267 1678
v180h735v-180h-735zM814 303q64 88 64 249q0 159 -64 248q-65 89 -180 89q-116 0 -180 -89t-64 -248q0 -161 64 -250q63 -88 180 -88q116 0 180 89zM235 129q-144 153 -144 423q0 268 146 421q145 154 397 154t398 -153q145 -154 145 -422q0 -270 -144 -423
q-145 -153 -399 -153t-399 153z" />
    <glyph glyph-name="uni022C" unicode="&#x22c;" horiz-adv-x="1610" 
d="M432 1986v178h746v-178h-746zM793 1640q-78 60 -119 60q-82 0 -86 -110h-184q0 132 70 210q68 74 177 74q89 0 167 -60t118 -60q80 0 87 107h183q0 -130 -70 -207q-68 -75 -177 -75q-88 0 -166 61zM1311 1276q187 -204 187 -554q0 -351 -186 -555q-187 -204 -507 -204
q-321 0 -508 204t-187 555q0 350 189 555q187 203 506 203q320 0 506 -204zM524 1082q-105 -134 -105 -360t104 -360q105 -134 282 -134q176 0 281 134q104 134 104 360t-104 360q-105 133 -281 133t-281 -133z" />
    <glyph glyph-name="uni022D" unicode="&#x22d;" horiz-adv-x="1269" 
d="M407 1256h-187q0 145 72 233q71 88 189 88q85 0 166 -72q82 -72 112 -72q87 0 88 138h187q0 -144 -71 -231q-72 -87 -190 -87q-85 0 -166 72q-82 72 -112 72q-86 0 -88 -141zM267 1680v180h735v-180h-735zM814 303q64 88 64 249q0 159 -64 248q-65 89 -180 89
q-116 0 -180 -89t-64 -248q0 -161 64 -250q63 -88 180 -88q116 0 180 89zM235 129q-144 153 -144 423q0 268 146 421q145 154 397 154t398 -153q145 -154 145 -422q0 -270 -144 -423q-145 -153 -399 -153t-399 153z" />
    <glyph glyph-name="uni022E" unicode="&#x22e;" horiz-adv-x="1610" 
d="M691 1624q-44 45 -44 113t44 113q45 45 114 45t113 -45t44 -113t-44 -113t-113 -45t-114 45zM1311 1276q187 -204 187 -554q0 -351 -186 -555q-187 -204 -507 -204q-321 0 -508 204t-187 555q0 350 189 555q187 203 506 203q320 0 506 -204zM524 1082
q-105 -134 -105 -360t104 -360q105 -134 282 -134q176 0 281 134q104 134 104 360t-104 360q-105 133 -281 133t-281 -133z" />
    <glyph glyph-name="uni022F" unicode="&#x22f;" horiz-adv-x="1269" 
d="M518 1324q-45 45 -45 114t45 115q46 46 116 46t116 -46q45 -46 45 -115t-45 -114q-46 -46 -116 -46t-116 46zM814 303q64 88 64 249q0 159 -64 248q-65 89 -180 89q-116 0 -180 -89t-64 -248q0 -161 64 -250q63 -88 180 -88q116 0 180 89zM235 129q-144 153 -144 423
q0 268 146 421q145 154 397 154t398 -153q145 -154 145 -422q0 -270 -144 -423q-145 -153 -399 -153t-399 153z" />
    <glyph glyph-name="uni0230" unicode="&#x230;" horiz-adv-x="1610" 
d="M693 1618q-44 42 -44 107q0 64 44 106t112 42t112 -42t44 -106q0 -65 -44 -107q-44 -43 -112 -43t-112 43zM432 1996v168h746v-168h-746zM1311 1276q187 -204 187 -554q0 -351 -186 -555q-187 -204 -507 -204q-321 0 -508 204t-187 555q0 350 189 555q187 203 506 203
q320 0 506 -204zM524 1082q-105 -134 -105 -360t104 -360q105 -134 282 -134q176 0 281 134q104 134 104 360t-104 360q-105 133 -281 133t-281 -133z" />
    <glyph glyph-name="uni0231" unicode="&#x231;" horiz-adv-x="1269" 
d="M814 303q64 88 64 249q0 159 -64 248q-65 89 -180 89q-116 0 -180 -89t-64 -248q0 -161 64 -250q63 -88 180 -88q116 0 180 89zM235 129q-144 153 -144 423q0 268 146 421q145 154 397 154t398 -153q145 -154 145 -422q0 -270 -144 -423q-145 -153 -399 -153t-399 153z
M525 1294q-42 42 -42 106q0 65 42 108q43 43 109 43t109 -43q42 -43 42 -108q0 -64 -42 -106q-43 -43 -109 -43t-109 43zM267 1678v180h735v-180h-735z" />
    <glyph glyph-name="uni0232" unicode="&#x232;" horiz-adv-x="1452" 
d="M574 0v531l-503 912h327l318 -604h18l317 604h327l-502 -912v-531h-302zM352 1632v181h746v-181h-746z" />
    <glyph glyph-name="uni0233" unicode="&#x233;" horiz-adv-x="1223" 
d="M171 -400v235q15 -3 66 -3q160 0 195 121l10 40l-387 1110h321l232 -836h18l232 836h308l-380 -1120q-70 -213 -184 -299q-113 -87 -320 -87q-93 0 -111 3zM248 1316v180h735v-180h-735z" />
    <glyph glyph-name="uni0237" unicode="&#x237;" horiz-adv-x="587" 
d="M439 -33q0 -341 -390 -341q-42 0 -78 3v224q12 -2 37 -2q76 0 108 30q32 28 32 95v1127h291v-1136z" />
    <glyph glyph-name="circumflex" unicode="&#x2c6;" horiz-adv-x="1099" 
d="M969 1251h-263l-148 209h-18l-149 -209h-263l275 354h291z" />
    <glyph glyph-name="caron" unicode="&#x2c7;" horiz-adv-x="1099" 
d="M403 1251l-275 354h263l149 -209h18l148 209h263l-275 -354h-291z" />
    <glyph glyph-name="breve" unicode="&#x2d8;" horiz-adv-x="1048" 
d="M331 1602q2 -81 52 -129q52 -49 140 -49t140 49q50 48 52 129h208q0 -156 -107 -252q-110 -99 -293 -99t-292 99q-107 96 -107 252h207z" />
    <glyph glyph-name="dotaccent" unicode="&#x2d9;" horiz-adv-x="1048" 
d="M407 1324q-45 45 -45 114t45 115q46 46 116 46t116 -46q45 -46 45 -115t-45 -114q-46 -46 -116 -46t-116 46z" />
    <glyph glyph-name="ring" unicode="&#x2da;" horiz-adv-x="1099" 
d="M374 1319q-71 69 -71 173q0 102 71 170q70 68 175 68t175 -68q70 -67 70 -170q0 -104 -70 -173q-70 -68 -175 -68t-175 68zM624 1417q30 29 30 74q0 44 -30 74q-30 29 -75 29q-46 0 -76 -29q-30 -30 -30 -74q0 -46 30 -75t76 -29t75 30z" />
    <glyph glyph-name="ogonek" unicode="&#x2db;" horiz-adv-x="1048" 
d="M728 -441q-56 -25 -153 -25q-110 0 -178 57q-67 58 -67 153q0 169 188 295l165 -11q-148 -103 -148 -216q0 -46 31 -74q30 -27 82 -27q43 0 80 9v-161z" />
    <glyph glyph-name="tilde" unicode="&#x2dc;" horiz-adv-x="1098" 
d="M328 1270h-187q0 145 72 233q71 88 189 88q85 0 166 -72q82 -72 112 -72q87 0 88 138h187q0 -144 -71 -231q-72 -87 -190 -87q-85 0 -166 72q-82 72 -112 72q-86 0 -88 -141z" />
    <glyph glyph-name="hungarumlaut" unicode="&#x2dd;" horiz-adv-x="1048" 
d="M714 1634h259l-242 -353h-229zM278 1634h259l-242 -353h-229z" />
    <glyph glyph-name="gravecomb" unicode="&#x300;" 
d="M-110 1281l-287 353h309l247 -353h-269z" />
    <glyph glyph-name="acutecomb" unicode="&#x301;" 
d="M92 1634h309l-287 -353h-269z" />
    <glyph glyph-name="uni0302" unicode="&#x302;" 
d="M420 1251h-263l-148 209h-18l-149 -209h-263l275 354h291z" />
    <glyph glyph-name="tildecomb" unicode="&#x303;" 
d="M-215 1256h-187q0 145 72 233q71 88 189 88q85 0 166 -72q82 -72 112 -72q87 0 88 138h187q0 -144 -71 -231q-72 -87 -190 -87q-85 0 -166 72q-82 72 -112 72q-86 0 -88 -141z" />
    <glyph glyph-name="uni0304" unicode="&#x304;" 
d="M-367 1316v180h735v-180h-735z" />
    <glyph glyph-name="uni0306" unicode="&#x306;" 
d="M-193 1602q2 -81 52 -129q52 -49 140 -49t140 49q50 48 52 129h208q0 -156 -107 -252q-110 -99 -293 -99t-292 99q-107 96 -107 252h207z" />
    <glyph glyph-name="uni0307" unicode="&#x307;" 
d="M-116 1324q-45 45 -45 114t45 115q46 46 116 46t116 -46q45 -46 45 -115t-45 -114q-46 -46 -116 -46t-116 46z" />
    <glyph glyph-name="uni0308" unicode="&#x308;" 
d="M-345 1294q-44 43 -44 109t44 109q43 42 111 42t111 -42q44 -43 44 -109t-44 -109t-111 -43t-111 43zM123 1294q-44 43 -44 109t44 109q44 42 111 42q68 0 112 -42q44 -43 44 -109t-44 -109t-112 -43q-67 0 -111 43z" />
    <glyph glyph-name="hookabovecomb" unicode="&#x309;" 
d="M-179 1652q67 25 157 25q113 0 182 -58q70 -58 70 -154q0 -171 -201 -249l-94 115q108 39 108 107q0 35 -29 56q-30 22 -80 22q-68 0 -113 -19v155z" />
    <glyph glyph-name="uni030A" unicode="&#x30a;" 
d="M-175 1319q-71 69 -71 173q0 102 71 170q70 68 175 68t175 -68q70 -67 70 -170q0 -104 -70 -173q-70 -68 -175 -68t-175 68zM75 1417q30 29 30 74q0 44 -30 74q-30 29 -75 29q-46 0 -76 -29q-30 -30 -30 -74q0 -46 30 -75t76 -29t75 30z" />
    <glyph glyph-name="uni030B" unicode="&#x30b;" 
d="M289 1634h259l-242 -353h-229zM-147 1634h259l-242 -353h-229z" />
    <glyph glyph-name="uni030C" unicode="&#x30c;" 
d="M-146 1251l-275 354h263l149 -209h18l148 209h263l-275 -354h-291z" />
    <glyph glyph-name="uni030F" unicode="&#x30f;" 
d="M-315 1281l-241 353h258l213 -353h-230zM121 1281l-241 353h258l213 -353h-230z" />
    <glyph glyph-name="uni0311" unicode="&#x311;" 
d="M-400 1251q0 156 107 252q110 99 293 99t293 -99q107 -96 107 -252h-208q-2 81 -52 129q-52 49 -140 49t-140 -49q-50 -48 -52 -129h-208z" />
    <glyph glyph-name="uni031B" unicode="&#x31b;" 
d="M0 1118q32 -21 72 -19q83 6 83 124v158h231v-215q0 -130 -69 -207q-68 -76 -183 -76q-87 0 -134 27v208z" />
    <glyph glyph-name="dotbelowcomb" unicode="&#x323;" 
d="M-114 -379q-43 39 -43 100t43 100q44 39 114 39t114 -39q43 -39 43 -100t-43 -100q-43 -40 -114 -40t-114 40z" />
    <glyph glyph-name="uni0324" unicode="&#x324;" 
d="M-347 -393q-43 39 -43 100t43 100t113 39q71 0 114 -39t43 -100t-43 -100t-114 -39q-70 0 -113 39zM120 -393q-43 39 -43 100t43 100t114 39q70 0 113 -39t43 -100t-43 -100t-113 -39q-71 0 -114 39z" />
    <glyph glyph-name="uni0325" unicode="&#x325;" 
d="M-175 -502q-71 69 -71 173q0 102 71 170q70 68 175 68t175 -68q70 -67 70 -170q0 -104 -70 -173q-70 -68 -175 -68t-175 68zM75 -404q30 29 30 74q0 44 -30 74q-30 29 -75 29q-46 0 -76 -29q-30 -30 -30 -74q0 -46 30 -75t76 -29t75 30z" />
    <glyph glyph-name="uni0326" unicode="&#x326;" 
d="M-264 -509l132 358h292l-166 -358h-258z" />
    <glyph glyph-name="uni0327" unicode="&#x327;" 
d="M-128 -125l55 132h174l-49 -119q196 -9 196 -177q0 -96 -69 -150q-71 -54 -198 -54q-84 0 -147 17v135q37 -14 116 -14q112 0 112 59q0 56 -130 56h-60v115z" />
    <glyph glyph-name="uni0328" unicode="&#x328;" 
d="M150 -444q-56 -25 -153 -25q-110 0 -178 57q-67 58 -67 153q0 169 188 295l165 -11q-148 -103 -148 -216q0 -46 31 -74q30 -27 82 -27q43 0 80 9v-161z" />
    <glyph glyph-name="uni032D" unicode="&#x32d;" 
d="M434 -432h-284l-141 153h-18l-141 -153h-284l286 280h296z" />
    <glyph glyph-name="uni032E" unicode="&#x32e;" 
d="M-190 -113q0 -69 50 -112q52 -43 140 -43t140 43q50 43 50 112h210q0 -139 -105 -227q-110 -92 -295 -92t-295 92q-105 88 -105 227h210z" />
    <glyph glyph-name="uni0330" unicode="&#x330;" 
d="M-13 -361q-83 66 -125 66q-82 0 -85 -117h-183q0 140 70 218q66 74 177 74q93 0 178 -66q84 -66 119 -66q82 0 86 113h182q0 -137 -69 -215q-67 -74 -178 -74q-88 0 -172 67z" />
    <glyph glyph-name="uni0331" unicode="&#x331;" 
d="M-373 -401v181h746v-181h-746z" />
    <glyph glyph-name="uni037E" unicode="&#x37e;" horiz-adv-x="712" 
d="M137 -388l79 635h288l-133 -635h-234zM226 760q-48 49 -48 125t48 124q49 49 129 49t129 -49q48 -47 48 -124t-48 -125q-49 -49 -129 -49q-79 0 -129 49z" />
    <glyph glyph-name="tonos" unicode="&#x384;" horiz-adv-x="929" 
d="M347 1645h299l-145 -378h-237z" />
    <glyph glyph-name="dieresistonos" unicode="&#x385;" horiz-adv-x="1446" 
d="M239 1307q-41 40 -41 101q0 62 41 102t104 40t104 -40t41 -102q0 -61 -41 -101t-104 -40t-104 40zM997 1307q-41 40 -41 101q0 62 41 102t104 40t104 -40t41 -102q0 -61 -41 -101t-104 -40t-104 40zM612 1645h275l-86 -378h-214z" />
    <glyph glyph-name="Alphatonos" unicode="&#x386;" horiz-adv-x="1562" 
d="M1054 344h-507l-111 -344h-303l501 1443h355l501 -1443h-327zM612 577h378l-179 566h-18zM151 1443h299l-145 -378h-237z" />
    <glyph glyph-name="anoteleia" unicode="&#x387;" horiz-adv-x="723" 
d="M227 804q-49 49 -49 129t49 129q50 50 134 50t133 -50q49 -49 49 -129t-49 -129q-49 -50 -133 -50t-134 50z" />
    <glyph glyph-name="Epsilontonos" unicode="&#x388;" horiz-adv-x="1731" 
d="M157 1443h299l-145 -378h-237zM1588 0h-956v1443h956v-258h-654v-337h617v-239h-617v-351h654v-258z" />
    <glyph glyph-name="Etatonos" unicode="&#x389;" horiz-adv-x="2062" 
d="M157 1443h299l-145 -378h-237zM1584 0v603h-650v-603h-302v1443h302v-582h650v582h302v-1443h-302z" />
    <glyph glyph-name="Iotatonos" unicode="&#x38a;" horiz-adv-x="1110" 
d="M632 0v1443h302v-1443h-302zM157 1443h299l-145 -378h-237z" />
    <glyph glyph-name="Omicrontonos" unicode="&#x38c;" horiz-adv-x="1948" 
d="M1649 1276q187 -204 187 -554q0 -351 -186 -555q-187 -204 -507 -204q-321 0 -508 204t-187 555q0 350 189 555q187 203 506 203q320 0 506 -204zM862 1082q-105 -134 -105 -360t104 -360q105 -134 282 -134q176 0 281 134q104 134 104 360t-104 360q-105 133 -281 133
t-281 -133zM157 1443h299l-145 -378h-237z" />
    <glyph glyph-name="Upsilontonos" unicode="&#x38e;" horiz-adv-x="1909" 
d="M157 1443h299l-145 -378h-237zM1032 0v531l-503 912h327l318 -604h18l317 604h327l-502 -912v-531h-302z" />
    <glyph glyph-name="Omegatonos" unicode="&#x38f;" horiz-adv-x="1954" 
d="M437 247h282v18q-132 78 -207 224q-75 145 -75 322q0 297 194 483t504 186t505 -186q194 -186 194 -483q0 -177 -75 -322q-75 -146 -207 -224v-18h282v-247h-577v314q273 157 273 473q0 197 -106 313q-107 115 -289 115t-288 -115q-107 -116 -107 -313q0 -315 274 -473
v-314h-577v247zM157 1443h299l-145 -378h-237z" />
    <glyph glyph-name="iotadieresistonos" unicode="&#x390;" horiz-adv-x="719" 
d="M220 66q-88 70 -88 233v804h291v-736q0 -140 146 -140q58 0 95 4v-222q-67 -13 -156 -13q-201 0 -288 70zM-183 1307q-41 40 -41 101q0 62 41 102t104 40t104 -40t41 -102q0 -61 -41 -101t-104 -40t-104 40zM575 1307q-41 40 -41 101q0 62 41 102t104 40t104 -40t41 -102
q0 -61 -41 -101t-104 -40t-104 40zM190 1645h275l-86 -378h-214z" />
    <glyph glyph-name="Alpha" unicode="&#x391;" horiz-adv-x="1500" 
d="M992 344h-507l-111 -344h-303l501 1443h355l501 -1443h-327zM550 577h378l-179 566h-18z" />
    <glyph glyph-name="Beta" unicode="&#x392;" horiz-adv-x="1420" 
d="M174 0v1443h631q209 0 329 -96q118 -96 118 -264q0 -115 -75 -203t-186 -105v-18q143 -11 237 -107q93 -98 93 -237q0 -190 -134 -301q-134 -112 -365 -112h-648zM476 845h227q122 0 187 48t65 135t-59 135q-60 49 -168 49h-252v-367zM745 231q268 0 268 208
q0 202 -275 202h-262v-410h269z" />
    <glyph glyph-name="Gamma" unicode="&#x393;" horiz-adv-x="1199" 
d="M174 1443h925v-258h-623v-1185h-302v1443z" />
    <glyph glyph-name="uni0394" unicode="&#x394;" horiz-adv-x="1506" 
d="M113 177l462 1266h355l462 -1266v-177h-1279v177zM1054 258v18l-302 877h-18l-305 -877v-18h625z" />
    <glyph glyph-name="Epsilon" unicode="&#x395;" horiz-adv-x="1274" 
d="M1130 0h-956v1443h956v-258h-654v-337h617v-239h-617v-351h654v-258z" />
    <glyph glyph-name="Zeta" unicode="&#x396;" horiz-adv-x="1384" 
d="M134 204l726 963v18h-709v258h1077v-203l-724 -964v-18h744v-258h-1114v204z" />
    <glyph glyph-name="Eta" unicode="&#x397;" horiz-adv-x="1604" 
d="M1126 0v603h-650v-603h-302v1443h302v-582h650v582h302v-1443h-302z" />
    <glyph glyph-name="Theta" unicode="&#x398;" horiz-adv-x="1690" 
d="M588 843h511v-252h-511v252zM1147 354q111 132 111 368t-111 368q-110 130 -302 130t-302 -130q-112 -132 -112 -368t111 -368q109 -131 303 -131q192 0 302 131zM313 163q-193 200 -193 559q0 361 193 561q192 197 532 197q341 0 531 -197q192 -200 192 -561
q0 -358 -193 -559q-191 -200 -530 -200q-340 0 -532 200z" />
    <glyph glyph-name="Iota" unicode="&#x399;" horiz-adv-x="652" 
d="M174 0v1443h302v-1443h-302z" />
    <glyph glyph-name="Kappa" unicode="&#x39a;" horiz-adv-x="1453" 
d="M174 0v1443h302v-643h18l533 643h336l-526 -633l563 -810h-362l-419 604l-143 -169v-435h-302z" />
    <glyph glyph-name="Lambda" unicode="&#x39b;" horiz-adv-x="1474" 
d="M559 1443h355l481 -1443h-327l-332 1133h-18l-337 -1133h-303z" />
    <glyph glyph-name="Mu" unicode="&#x39c;" horiz-adv-x="1879" 
d="M174 0v1443h356l399 -970h18l400 970h355v-1443h-280v965h-16l-367 -882h-201l-368 882h-16v-965h-280z" />
    <glyph glyph-name="Nu" unicode="&#x39d;" horiz-adv-x="1573" 
d="M174 0v1443h252l664 -899h18v899h289v-1443h-250l-666 903h-18v-903h-289z" />
    <glyph glyph-name="Xi" unicode="&#x39e;" horiz-adv-x="1373" 
d="M142 265h1087v-265h-1087v265zM229 850h913v-246h-913v246zM142 1443h1087v-265h-1087v265z" />
    <glyph glyph-name="Omicron" unicode="&#x39f;" horiz-adv-x="1630" 
d="M1321 1276q187 -204 187 -554q0 -351 -186 -555q-187 -204 -507 -204q-321 0 -508 204t-187 555q0 350 189 555q187 203 506 203q320 0 506 -204zM534 1082q-105 -134 -105 -360t104 -360q105 -134 282 -134q176 0 281 134q104 134 104 360t-104 360q-105 133 -281 133
t-281 -133z" />
    <glyph glyph-name="Pi" unicode="&#x3a0;" horiz-adv-x="1584" 
d="M174 1443h1234v-1443h-302v1185h-630v-1185h-302v1443z" />
    <glyph glyph-name="Rho" unicode="&#x3a1;" horiz-adv-x="1380" 
d="M776 1443q223 0 361 -137q139 -138 139 -362q0 -222 -143 -359t-372 -137h-285v-448h-302v1443h602zM476 693h219q131 0 202 64q72 65 72 186q0 122 -71 188q-71 64 -202 64h-220v-502z" />
    <glyph glyph-name="Sigma" unicode="&#x3a3;" horiz-adv-x="1364" 
d="M139 191l382 532l-361 495v225h1047v-258h-664v-18l297 -415v-36l-320 -440v-18h713v-258h-1094v191z" />
    <glyph glyph-name="Tau" unicode="&#x3a4;" horiz-adv-x="1352" 
d="M524 0v1185h-433v258h1168v-258h-433v-1185h-302z" />
    <glyph glyph-name="Upsilon" unicode="&#x3a5;" horiz-adv-x="1452" 
d="M574 0v531l-503 912h327l318 -604h18l317 604h327l-502 -912v-531h-302z" />
    <glyph glyph-name="Phi" unicode="&#x3a6;" horiz-adv-x="1884" 
d="M803 41q-310 15 -501 198q-192 185 -192 475t192 474q191 183 501 198v153h277v-153q310 -15 500 -198q193 -184 193 -474t-193 -475q-190 -183 -500 -198v-151h-277v151zM803 1139q-185 -14 -289 -123q-108 -112 -108 -302t108 -302q104 -109 289 -124v851zM1080 288
q185 15 289 124q108 112 108 302q0 189 -108 301q-105 110 -289 124v-851z" />
    <glyph glyph-name="Chi" unicode="&#x3a7;" horiz-adv-x="1494" 
d="M548 727l-458 716h355l301 -505h18l304 505h338l-475 -721l468 -722h-344l-310 489h-18l-314 -489h-326z" />
    <glyph glyph-name="Psi" unicode="&#x3a8;" horiz-adv-x="1779" 
d="M745 306q-276 5 -437 166t-161 432v539h287v-543q0 -318 311 -341v884h287v-884q312 23 312 341v543h287v-539q0 -271 -161 -432t-438 -166v-306h-287v306z" />
    <glyph glyph-name="uni03A9" unicode="&#x3a9;" horiz-adv-x="1636" 
d="M119 247h282v18q-132 78 -207 224q-75 145 -75 322q0 297 194 483t504 186t505 -186q194 -186 194 -483q0 -177 -75 -322q-75 -146 -207 -224v-18h282v-247h-577v314q273 157 273 473q0 197 -106 313q-107 115 -289 115t-288 -115q-107 -116 -107 -313q0 -315 274 -473
v-314h-577v247z" />
    <glyph glyph-name="Iotadieresis" unicode="&#x3aa;" horiz-adv-x="652" 
d="M175 0v1443h302v-1443h-302zM-19 1622q-44 43 -44 109t44 109q43 42 111 42t111 -42q44 -43 44 -109t-44 -109t-111 -43t-111 43zM449 1622q-44 43 -44 109t44 109q44 42 111 42q68 0 112 -42q44 -43 44 -109t-44 -109t-112 -43q-67 0 -111 43z" />
    <glyph glyph-name="Upsilondieresis" unicode="&#x3ab;" horiz-adv-x="1452" 
d="M574 0v531l-503 912h327l318 -604h18l317 604h327l-502 -912v-531h-302zM380 1622q-44 43 -44 109t44 109q43 42 111 42t111 -42q44 -43 44 -109t-44 -109t-111 -43t-111 43zM848 1622q-44 43 -44 109t44 109q44 42 111 42q68 0 112 -42q44 -43 44 -109t-44 -109
t-112 -43q-67 0 -111 43z" />
    <glyph glyph-name="alphatonos" unicode="&#x3ac;" horiz-adv-x="1386" 
d="M200 134q-122 152 -122 419q0 263 121 416q120 152 329 152q238 0 321 -219h18v201h288v-760q0 -71 21 -97t78 -26q30 0 54 8v-221q-49 -17 -145 -17q-231 0 -276 174l-9 26h-18q-35 -96 -122 -151q-87 -56 -203 -56q-214 0 -335 151zM793 314q68 88 68 237
q0 147 -65 237q-66 89 -174 89q-114 0 -179 -87q-66 -87 -66 -238t63 -238q63 -88 171 -88q115 0 182 88zM573 1645h299l-145 -378h-237z" />
    <glyph glyph-name="epsilontonos" unicode="&#x3ad;" horiz-adv-x="1216" 
d="M583 1645h299l-145 -378h-237zM232 61q-136 87 -136 236q0 188 191 253v18q-169 68 -169 233q0 149 135 237q133 88 356 88q233 0 367 -92q135 -93 158 -271h-285q-37 132 -236 132q-96 0 -152 -32q-57 -33 -57 -89q0 -111 202 -111h146v-216h-145q-213 0 -213 -118
q0 -59 57 -91q55 -32 155 -32q214 0 258 157h298q-24 -173 -180 -281q-156 -107 -381 -107q-233 0 -369 86z" />
    <glyph glyph-name="etatonos" unicode="&#x3ae;" horiz-adv-x="1397" 
d="M243 760q0 66 -24 95q-24 28 -79 28q-28 0 -55 -8v221q58 17 142 17q123 0 192 -44q68 -45 95 -144l4 -17h18q38 102 131 161q92 58 214 58q184 0 284 -109q100 -108 100 -308v-1055h-291v986q0 235 -212 235q-103 0 -165 -67q-63 -66 -63 -176v-633h-291v760zM612 1645
h299l-145 -378h-237z" />
    <glyph glyph-name="iotatonos" unicode="&#x3af;" horiz-adv-x="719" 
d="M219 66q-88 70 -88 233v804h291v-736q0 -140 146 -140q58 0 95 4v-222q-67 -13 -156 -13q-201 0 -288 70zM242 1645h299l-145 -378h-237z" />
    <glyph glyph-name="upsilondieresistonos" unicode="&#x3b0;" horiz-adv-x="1232" 
d="M108 1307q-41 40 -41 101q0 62 41 102t104 40t104 -40t41 -102q0 -61 -41 -101t-104 -40t-104 40zM866 1307q-41 40 -41 101q0 62 41 102t104 40t104 -40t41 -102q0 -61 -41 -101t-104 -40t-104 40zM481 1645h275l-86 -378h-214zM125 449v654h276v-616q0 -134 49 -196
q50 -62 157 -62q112 0 173 90q60 88 60 246q0 293 -101 538h284q102 -206 102 -528q0 -289 -141 -446q-137 -153 -384 -153q-475 0 -475 473z" />
    <glyph glyph-name="alpha" unicode="&#x3b1;" horiz-adv-x="1386" 
d="M200 134q-122 152 -122 419q0 263 121 416q120 152 329 152q238 0 321 -219h18v201h288v-760q0 -71 21 -97t78 -26q30 0 54 8v-221q-49 -17 -145 -17q-231 0 -276 174l-9 26h-18q-35 -96 -122 -151q-87 -56 -203 -56q-214 0 -335 151zM793 314q68 88 68 237
q0 147 -65 237q-66 89 -174 89q-114 0 -179 -87q-66 -87 -66 -238t63 -238q63 -88 171 -88q115 0 182 88z" />
    <glyph glyph-name="beta" unicode="&#x3b2;" horiz-adv-x="1329" 
d="M140 999q0 269 132 409q131 140 384 140q222 0 349 -106q126 -105 126 -290q0 -103 -54 -186q-54 -84 -146 -124v-18q310 -76 310 -401q0 -200 -124 -320q-123 -120 -329 -120q-118 0 -210 50q-92 51 -129 136h-18v-514h-291v1344zM878 289q65 63 65 164q0 244 -297 244
h-77v222h75q104 0 163 51q58 51 58 142q0 92 -55 145t-150 53q-230 0 -230 -269v-500q0 -153 72 -234t205 -81q105 0 171 63z" />
    <glyph glyph-name="gamma" unicode="&#x3b3;" horiz-adv-x="1222" 
d="M431 -62l-395 1165h304l254 -838h18q226 349 226 635q0 126 -18 203h280q19 -77 19 -202q0 -402 -402 -939v-302h-286v278z" />
    <glyph glyph-name="delta" unicode="&#x3b4;" horiz-adv-x="1231" 
d="M215 115q-144 139 -144 381q0 181 103 312t275 170v19q-195 92 -195 265q0 133 110 209q109 77 299 77q232 0 385 -82v-220q-176 81 -348 81q-142 0 -142 -88q0 -38 35 -68q31 -26 123 -72q233 -130 332 -263q103 -138 103 -334q0 -233 -147 -378q-149 -148 -399 -148
q-247 0 -390 139zM784 277q65 83 65 227q0 142 -67 228q-68 86 -178 86q-107 0 -173 -86q-65 -86 -65 -228q0 -144 65 -227t176 -83q112 0 177 83z" />
    <glyph glyph-name="epsilon" unicode="&#x3b5;" horiz-adv-x="1216" 
d="M232 62q-136 87 -136 236q0 188 191 253v18q-169 68 -169 233q0 149 135 237q133 88 356 88q233 0 367 -92q135 -93 158 -271h-285q-37 132 -236 132q-96 0 -152 -32q-57 -33 -57 -89q0 -111 202 -111h146v-216h-145q-213 0 -213 -118q0 -59 57 -91q55 -32 155 -32
q214 0 258 157h298q-24 -173 -180 -281q-156 -107 -381 -107q-233 0 -369 86z" />
    <glyph glyph-name="zeta" unicode="&#x3b6;" horiz-adv-x="1023" 
d="M657 -309q77 113 77 191q0 59 -39 91t-162 74q-253 87 -351 197q-99 111 -99 314q0 338 456 703v18h-374v245h823v-200q-611 -414 -611 -734q0 -114 58 -172q58 -59 230 -119q202 -72 272 -144q71 -72 71 -205q0 -162 -134 -345z" />
    <glyph glyph-name="eta" unicode="&#x3b7;" horiz-adv-x="1397" 
d="M243 760q0 66 -24 95q-24 28 -79 28q-28 0 -55 -8v221q58 17 142 17q123 0 192 -44q68 -45 95 -144l4 -17h18q38 102 131 161q92 58 214 58q184 0 284 -109q100 -108 100 -308v-1055h-291v986q0 235 -212 235q-103 0 -165 -67q-63 -66 -63 -176v-633h-291v760z" />
    <glyph glyph-name="theta" unicode="&#x3b8;" horiz-adv-x="1283" 
d="M232 176q-141 201 -141 590q0 382 142 583q141 199 408 199q266 0 407 -198q142 -201 142 -585q0 -387 -141 -589q-140 -200 -408 -200q-269 0 -409 200zM898 650h-515q7 -450 258 -450q250 0 257 450zM898 883q-11 441 -257 441t-258 -441h515z" />
    <glyph glyph-name="iota" unicode="&#x3b9;" horiz-adv-x="719" 
d="M219 66q-88 70 -88 233v804h291v-736q0 -140 146 -140q58 0 95 4v-222q-67 -13 -156 -13q-201 0 -288 70z" />
    <glyph glyph-name="kappa" unicode="&#x3ba;" horiz-adv-x="1284" 
d="M140 1103h286v-485h18l272 309q91 106 160 146t160 40q68 0 124 -17v-221q-26 8 -64 8q-83 0 -176 -102l-133 -152l412 -629h-309l-291 445l-173 -182v-263h-286v1103z" />
    <glyph glyph-name="lambda" unicode="&#x3bb;" horiz-adv-x="1272" 
d="M484 1039l-32 85q-47 121 -86 156q-41 37 -132 37q-20 0 -62 -7v220q67 18 133 18q158 0 239 -83q79 -81 170 -330l295 -799q25 -68 56 -92q30 -24 92 -24q17 0 54 8v-221q-53 -17 -142 -17q-123 0 -189 48q-65 47 -108 168l-167 461h-18l-267 -667h-291z" />
    <glyph glyph-name="uni03BC" unicode="&#x3bc;" horiz-adv-x="1407" 
d="M140 1103h291v-644q0 -112 55 -171q54 -59 156 -59q107 0 171 65q64 64 64 171v638h291v-760q0 -71 21 -97t78 -26q19 0 54 8v-221q-61 -18 -135 -18q-120 0 -183 43q-63 44 -88 145l-3 14h-19q-62 -215 -277 -215q-124 0 -167 78h-18v-399h-291v1448z" />
    <glyph glyph-name="nu" unicode="&#x3bd;" horiz-adv-x="1222" 
d="M411 0l-375 1103h304l254 -839h18q226 351 226 637q0 126 -18 202h280q19 -79 19 -200q0 -381 -374 -903h-334z" />
    <glyph glyph-name="xi" unicode="&#x3be;" horiz-adv-x="1058" 
d="M663 -307q76 116 76 191q0 61 -40 92t-179 79q-242 85 -337 170q-95 86 -95 221q0 239 263 308v18q-200 80 -200 251q0 91 55 154q54 62 151 84v18h-202v245h824v-210l-130 -16q-234 -29 -325 -77t-91 -143q0 -151 283 -151h186v-234h-200q-320 0 -320 -183
q0 -72 50 -108q50 -35 247 -105q195 -71 265 -142q69 -70 69 -199q0 -164 -134 -349z" />
    <glyph glyph-name="omicron" unicode="&#x3bf;" horiz-adv-x="1254" 
d="M232 128q-146 153 -146 424q0 269 147 423q145 152 393 152q249 0 394 -152q147 -154 147 -423q0 -271 -146 -424q-144 -152 -395 -152t-394 152zM804 302q64 89 64 250q0 159 -65 248q-64 89 -177 89q-112 0 -176 -89q-65 -89 -65 -248q0 -161 64 -250q63 -88 177 -88
t178 88z" />
    <glyph glyph-name="pi" unicode="&#x3c0;" horiz-adv-x="1528" 
d="M291 859h-205v244h1330v-244h-229v-517q0 -71 23 -97q23 -25 85 -25q31 0 58 8v-221q-59 -17 -143 -17q-170 0 -236 67q-65 66 -65 235v567h-340v-859h-278v859z" />
    <glyph glyph-name="rho" unicode="&#x3c1;" horiz-adv-x="1287" 
d="M113 537q0 278 147 435q145 155 397 155q264 0 406 -158q136 -150 136 -411q0 -271 -123 -424q-122 -151 -335 -151q-234 0 -320 186h-18v-514h-290v882zM834 313q66 88 66 250q0 160 -66 244q-65 82 -184 82q-118 0 -184 -88q-66 -90 -66 -254q0 -149 68 -235
q67 -86 179 -86q121 0 187 87z" />
    <glyph glyph-name="sigma1" unicode="&#x3c2;" horiz-adv-x="1171" 
d="M660 -307q77 113 77 191q0 60 -40 92q-39 32 -163 73q-249 85 -350 207q-98 119 -98 329q0 250 147 397q145 145 388 145q211 0 338 -108q128 -109 147 -305h-272q-35 174 -212 174q-110 0 -175 -75q-67 -76 -67 -210q0 -122 56 -181q57 -61 234 -123q201 -71 271 -142
q70 -72 70 -205q0 -160 -134 -345z" />
    <glyph glyph-name="sigma" unicode="&#x3c3;" horiz-adv-x="1403" 
d="M229 125q-143 148 -143 405q0 259 158 416q157 157 418 157h653v-244h-272v-19q113 -107 113 -316q0 -250 -146 -399t-390 -149q-247 0 -391 149zM804 299q64 89 64 243q0 145 -66 230q-66 83 -176 83q-111 0 -176 -84q-65 -85 -65 -229q0 -155 65 -244q65 -88 176 -88
q113 0 178 89z" />
    <glyph glyph-name="tau" unicode="&#x3c4;" horiz-adv-x="1168" 
d="M471 67q-88 70 -88 232v560h-327v244h1014v-244h-396v-492q0 -140 150 -140q72 0 101 4v-222q-65 -13 -163 -13q-204 0 -291 71z" />
    <glyph glyph-name="upsilon" unicode="&#x3c5;" horiz-adv-x="1232" 
d="M125 449v654h276v-616q0 -134 49 -196q50 -62 157 -62q112 0 173 90q60 88 60 246q0 293 -101 538h284q102 -206 102 -528q0 -289 -141 -446q-137 -153 -384 -153q-475 0 -475 473z" />
    <glyph glyph-name="phi" unicode="&#x3c6;" horiz-adv-x="1627" 
d="M680 -25q-268 11 -430 161q-169 156 -169 416t169 416q163 151 430 161v266h266v-266q267 -10 430 -161q169 -156 169 -416t-169 -416q-162 -150 -430 -161v-320h-266v320zM685 898q-153 -10 -237 -98q-87 -91 -87 -248t87 -248q84 -88 237 -99v693zM941 205
q153 11 237 99q87 91 87 248t-87 248q-85 88 -237 98v-693z" />
    <glyph glyph-name="chi" unicode="&#x3c7;" horiz-adv-x="1253" 
d="M479 365l-212 401q-38 72 -74 96q-31 21 -88 21q-32 0 -56 -8v221q57 17 133 17q117 0 184 -43q66 -43 123 -153l151 -286h18l250 469h291l-419 -741l197 -370q34 -64 68 -89q35 -24 92 -24q33 0 57 7v-220q-56 -18 -142 -18q-111 0 -175 39q-63 38 -113 136l-146 273
h-18l-231 -438h-291z" />
    <glyph glyph-name="psi" unicode="&#x3c8;" horiz-adv-x="1617" 
d="M662 -24q-258 1 -397 124q-140 123 -140 350v653h276v-588q0 -157 61 -222q59 -64 200 -64v1166h276v-1164q138 0 213 89q74 88 74 250q0 292 -101 533h284q102 -204 102 -515q0 -293 -149 -453q-149 -159 -423 -159v-321h-276v321z" />
    <glyph glyph-name="omega" unicode="&#x3c9;" horiz-adv-x="1677" 
d="M207 114q-106 139 -106 399q0 359 174 590h293q-183 -273 -183 -588q0 -286 164 -286q74 0 115 52q41 53 41 147v360h266v-360q0 -94 41 -147q41 -52 113 -52q166 0 166 286q0 313 -183 588h292q175 -230 175 -590q0 -260 -105 -399q-106 -138 -304 -138q-222 0 -319 224
h-18q-99 -224 -319 -224q-198 0 -303 138z" />
    <glyph glyph-name="iotadieresis" unicode="&#x3ca;" horiz-adv-x="719" 
d="M220 66q-88 70 -88 233v804h291v-736q0 -140 146 -140q58 0 95 4v-222q-67 -13 -156 -13q-201 0 -288 70zM-69 1294q-44 43 -44 109t44 109q43 42 111 42t111 -42q44 -43 44 -109t-44 -109t-111 -43t-111 43zM399 1294q-44 43 -44 109t44 109q44 42 111 42q68 0 112 -42
q44 -43 44 -109t-44 -109t-112 -43q-67 0 -111 43z" />
    <glyph glyph-name="upsilondieresis" unicode="&#x3cb;" horiz-adv-x="1232" 
d="M234 1294q-44 43 -44 109t44 109q43 42 111 42t111 -42q44 -43 44 -109t-44 -109t-111 -43t-111 43zM702 1294q-44 43 -44 109t44 109q44 42 111 42q68 0 112 -42q44 -43 44 -109t-44 -109t-112 -43q-67 0 -111 43zM125 449v654h276v-616q0 -134 49 -196q50 -62 157 -62
q112 0 173 90q60 88 60 246q0 293 -101 538h284q102 -206 102 -528q0 -289 -141 -446q-137 -153 -384 -153q-475 0 -475 473z" />
    <glyph glyph-name="omicrontonos" unicode="&#x3cc;" horiz-adv-x="1254" 
d="M232 128q-146 153 -146 424q0 269 147 423q145 152 393 152q249 0 394 -152q147 -154 147 -423q0 -271 -146 -424q-144 -152 -395 -152t-394 152zM804 302q64 89 64 250q0 159 -65 248q-64 89 -177 89q-112 0 -176 -89q-65 -89 -65 -248q0 -161 64 -250q63 -88 177 -88
t178 88zM581 1645h299l-145 -378h-237z" />
    <glyph glyph-name="upsilontonos" unicode="&#x3cd;" horiz-adv-x="1232" 
d="M530 1645h299l-145 -378h-237zM125 449v654h276v-616q0 -134 49 -196q50 -62 157 -62q112 0 173 90q60 88 60 246q0 293 -101 538h284q102 -206 102 -528q0 -289 -141 -446q-137 -153 -384 -153q-475 0 -475 473z" />
    <glyph glyph-name="omegatonos" unicode="&#x3ce;" horiz-adv-x="1677" 
d="M207 114q-106 139 -106 399q0 359 174 590h293q-183 -273 -183 -588q0 -286 164 -286q74 0 115 52q41 53 41 147v360h266v-360q0 -94 41 -147q41 -52 113 -52q166 0 166 286q0 313 -183 588h292q175 -230 175 -590q0 -260 -105 -399q-106 -138 -304 -138q-222 0 -319 224
h-18q-99 -224 -319 -224q-198 0 -303 138zM792 1645h299l-145 -378h-237z" />
    <glyph glyph-name="uni0401" unicode="&#x401;" horiz-adv-x="1294" 
d="M317 1622q-44 43 -44 109t44 109q43 42 111 42t111 -42q44 -43 44 -109t-44 -109t-111 -43t-111 43zM785 1622q-44 43 -44 109t44 109q44 42 111 42q68 0 112 -42q44 -43 44 -109t-44 -109t-112 -43q-67 0 -111 43zM1140 0h-956v1443h956v-258h-654v-337h617v-239h-617
v-351h654v-258z" />
    <glyph glyph-name="uni0402" unicode="&#x402;" horiz-adv-x="1802" 
d="M1036 -55v244q39 -12 119 -12q106 0 169 59q65 61 65 172q0 102 -64 165q-69 67 -193 67q-119 0 -203 -57q-63 -42 -93 -101v-482h-302v1185h-433v258h1168v-258h-433v-398h17q129 119 339 119q241 0 376 -141q124 -130 124 -337q0 -225 -135 -361q-138 -139 -375 -139
q-96 0 -146 17z" />
    <glyph glyph-name="uni0403" unicode="&#x403;" horiz-adv-x="1225" 
d="M753 1891h315l-314 -318h-278zM184 0v1443h930v-259h-627v-1184h-303z" />
    <glyph glyph-name="uni0404" unicode="&#x404;" horiz-adv-x="1571" 
d="M1449 479q-19 -228 -193 -372q-176 -144 -440 -144q-318 0 -502 203t-184 556t184 556q184 202 501 202q260 0 439 -151q177 -149 194 -379h-294q-22 119 -114 191q-93 73 -225 73q-153 0 -252 -97q-101 -98 -118 -266h567v-241h-570q14 -173 115 -277q102 -104 259 -104
q133 0 226 69q91 68 113 181h294z" />
    <glyph glyph-name="uni0405" unicode="&#x405;" horiz-adv-x="1403" 
d="M411 401q10 -88 93 -140q81 -52 209 -52q118 0 193 52q75 51 75 133q0 69 -58 112t-191 71l-188 40q-392 82 -392 412q0 204 151 328q151 123 401 123q238 0 392 -121q153 -121 160 -314h-284q-11 86 -83 138q-74 52 -183 52q-114 0 -182 -49q-69 -49 -69 -131
q0 -67 56 -108q55 -41 182 -68l174 -37q217 -46 316 -144t99 -266q0 -218 -157 -344q-156 -125 -428 -125q-258 0 -414 118t-164 320h292z" />
    <glyph glyph-name="uni0406" unicode="&#x406;" horiz-adv-x="672" 
d="M184 0v1443h302v-1443h-302z" />
    <glyph glyph-name="uni0407" unicode="&#x407;" horiz-adv-x="672" 
d="M185 0v1443h302v-1443h-302zM-9 1622q-44 43 -44 109t44 109q43 42 111 42t111 -42q44 -43 44 -109t-44 -109t-111 -43t-111 43zM459 1622q-44 43 -44 109t44 109q44 42 111 42q68 0 112 -42q44 -43 44 -109t-44 -109t-112 -43q-67 0 -111 43z" />
    <glyph glyph-name="uni0408" unicode="&#x408;" horiz-adv-x="1251" 
d="M377 424q2 -87 54 -139q53 -52 140 -52q192 0 192 217v993h302v-995q0 -232 -130 -359q-129 -126 -360 -126q-223 0 -356 124q-134 126 -134 337h292z" />
    <glyph glyph-name="uni0409" unicode="&#x409;" horiz-adv-x="2256" 
d="M595 573q-15 -284 -108 -426q-105 -160 -319 -160q-68 0 -109 13v275q37 -8 67 -8q102 0 147 93q35 74 44 234l43 849h993v-479h279q229 0 372 -133t143 -349q0 -217 -138 -350q-138 -132 -361 -132h-597v1185h-421zM1568 249q129 0 200 60q71 61 71 174q0 114 -72 175
q-71 60 -201 60h-213v-469h215z" />
    <glyph glyph-name="uni040A" unicode="&#x40a;" horiz-adv-x="2317" 
d="M1638 249q124 0 192 50t68 143q0 89 -69 137q-68 47 -192 47h-229v-377h230zM486 0h-302v1443h302v-571h620v571h302v-571h280q229 0 372 -118q143 -119 143 -312q0 -199 -139 -321q-138 -121 -361 -121h-597v620h-620v-620z" />
    <glyph glyph-name="uni040B" unicode="&#x40b;" horiz-adv-x="1829" 
d="M836 482v-482h-302v1185h-433v258h1168v-258h-433v-397h17q128 118 330 118q240 0 371 -149q123 -139 123 -372v-385h-302v366q0 126 -62 198q-66 76 -191 76q-199 0 -286 -158z" />
    <glyph glyph-name="uni040C" unicode="&#x40c;" horiz-adv-x="1473" 
d="M853 1891h315l-314 -318h-278zM542 830l505 613h336l-586 -706l626 -737h-365l-514 591h-48v-591h-302v1443h302v-613h46z" />
    <glyph glyph-name="uni040E" unicode="&#x40e;" horiz-adv-x="1420" 
d="M543 1915q2 -72 47 -115q43 -42 112 -42q70 0 114 42q45 43 47 115h218q0 -147 -104 -235q-103 -87 -275 -87q-171 0 -274 87q-103 88 -103 235h218zM264 1v255q27 -9 88 -9q137 0 203 101l-479 1095h321l310 -789h18l299 789h318l-442 -1030q-95 -220 -197 -314
q-122 -112 -315 -112q-82 0 -124 14z" />
    <glyph glyph-name="uni040F" unicode="&#x40f;" horiz-adv-x="1609" 
d="M184 0v1443h302v-1185h635v1185h302v-1443h-478v-285h-283v285h-478z" />
    <glyph glyph-name="uni0410" unicode="&#x410;" horiz-adv-x="1520" 
d="M1002 344h-507l-111 -344h-303l501 1443h355l501 -1443h-327zM560 577h378l-179 566h-18z" />
    <glyph glyph-name="uni0411" unicode="&#x411;" horiz-adv-x="1392" 
d="M1137 125q-138 -125 -361 -125h-592v1443h959v-258h-657v-281h280q227 0 368 -123q142 -124 142 -324q0 -205 -139 -332zM701 249q127 0 196 53q70 54 70 155q0 102 -70 156q-69 54 -197 54h-214v-418h215z" />
    <glyph glyph-name="uni0412" unicode="&#x412;" horiz-adv-x="1440" 
d="M184 0v1443h631q209 0 329 -96q118 -96 118 -264q0 -115 -75 -203t-186 -105v-18q143 -11 237 -107q93 -98 93 -237q0 -190 -134 -301q-134 -112 -365 -112h-648zM486 845h227q122 0 187 48t65 135t-59 135q-60 49 -168 49h-252v-367zM755 231q268 0 268 208
q0 202 -275 202h-262v-410h269z" />
    <glyph glyph-name="uni0413" unicode="&#x413;" horiz-adv-x="1225" 
d="M184 0v1443h930v-259h-627v-1184h-303z" />
    <glyph glyph-name="uni0414" unicode="&#x414;" horiz-adv-x="1606" 
d="M560 612q-16 -246 -91 -336v-18h584v928h-455zM313 -285h-274v543h101q72 51 104 143q28 80 38 236l50 806h1023v-1185h180v-543h-273v285h-949v-285z" />
    <glyph glyph-name="uni0415" unicode="&#x415;" horiz-adv-x="1294" 
d="M1140 0h-956v1443h956v-258h-654v-337h617v-239h-617v-351h654v-258z" />
    <glyph glyph-name="uni0416" unicode="&#x416;" horiz-adv-x="2160" 
d="M929 1443h297v-615h48l455 615h328l-534 -709l575 -734h-358l-464 593h-50v-593h-297v593h-50l-464 -593h-354l571 728l-538 715h331l455 -615h49v615z" />
    <glyph glyph-name="uni0417" unicode="&#x417;" horiz-adv-x="1363" 
d="M478 853h191q107 0 172 54q66 54 66 142q0 87 -63 138q-64 51 -176 51t-181 -55t-74 -148h-279q8 205 153 325q146 120 389 120q231 0 375 -108q145 -109 145 -284q0 -121 -74 -212q-75 -91 -193 -116v-18q145 -14 233 -106q90 -93 90 -237q0 -191 -165 -314
q-163 -122 -413 -122q-248 0 -403 123t-165 327h289q7 -91 83 -144q76 -54 200 -54q119 0 192 58q72 57 72 149q0 88 -71 138q-71 51 -199 51h-194v242z" />
    <glyph glyph-name="uni0418" unicode="&#x418;" horiz-adv-x="1629" 
d="M1142 956h-18l-649 -956h-291v1443h301v-957h18l649 957h291v-1443h-301v956z" />
    <glyph glyph-name="uni0419" unicode="&#x419;" horiz-adv-x="1629" 
d="M644 1915q2 -72 47 -115q43 -42 112 -42q70 0 114 42q45 43 47 115h218q0 -147 -104 -235q-103 -87 -275 -87q-171 0 -274 87q-103 88 -103 235h218zM1142 956h-18l-649 -956h-291v1443h301v-957h18l649 957h291v-1443h-301v956z" />
    <glyph glyph-name="uni041A" unicode="&#x41a;" horiz-adv-x="1475" 
d="M532 830l505 613h336l-586 -706l626 -737h-365l-514 591h-48v-591h-302v1443h302v-613h46z" />
    <glyph glyph-name="uni041B" unicode="&#x41b;" horiz-adv-x="1529" 
d="M1041 0v1185h-421l-35 -612q-15 -284 -108 -426q-105 -160 -319 -160q-68 0 -109 13v275q37 -8 67 -8q102 0 147 93q35 74 44 234l43 849h993v-1443h-302z" />
    <glyph glyph-name="uni041C" unicode="&#x41c;" horiz-adv-x="1898" 
d="M184 0v1443h356l399 -970h18l400 970h355v-1443h-280v965h-16l-367 -882h-201l-368 882h-16v-965h-280z" />
    <glyph glyph-name="uni041D" unicode="&#x41d;" horiz-adv-x="1624" 
d="M1136 0v603h-650v-603h-302v1443h302v-582h650v582h302v-1443h-302z" />
    <glyph glyph-name="uni041E" unicode="&#x41e;" horiz-adv-x="1650" 
d="M1331 1276q187 -204 187 -554q0 -351 -186 -555q-187 -204 -507 -204q-321 0 -508 204t-187 555q0 350 189 555q187 203 506 203q320 0 506 -204zM544 1082q-105 -134 -105 -360t104 -360q105 -134 282 -134q176 0 281 134q104 134 104 360t-104 360q-105 133 -281 133
t-281 -133z" />
    <glyph glyph-name="uni041F" unicode="&#x41f;" horiz-adv-x="1609" 
d="M1122 0v1184h-635v-1184h-303v1443h1239v-1443h-301z" />
    <glyph glyph-name="uni0420" unicode="&#x420;" horiz-adv-x="1400" 
d="M786 1443q223 0 361 -137q139 -138 139 -362q0 -222 -143 -359t-372 -137h-285v-448h-302v1443h602zM486 693h219q131 0 202 64q72 65 72 186q0 122 -71 188q-71 64 -202 64h-220v-502z" />
    <glyph glyph-name="uni0421" unicode="&#x421;" horiz-adv-x="1566" 
d="M312 166q-182 204 -182 556t181 555q182 203 496 203q256 0 433 -153q176 -152 193 -388h-294q-22 125 -112 200q-91 75 -220 75q-170 0 -269 -132t-99 -360t99 -360q99 -133 270 -133q130 0 220 71t112 190h294q-19 -234 -192 -380q-174 -147 -435 -147q-314 0 -495 203
z" />
    <glyph glyph-name="uni0422" unicode="&#x422;" horiz-adv-x="1372" 
d="M534 0v1185h-433v258h1168v-258h-433v-1185h-302z" />
    <glyph glyph-name="uni0423" unicode="&#x423;" horiz-adv-x="1420" 
d="M264 1v255q27 -9 88 -9q137 0 203 101l-479 1095h321l310 -789h18l299 789h318l-442 -1030q-95 -220 -197 -314q-122 -112 -315 -112q-82 0 -124 14z" />
    <glyph glyph-name="uni0424" unicode="&#x424;" horiz-adv-x="1863" 
d="M785 1074q-165 -8 -262 -100q-100 -94 -100 -250t99 -250q97 -92 263 -100v700zM1339 974q-97 92 -262 100v-700q164 8 262 99q99 94 99 250q0 157 -99 251zM781 123q-302 10 -480 166q-183 161 -183 435q0 273 184 434q178 156 479 166v150h299v-150q302 -9 480 -166
q183 -161 183 -435q0 -273 -184 -434q-178 -155 -479 -166v-154h-299v154z" />
    <glyph glyph-name="uni0425" unicode="&#x425;" horiz-adv-x="1514" 
d="M558 727l-458 716h355l301 -505h18l304 505h338l-475 -721l468 -722h-344l-310 489h-18l-314 -489h-326z" />
    <glyph glyph-name="uni0426" unicode="&#x426;" horiz-adv-x="1674" 
d="M1330 -285v285h-1146v1443h302v-1185h635v1185h302v-1185h180v-543h-273z" />
    <glyph glyph-name="uni0427" unicode="&#x427;" horiz-adv-x="1524" 
d="M1036 0v612h-18q-136 -118 -348 -118q-244 0 -389 150q-142 146 -142 385v414h302v-383q0 -137 73 -216q76 -81 216 -81q227 0 306 160v520h302v-1443h-302z" />
    <glyph glyph-name="uni0428" unicode="&#x428;" horiz-adv-x="2096" 
d="M184 1443h302v-1185h410v1185h302v-1185h410v1185h302v-1443h-1726v1443z" />
    <glyph glyph-name="uni0429" unicode="&#x429;" horiz-adv-x="2161" 
d="M1817 -285v285h-1633v1443h302v-1185h410v1185h302v-1185h410v1185h302v-1185h180v-543h-273z" />
    <glyph glyph-name="uni042A" unicode="&#x42a;" horiz-adv-x="1644" 
d="M438 0v1186h-335v257h637v-479h280q229 0 372 -133t143 -349q0 -217 -139 -350q-138 -132 -361 -132h-597zM955 249q130 0 200 60q71 61 71 174q0 114 -71 175q-71 60 -201 60h-214v-469h215z" />
    <glyph glyph-name="uni042B" unicode="&#x42b;" horiz-adv-x="1932" 
d="M1444 0v1443h302v-1443h-302zM189 1443h302v-479h280q229 0 372 -133t143 -349q0 -217 -139 -350q-138 -132 -361 -132h-597v1443zM706 249q130 0 200 60q71 61 71 174q0 114 -71 175q-71 60 -201 60h-214v-469h215z" />
    <glyph glyph-name="uni042C" unicode="&#x42c;" horiz-adv-x="1395" 
d="M184 1443h302v-479h280q229 0 372 -133t143 -349q0 -217 -139 -350q-138 -132 -361 -132h-597v1443zM701 249q130 0 200 60q71 61 71 174q0 114 -71 175q-71 60 -201 60h-214v-469h215z" />
    <glyph glyph-name="uni042D" unicode="&#x42d;" horiz-adv-x="1571" 
d="M316 107q-177 144 -196 372h294q22 -112 116 -181q95 -69 231 -69q154 0 253 102q100 103 114 279h-571v241h570q-17 170 -116 267q-98 96 -249 96q-135 0 -230 -73q-95 -72 -117 -191h-294q17 230 196 379q181 151 444 151q315 0 496 -202q182 -202 182 -555
q0 -354 -182 -557t-497 -203q-267 0 -444 144z" />
    <glyph glyph-name="uni042E" unicode="&#x42e;" horiz-adv-x="2190" 
d="M906 134q-179 170 -209 469h-211v-603h-302v1443h302v-582h213q35 289 215 454q179 165 461 165q315 0 499 -204t184 -554q0 -351 -184 -555q-183 -204 -499 -204q-289 0 -469 171zM1100 1082q-103 -134 -103 -360t102 -360t275 -134q172 0 274 134t102 360t-102 360
q-102 133 -274 133t-274 -133z" />
    <glyph glyph-name="uni042F" unicode="&#x42f;" horiz-adv-x="1451" 
d="M966 1198h-245q-120 0 -188 -60q-69 -60 -69 -165q0 -106 68 -165q68 -60 190 -60h244v450zM421 0h-334l379 561q-142 45 -225 153q-86 111 -86 260q0 211 141 340q143 129 383 129h586v-1443h-299v518h-202z" />
    <glyph glyph-name="uni0430" unicode="&#x430;" horiz-adv-x="1233" 
d="M722 259q68 57 68 141v81l-223 -14q-186 -13 -186 -133q0 -61 48 -97q47 -35 124 -35q101 0 169 57zM197 73q-101 92 -101 242q0 149 111 235q110 85 316 97l267 16v90q0 144 -186 144q-162 0 -199 -102h-268q14 153 145 243q130 89 338 89q218 0 338 -98
q119 -98 119 -276v-753h-282v144h-18q-91 -161 -320 -161q-160 0 -260 90z" />
    <glyph glyph-name="uni0431" unicode="&#x431;" horiz-adv-x="1309" 
d="M837 296q66 83 66 235q0 145 -66 226q-65 81 -183 81t-183 -81q-66 -81 -66 -226q0 -152 65 -235q65 -82 184 -82q118 0 183 82zM349 853q108 211 369 211q218 0 350 -141q134 -143 134 -384q0 -261 -146 -412t-397 -151q-265 0 -407 164q-146 169 -146 494
q0 424 144 626q143 202 449 213l141 5q107 4 208 24q76 15 81 20v-235q-77 -41 -271 -47l-134 -4q-197 -7 -288 -104q-81 -87 -105 -279h18z" />
    <glyph glyph-name="uni0432" unicode="&#x432;" horiz-adv-x="1232" 
d="M438 911v-254h175q171 0 171 128q0 126 -155 126h-191zM438 482v-290h205q183 0 183 146q0 144 -198 144h-190zM152 1103h553q172 0 269 -74q96 -74 96 -204q0 -86 -57 -153q-56 -66 -141 -80v-18q110 -10 179 -82q68 -71 68 -173q0 -145 -108 -231q-110 -88 -296 -88
h-563v1103z" />
    <glyph glyph-name="uni0433" unicode="&#x433;" horiz-adv-x="1006" 
d="M443 874v-874h-291v1103h763v-229h-472z" />
    <glyph glyph-name="uni0434" unicode="&#x434;" horiz-adv-x="1365" 
d="M862 875h-336l-25 -345q-13 -184 -78 -283v-18h439v646zM36 -285v514h85q104 58 122 321l36 553h873v-874h164v-514h-266v285h-748v-285h-266z" />
    <glyph glyph-name="uni0435" unicode="&#x435;" horiz-adv-x="1263" 
d="M470 839q-65 -65 -73 -172h470q-5 110 -66 173q-62 64 -164 64q-101 0 -167 -65zM1144 314q-33 -157 -167 -247q-135 -91 -337 -91q-252 0 -393 151q-141 150 -141 419t142 425t388 156q244 0 380 -147q137 -147 137 -410v-89h-757v-15q3 -123 71 -194q67 -72 181 -72
q177 0 225 114h271z" />
    <glyph glyph-name="uni0436" unicode="&#x436;" horiz-adv-x="1796" 
d="M463 598l-387 505h325l299 -434h54v434h284v-434h55l299 434h323l-385 -503l409 -600h-339l-304 462h-58v-462h-284v462h-58l-304 -462h-337z" />
    <glyph glyph-name="uni0437" unicode="&#x437;" horiz-adv-x="1184" 
d="M267 62q-147 97 -163 289h280q38 -140 210 -140q88 0 138 34q51 35 51 98q0 124 -188 124h-153v196h145q162 0 162 116q0 53 -39 85q-42 35 -123 35q-167 0 -189 -130h-275q16 165 134 260q122 98 328 98q215 0 332 -82q116 -82 116 -232q0 -82 -46 -141
q-45 -57 -119 -78v-18q206 -54 206 -245q0 -163 -127 -258q-129 -97 -353 -97q-200 0 -327 86z" />
    <glyph glyph-name="uni0438" unicode="&#x438;" horiz-adv-x="1341" 
d="M152 0v1103h286v-678h18l445 678h286v-1103h-286v686h-18l-445 -686h-286z" />
    <glyph glyph-name="uni0439" unicode="&#x439;" horiz-adv-x="1341" 
d="M491 1616q2 -81 45 -132q45 -52 117 -52t117 52q44 51 46 132h218q0 -155 -105 -252q-105 -98 -276 -98t-276 98q-104 96 -104 252h218zM152 0v1103h286v-678h18l445 678h286v-1103h-286v686h-18l-445 -686h-286z" />
    <glyph glyph-name="uni043A" unicode="&#x43a;" horiz-adv-x="1234" 
d="M491 673l333 430h331l-423 -503l445 -600h-347l-335 457h-52v-457h-291v1103h291v-430h48z" />
    <glyph glyph-name="uni043B" unicode="&#x43b;" horiz-adv-x="1268" 
d="M512 530q-15 -266 -94 -394q-91 -149 -283 -149q-54 0 -93 13v256q28 -7 63 -7q74 0 110 86q30 70 38 215l32 553h830v-1103h-291v874h-289z" />
    <glyph glyph-name="uni043C" unicode="&#x43c;" horiz-adv-x="1652" 
d="M152 0v1103h377l289 -706h18l290 706h372v-1103h-274v731h-19l-279 -669h-203l-279 669h-18v-731h-274z" />
    <glyph glyph-name="uni043D" unicode="&#x43d;" horiz-adv-x="1328" 
d="M152 1103h291v-423h441v423h291v-1103h-291v451h-441v-451h-291v1103z" />
    <glyph glyph-name="uni043E" unicode="&#x43e;" horiz-adv-x="1299" 
d="M829 303q64 88 64 249q0 159 -64 248q-65 89 -180 89q-116 0 -180 -89t-64 -248q0 -161 64 -250q63 -88 180 -88q116 0 180 89zM250 129q-144 153 -144 423q0 268 146 421q145 154 397 154t398 -153q145 -154 145 -422q0 -270 -144 -423q-145 -153 -399 -153t-399 153z
" />
    <glyph glyph-name="uni043F" unicode="&#x43f;" horiz-adv-x="1318" 
d="M874 874h-431v-874h-291v1103h1013v-1103h-291v874z" />
    <glyph glyph-name="uni0440" unicode="&#x440;" horiz-adv-x="1346" 
d="M1122 970q120 -151 120 -418q0 -266 -119 -418q-119 -151 -326 -151q-247 0 -333 186h-18v-514h-291v1448h282v-181h18q45 93 134 146t203 53q210 0 330 -151zM877 313q66 86 66 239q0 152 -66 238q-67 87 -183 87t-184 -87q-67 -88 -67 -239t67 -238t183 -87
q118 0 184 87z" />
    <glyph glyph-name="uni0441" unicode="&#x441;" horiz-adv-x="1231" 
d="M864 714q-15 81 -70 126q-58 48 -149 48q-118 0 -181 -86q-64 -86 -64 -248q0 -164 64 -252q63 -87 181 -87q185 0 219 167h272q-18 -187 -147 -296q-131 -110 -344 -110q-258 0 -398 150q-141 151 -141 428q0 275 140 424t399 149q216 0 346 -112q127 -110 145 -301
h-272z" />
    <glyph glyph-name="uni0442" unicode="&#x442;" horiz-adv-x="1091" 
d="M1020 874h-330v-874h-291v874h-330v229h951v-229z" />
    <glyph glyph-name="uni0443" unicode="&#x443;" horiz-adv-x="1243" 
d="M181 -400v235q15 -3 66 -3q160 0 195 121l10 40l-387 1110h321l232 -836h18l232 836h308l-380 -1120q-70 -213 -184 -299q-113 -87 -320 -87q-93 0 -111 3z" />
    <glyph glyph-name="uni0444" unicode="&#x444;" horiz-adv-x="1687" 
d="M702 891q-138 -4 -218 -93q-82 -91 -82 -246q0 -157 81 -247q80 -88 219 -93v679zM1202 798q-80 88 -219 93v-679q138 4 218 94q82 91 82 246q0 156 -81 246zM699 -16q-273 6 -432 156q-161 152 -161 412q0 256 162 410q160 151 431 157v338h287v-338q273 -6 432 -156
q161 -152 161 -412q0 -256 -162 -409q-160 -152 -431 -158v-329h-287v329z" />
    <glyph glyph-name="uni0445" unicode="&#x445;" horiz-adv-x="1210" 
d="M589 360l-205 -360h-309l346 545l-348 558h334l195 -362h18l195 362h318l-346 -545l349 -558h-324l-205 360h-18z" />
    <glyph glyph-name="uni0446" unicode="&#x446;" horiz-adv-x="1374" 
d="M1060 -285v285h-908v1103h291v-874h426v874h291v-874h166v-514h-266z" />
    <glyph glyph-name="uni0447" unicode="&#x447;" horiz-adv-x="1273" 
d="M829 0v467h-18q-103 -119 -295 -119q-175 0 -279 110q-105 110 -105 297v348h291v-303q0 -94 50 -148q49 -53 134 -53q151 0 222 109v395h291v-1103h-291z" />
    <glyph glyph-name="uni0448" unicode="&#x448;" horiz-adv-x="1810" 
d="M152 1103h291v-874h316v874h291v-874h316v874h291v-1103h-1505v1103z" />
    <glyph glyph-name="uni0449" unicode="&#x449;" horiz-adv-x="1865" 
d="M1550 -285v285h-1398v1103h291v-874h316v874h291v-874h316v874h291v-874h159v-514h-266z" />
    <glyph glyph-name="uni044A" unicode="&#x44a;" horiz-adv-x="1370" 
d="M349 0v874h-285v229h576v-318h214q195 0 311 -106q115 -107 115 -287t-115 -286q-116 -106 -311 -106h-505zM640 559v-330h168q83 0 133 46q50 45 50 119t-50 120q-50 45 -133 45h-168z" />
    <glyph glyph-name="uni044B" unicode="&#x44b;" horiz-adv-x="1643" 
d="M1198 1103h291v-1103h-291v1103zM448 559v-330h168q83 0 133 46q49 45 49 119t-50 120q-50 45 -132 45h-168zM157 1103h291v-318h214q195 0 311 -106q115 -107 115 -287t-115 -286q-116 -106 -311 -106h-505v1103z" />
    <glyph glyph-name="uni044C" unicode="&#x44c;" horiz-adv-x="1177" 
d="M443 559v-330h168q83 0 133 46q49 45 49 119t-50 120q-50 45 -132 45h-168zM152 1103h291v-318h214q195 0 311 -106q115 -107 115 -287t-115 -286q-116 -106 -311 -106h-505v1103z" />
    <glyph glyph-name="uni044D" unicode="&#x44d;" horiz-adv-x="1243" 
d="M245 87q-129 107 -148 290h272q16 -77 77 -119q59 -42 148 -42q103 0 170 67t76 183h-406v196h403q-12 106 -79 167q-66 59 -164 59q-89 0 -149 -45q-58 -44 -75 -118h-272q20 180 150 289q135 113 347 113q249 0 394 -154q146 -155 146 -419q0 -268 -146 -423
q-145 -155 -395 -155q-216 0 -349 111z" />
    <glyph glyph-name="uni044E" unicode="&#x44e;" horiz-adv-x="1781" 
d="M770 100q-141 125 -166 351h-161v-451h-291v1103h291v-423h165q33 211 172 329t356 118q249 0 393 -152q145 -154 145 -423q0 -272 -144 -424q-143 -152 -394 -152q-226 0 -366 124zM1312 302q63 89 63 250q0 160 -63 248q-64 89 -177 89t-177 -89t-64 -248
q0 -161 64 -250q63 -88 177 -88t177 88z" />
    <glyph glyph-name="uni044F" unicode="&#x44f;" horiz-adv-x="1207" 
d="M768 567v308h-179q-81 0 -129 -43q-49 -43 -49 -114q0 -67 49 -108q49 -43 129 -43h179zM768 355h-119l-245 -355h-330l289 403q-110 33 -174 119q-64 85 -64 199q0 174 120 279q119 103 314 103h494v-1103h-285v355z" />
    <glyph glyph-name="uni0451" unicode="&#x451;" horiz-adv-x="1263" 
d="M470 839q-65 -65 -73 -172h470q-5 110 -66 173q-62 64 -164 64q-101 0 -167 -65zM1144 314q-33 -157 -167 -247q-135 -91 -337 -91q-252 0 -393 151q-141 150 -141 419t142 425t388 156q244 0 380 -147q137 -147 137 -410v-89h-757v-15q3 -123 71 -194q67 -72 181 -72
q177 0 225 114h271zM291 1294q-44 43 -44 109t44 109q43 42 111 42t111 -42q44 -43 44 -109t-44 -109t-111 -43t-111 43zM759 1294q-44 43 -44 109t44 109q44 42 111 42q68 0 112 -42q44 -43 44 -109t-44 -109t-112 -43q-67 0 -111 43z" />
    <glyph glyph-name="uni0452" unicode="&#x452;" horiz-adv-x="1359" 
d="M1208 -34q0 -340 -390 -340q-42 0 -78 3v224q12 -2 37 -2q76 0 108 30q32 28 32 95v665q0 114 -57 173q-56 59 -161 59q-109 0 -177 -66q-68 -67 -68 -174v-633h-291v1260h-151v152h151v149h286v-149h249v-152h-249v-338h18q38 94 132 148t216 54q186 0 289 -108
q104 -108 104 -306v-744z" />
    <glyph glyph-name="uni0453" unicode="&#x453;" horiz-adv-x="1006" 
d="M603 1634h309l-287 -353h-269zM448 874v-874h-291v1103h763v-229h-472z" />
    <glyph glyph-name="uni0454" unicode="&#x454;" horiz-adv-x="1235" 
d="M1140 377q-19 -183 -147 -290q-132 -111 -345 -111q-251 0 -396 155q-146 155 -146 423q0 265 146 419q145 154 394 154q211 0 344 -113q129 -109 149 -289h-272q-17 74 -73 118q-58 45 -146 45q-98 0 -163 -59q-67 -61 -80 -166h398v-196h-401q7 -117 75 -185
q67 -66 171 -66q186 0 220 161h272z" />
    <glyph glyph-name="uni0455" unicode="&#x455;" horiz-adv-x="1181" 
d="M257 1031q127 96 333 96q210 0 330 -85q119 -85 131 -243h-269q-24 115 -190 115q-79 0 -129 -32q-52 -33 -52 -85q0 -76 149 -110l207 -45q161 -35 235 -107q75 -72 75 -195q0 -164 -135 -264q-133 -100 -351 -100t-345 86t-142 245h284q35 -118 209 -118q85 0 138 32
q53 33 53 86q0 78 -139 108l-200 45q-318 70 -318 319q0 157 126 252z" />
    <glyph glyph-name="uni0456" unicode="&#x456;" horiz-adv-x="612" 
d="M157 1103h291v-1103h-291v1103zM178 1298q-47 41 -47 106q0 66 47 106q47 41 125 41t125 -41q47 -40 47 -106q0 -65 -47 -106q-48 -41 -125 -41q-78 0 -125 41z" />
    <glyph glyph-name="uni0457" unicode="&#x457;" horiz-adv-x="614" 
d="M160 1103h291v-1103h-291v1103zM-39 1294q-44 43 -44 109t44 109q43 42 111 42t111 -42q44 -43 44 -109t-44 -109t-111 -43t-111 43zM429 1294q-44 43 -44 109t44 109q44 42 111 42q68 0 112 -42q44 -43 44 -109t-44 -109t-112 -43q-67 0 -111 43z" />
    <glyph glyph-name="uni0458" unicode="&#x458;" horiz-adv-x="613" 
d="M450 -33q0 -341 -390 -341q-42 0 -78 3v224q12 -2 37 -2q76 0 108 30q32 28 32 95v1127h291v-1136zM180 1298q-47 41 -47 106q0 66 47 106q47 41 125 41t125 -41q47 -40 47 -106q0 -65 -47 -106q-48 -41 -125 -41q-78 0 -125 41z" />
    <glyph glyph-name="uni0459" unicode="&#x459;" horiz-adv-x="1854" 
d="M517 530q-15 -266 -94 -394q-91 -149 -283 -149q-54 0 -93 13v256q28 -7 63 -7q74 0 110 86q30 70 38 215l32 553h830v-318h214q195 0 311 -106q115 -107 115 -287t-115 -286q-116 -106 -311 -106h-505v874h-289zM1120 559v-330h168q83 0 133 46q49 45 49 119t-50 120
q-50 45 -132 45h-168z" />
    <glyph glyph-name="uni045A" unicode="&#x45a;" horiz-adv-x="1894" 
d="M1160 492v-268h186q76 0 122 38q46 37 46 96t-46 96q-46 38 -122 38h-186zM869 487h-426v-487h-291v1103h291v-392h426v392h291v-387h219q193 0 307 -97t114 -261t-114 -261t-307 -97h-510v487z" />
    <glyph glyph-name="uni045B" unicode="&#x45b;" horiz-adv-x="1359" 
d="M467 922q38 94 132 148t216 54q186 0 289 -108q104 -108 104 -306v-710h-291v641q0 114 -57 173q-56 59 -161 59q-109 0 -177 -66q-68 -67 -68 -174v-633h-291v1260h-151v152h151v149h286v-149h249v-152h-249v-338h18z" />
    <glyph glyph-name="uni045C" unicode="&#x45c;" horiz-adv-x="1234" 
d="M713 1634h309l-287 -353h-269zM491 673l333 430h331l-423 -503l445 -600h-347l-335 457h-52v-457h-291v1103h291v-430h48z" />
    <glyph glyph-name="uni045E" unicode="&#x45e;" horiz-adv-x="1243" 
d="M464 1616q2 -81 45 -132q45 -52 117 -52t117 52q44 51 46 132h218q0 -155 -105 -252q-105 -98 -276 -98t-276 98q-104 96 -104 252h218zM181 -400v235q15 -3 66 -3q160 0 195 121l10 40l-387 1110h321l232 -836h18l232 836h308l-380 -1120q-70 -213 -184 -299
q-113 -87 -320 -87q-93 0 -111 3z" />
    <glyph glyph-name="uni045F" unicode="&#x45f;" horiz-adv-x="1318" 
d="M791 0v-285h-266v285h-373v1103h291v-874h431v874h291v-1103h-374z" />
    <glyph glyph-name="uni0490" unicode="&#x490;" horiz-adv-x="1225" 
d="M487 0h-303v1443h647v285h283v-544h-627v-1184z" />
    <glyph glyph-name="uni0491" unicode="&#x491;" horiz-adv-x="1006" 
d="M443 874v-874h-291v1103h497v285h266v-514h-472z" />
    <glyph glyph-name="uni0E3F" unicode="&#xe3f;" horiz-adv-x="1415" 
d="M726 232q231 10 231 207q0 188 -231 201v-408zM586 231v410h-142v-410h142zM444 845h142v367h-142v-367zM726 850q182 26 182 178q0 77 -47 124q-48 48 -135 58v-360zM935 757q143 -11 237 -107q93 -98 93 -237q0 -190 -134 -301q-134 -112 -365 -112h-40v-135h-140v135
h-438v1443h438v145h140v-145h23q209 0 329 -96q118 -96 118 -264q0 -115 -75 -203t-186 -105v-18z" />
    <glyph glyph-name="uni1E00" unicode="&#x1e00;" horiz-adv-x="1500" 
d="M992 344h-507l-111 -344h-303l501 1443h355l501 -1443h-327zM550 577h378l-179 566h-18zM563 -502q-71 69 -71 173q0 102 71 170q70 68 175 68t175 -68q70 -67 70 -170q0 -104 -70 -173q-70 -68 -175 -68t-175 68zM813 -404q30 29 30 74q0 44 -30 74q-30 29 -75 29
q-46 0 -76 -29q-30 -30 -30 -74q0 -46 30 -75t76 -29t75 30z" />
    <glyph glyph-name="uni1E01" unicode="&#x1e01;" horiz-adv-x="1208" 
d="M712 259q68 57 68 141v81l-223 -14q-186 -13 -186 -133q0 -61 48 -97q47 -35 124 -35q101 0 169 57zM187 73q-101 92 -101 242q0 149 111 235q110 85 316 97l267 16v90q0 144 -186 144q-162 0 -199 -102h-268q14 153 145 243q130 89 338 89q218 0 338 -98
q119 -98 119 -276v-753h-282v144h-18q-91 -161 -320 -161q-160 0 -260 90zM422 -502q-71 69 -71 173q0 102 71 170q70 68 175 68t175 -68q70 -67 70 -170q0 -104 -70 -173q-70 -68 -175 -68t-175 68zM672 -404q30 29 30 74q0 44 -30 74q-30 29 -75 29q-46 0 -76 -29
q-30 -30 -30 -74q0 -46 30 -75t76 -29t75 30z" />
    <glyph glyph-name="uni1E02" unicode="&#x1e02;" horiz-adv-x="1420" 
d="M528 1624q-44 45 -44 113t44 113q45 45 114 45t113 -45t44 -113t-44 -113t-113 -45t-114 45zM174 0v1443h631q209 0 329 -96q118 -96 118 -264q0 -115 -75 -203t-186 -105v-18q143 -11 237 -107q93 -98 93 -237q0 -190 -134 -301q-134 -112 -365 -112h-648zM476 845h227
q122 0 187 48t65 135t-59 135q-60 49 -168 49h-252v-367zM745 231q268 0 268 208q0 202 -275 202h-262v-410h269z" />
    <glyph glyph-name="uni1E03" unicode="&#x1e03;" horiz-adv-x="1334" 
d="M187 1705q-44 45 -44 113t44 113q45 45 114 45t113 -45t44 -113t-44 -113t-113 -45t-114 45zM455 173h-18v-173h-282v1524h291v-597h18q42 91 130 142q88 52 201 52q209 0 328 -151t119 -418q0 -265 -120 -417q-119 -152 -327 -152q-247 0 -340 190zM512 789
q-68 -87 -69 -238q1 -150 68 -237q68 -88 183 -88q116 0 183 87q66 87 66 239q0 151 -67 238t-182 87t-182 -88z" />
    <glyph glyph-name="uni1E04" unicode="&#x1e04;" horiz-adv-x="1420" 
d="M528 -379q-43 39 -43 100t43 100q44 39 114 39t114 -39q43 -39 43 -100t-43 -100q-43 -40 -114 -40t-114 40zM174 0v1443h631q209 0 329 -96q118 -96 118 -264q0 -115 -75 -203t-186 -105v-18q143 -11 237 -107q93 -98 93 -237q0 -190 -134 -301q-134 -112 -365 -112
h-648zM476 845h227q122 0 187 48t65 135t-59 135q-60 49 -168 49h-252v-367zM745 231q268 0 268 208q0 202 -275 202h-262v-410h269z" />
    <glyph glyph-name="uni1E05" unicode="&#x1e05;" horiz-adv-x="1334" 
d="M540 -379q-43 39 -43 100t43 100q44 39 114 39t114 -39q43 -39 43 -100t-43 -100q-43 -40 -114 -40t-114 40zM455 173h-18v-173h-282v1524h291v-597h18q42 91 130 142q88 52 201 52q209 0 328 -151t119 -418q0 -265 -120 -417q-119 -152 -327 -152q-247 0 -340 190z
M512 789q-68 -87 -69 -238q1 -150 68 -237q68 -88 183 -88q116 0 183 87q66 87 66 239q0 151 -67 238t-182 87t-182 -88z" />
    <glyph glyph-name="uni1E06" unicode="&#x1e06;" horiz-adv-x="1420" 
d="M174 0v1443h631q209 0 329 -96q118 -96 118 -264q0 -115 -75 -203t-186 -105v-18q143 -11 237 -107q93 -98 93 -237q0 -190 -134 -301q-134 -112 -365 -112h-648zM476 845h227q122 0 187 48t65 135t-59 135q-60 49 -168 49h-252v-367zM745 231q268 0 268 208
q0 202 -275 202h-262v-410h269zM269 -401v181h746v-181h-746z" />
    <glyph glyph-name="uni1E07" unicode="&#x1e07;" horiz-adv-x="1334" 
d="M281 -401v181h746v-181h-746zM455 173h-18v-173h-282v1524h291v-597h18q42 91 130 142q88 52 201 52q209 0 328 -151t119 -418q0 -265 -120 -417q-119 -152 -327 -152q-247 0 -340 190zM512 789q-68 -87 -69 -238q1 -150 68 -237q68 -88 183 -88q116 0 183 87
q66 87 66 239q0 151 -67 238t-182 87t-182 -88z" />
    <glyph glyph-name="uni1E08" unicode="&#x1e08;" horiz-adv-x="1518" 
d="M924 1591h-278l277 318h315zM1414 490q-17 -214 -166 -357q-147 -142 -376 -166l-33 -79q196 -9 196 -177q0 -96 -69 -150q-71 -54 -198 -54q-84 0 -147 17v135q37 -14 116 -14q112 0 112 59q0 56 -130 56h-60v115l39 93q-275 29 -431 228q-157 200 -157 526
q0 352 181 555q182 203 496 203q256 0 433 -153q176 -152 193 -388h-294q-22 125 -112 200q-91 75 -220 75q-170 0 -269 -132t-99 -360t99 -360q99 -133 270 -133q130 0 220 71t112 190h294z" />
    <glyph glyph-name="uni1E09" unicode="&#x1e09;" horiz-adv-x="1203" 
d="M743 1281h-269l247 353h309zM849 714q-15 81 -70 126q-58 48 -149 48q-118 0 -181 -86q-64 -86 -64 -248q0 -164 64 -252q63 -87 181 -87q185 0 219 167h272q-16 -166 -120 -271q-106 -107 -280 -129l-39 -94q196 -9 196 -177q0 -96 -69 -150q-71 -54 -198 -54
q-84 0 -147 17v135q37 -14 116 -14q112 0 112 59q0 56 -130 56h-60v115l44 105q-219 24 -337 172t-118 402q0 275 140 424t399 149q216 0 346 -112q127 -110 145 -301h-272z" />
    <glyph glyph-name="uni1E0A" unicode="&#x1e0a;" horiz-adv-x="1530" 
d="M524 1624q-44 45 -44 113t44 113q45 45 114 45t113 -45t44 -113t-44 -113t-113 -45t-114 45zM742 1444q322 0 499 -186q178 -187 178 -526q0 -351 -176 -542q-177 -190 -501 -190h-568v1444h568zM476 258h218q201 0 309 120q108 121 108 349q0 218 -110 339
q-110 120 -307 120h-218v-928z" />
    <glyph glyph-name="uni1E0B" unicode="&#x1e0b;" horiz-adv-x="1334" 
d="M918 1705q-44 45 -44 113t44 113q45 45 114 45t113 -45t44 -113t-44 -113t-113 -45t-114 45zM211 136q-120 153 -120 417q0 263 121 416q120 152 328 152q112 0 199 -51q87 -52 130 -143h17v597h291v-1524h-282v173h-18q-44 -89 -133 -140q-89 -50 -204 -50
q-208 0 -329 153zM456 790q-66 -86 -66 -238q0 -153 66 -239q66 -87 183 -87t184 87q66 86 66 238q0 151 -67 238q-67 88 -183 88t-183 -87z" />
    <glyph glyph-name="uni1E0C" unicode="&#x1e0c;" horiz-adv-x="1530" 
d="M524 -379q-43 39 -43 100t43 100q44 39 114 39t114 -39q43 -39 43 -100t-43 -100q-43 -40 -114 -40t-114 40zM742 1444q322 0 499 -186q178 -187 178 -526q0 -351 -176 -542q-177 -190 -501 -190h-568v1444h568zM476 258h218q201 0 309 120q108 121 108 349
q0 218 -110 339q-110 120 -307 120h-218v-928z" />
    <glyph glyph-name="uni1E0D" unicode="&#x1e0d;" horiz-adv-x="1334" 
d="M582 -379q-43 39 -43 100t43 100q44 39 114 39t114 -39q43 -39 43 -100t-43 -100q-43 -40 -114 -40t-114 40zM211 136q-120 153 -120 417q0 263 121 416q120 152 328 152q112 0 199 -51q87 -52 130 -143h17v597h291v-1524h-282v173h-18q-44 -89 -133 -140
q-89 -50 -204 -50q-208 0 -329 153zM456 790q-66 -86 -66 -238q0 -153 66 -239q66 -87 183 -87t184 87q66 86 66 238q0 151 -67 238q-67 88 -183 88t-183 -87z" />
    <glyph glyph-name="uni1E0E" unicode="&#x1e0e;" horiz-adv-x="1530" 
d="M265 -401v181h746v-181h-746zM742 1444q322 0 499 -186q178 -187 178 -526q0 -351 -176 -542q-177 -190 -501 -190h-568v1444h568zM476 258h218q201 0 309 120q108 121 108 349q0 218 -110 339q-110 120 -307 120h-218v-928z" />
    <glyph glyph-name="uni1E0F" unicode="&#x1e0f;" horiz-adv-x="1334" 
d="M323 -401v181h746v-181h-746zM211 136q-120 153 -120 417q0 263 121 416q120 152 328 152q112 0 199 -51q87 -52 130 -143h17v597h291v-1524h-282v173h-18q-44 -89 -133 -140q-89 -50 -204 -50q-208 0 -329 153zM456 790q-66 -86 -66 -238q0 -153 66 -239q66 -87 183 -87
t184 87q66 86 66 238q0 151 -67 238q-67 88 -183 88t-183 -87z" />
    <glyph glyph-name="uni1E10" unicode="&#x1e10;" horiz-adv-x="1530" 
d="M374 -509l132 358h292l-166 -358h-258zM742 1444q322 0 499 -186q178 -187 178 -526q0 -351 -176 -542q-177 -190 -501 -190h-568v1444h568zM476 258h218q201 0 309 120q108 121 108 349q0 218 -110 339q-110 120 -307 120h-218v-928z" />
    <glyph glyph-name="uni1E11" unicode="&#x1e11;" horiz-adv-x="1334" 
d="M432 -509l132 358h292l-166 -358h-258zM211 136q-120 153 -120 417q0 263 121 416q120 152 328 152q112 0 199 -51q87 -52 130 -143h17v597h291v-1524h-282v173h-18q-44 -89 -133 -140q-89 -50 -204 -50q-208 0 -329 153zM456 790q-66 -86 -66 -238q0 -153 66 -239
q66 -87 183 -87t184 87q66 86 66 238q0 151 -67 238q-67 88 -183 88t-183 -87z" />
    <glyph glyph-name="uni1E12" unicode="&#x1e12;" horiz-adv-x="1530" 
d="M742 1444q322 0 499 -186q178 -187 178 -526q0 -351 -176 -542q-177 -190 -501 -190h-568v1444h568zM476 258h218q201 0 309 120q108 121 108 349q0 218 -110 339q-110 120 -307 120h-218v-928zM1072 -432h-284l-141 153h-18l-141 -153h-284l286 280h296z" />
    <glyph glyph-name="uni1E13" unicode="&#x1e13;" horiz-adv-x="1334" 
d="M211 136q-120 153 -120 417q0 263 121 416q120 152 328 152q112 0 199 -51q87 -52 130 -143h17v597h291v-1524h-282v173h-18q-44 -89 -133 -140q-89 -50 -204 -50q-208 0 -329 153zM456 790q-66 -86 -66 -238q0 -153 66 -239q66 -87 183 -87t184 87q66 86 66 238
q0 151 -67 238q-67 88 -183 88t-183 -87zM1130 -432h-284l-141 153h-18l-141 -153h-284l286 280h296z" />
    <glyph glyph-name="uni1E14" unicode="&#x1e14;" horiz-adv-x="1274" 
d="M279 1611v178h746v-178h-746zM519 1915l-189 264h285l159 -264h-255zM1130 0h-956v1443h956v-258h-654v-337h617v-239h-617v-351h654v-258z" />
    <glyph glyph-name="uni1E15" unicode="&#x1e15;" horiz-adv-x="1231" 
d="M455 839q-65 -65 -73 -172h470q-5 110 -66 173q-62 64 -164 64q-101 0 -167 -65zM1129 314q-33 -157 -167 -247q-135 -91 -337 -91q-252 0 -393 151q-141 150 -141 419t142 425t388 156q244 0 380 -147q137 -147 137 -410v-89h-757v-15q3 -123 71 -194q67 -72 181 -72
q177 0 225 114h271zM508 1637l-251 308h291l212 -308h-252zM254 1306v180h735v-180h-735z" />
    <glyph glyph-name="uni1E16" unicode="&#x1e16;" horiz-adv-x="1274" 
d="M279 1611v178h746v-178h-746zM689 2179h285l-189 -264h-255zM1130 0h-956v1443h956v-258h-654v-337h617v-239h-617v-351h654v-258z" />
    <glyph glyph-name="uni1E17" unicode="&#x1e17;" horiz-adv-x="1231" 
d="M455 839q-65 -65 -73 -172h470q-5 110 -66 173q-62 64 -164 64q-101 0 -167 -65zM1129 314q-33 -157 -167 -247q-135 -91 -337 -91q-252 0 -393 151q-141 150 -141 419t142 425t388 156q244 0 380 -147q137 -147 137 -410v-89h-757v-15q3 -123 71 -194q67 -72 181 -72
q177 0 225 114h271zM694 1945h291l-251 -308h-252zM254 1306v180h735v-180h-735z" />
    <glyph glyph-name="uni1E18" unicode="&#x1e18;" horiz-adv-x="1274" 
d="M1130 0h-956v1443h956v-258h-654v-337h617v-239h-617v-351h654v-258zM1086 -432h-284l-141 153h-18l-141 -153h-284l286 280h296z" />
    <glyph glyph-name="uni1E19" unicode="&#x1e19;" horiz-adv-x="1231" 
d="M455 839q-65 -65 -73 -172h470q-5 110 -66 173q-62 64 -164 64q-101 0 -167 -65zM1129 314q-33 -157 -167 -247q-135 -91 -337 -91q-252 0 -393 151q-141 150 -141 419t142 425t388 156q244 0 380 -147q137 -147 137 -410v-89h-757v-15q3 -123 71 -194q67 -72 181 -72
q177 0 225 114h271zM1059 -432h-284l-141 153h-18l-141 -153h-284l286 280h296z" />
    <glyph glyph-name="uni1E1A" unicode="&#x1e1a;" horiz-adv-x="1274" 
d="M639 -361q-83 66 -125 66q-82 0 -85 -117h-183q0 140 70 218q66 74 177 74q93 0 178 -66q84 -66 119 -66q82 0 86 113h182q0 -137 -69 -215q-67 -74 -178 -74q-88 0 -172 67zM1130 0h-956v1443h956v-258h-654v-337h617v-239h-617v-351h654v-258z" />
    <glyph glyph-name="uni1E1B" unicode="&#x1e1b;" horiz-adv-x="1231" 
d="M612 -361q-83 66 -125 66q-82 0 -85 -117h-183q0 140 70 218q66 74 177 74q93 0 178 -66q84 -66 119 -66q82 0 86 113h182q0 -137 -69 -215q-67 -74 -178 -74q-88 0 -172 67zM455 839q-65 -65 -73 -172h470q-5 110 -66 173q-62 64 -164 64q-101 0 -167 -65zM1129 314
q-33 -157 -167 -247q-135 -91 -337 -91q-252 0 -393 151q-141 150 -141 419t142 425t388 156q244 0 380 -147q137 -147 137 -410v-89h-757v-15q3 -123 71 -194q67 -72 181 -72q177 0 225 114h271z" />
    <glyph glyph-name="uni1E1C" unicode="&#x1e1c;" horiz-adv-x="1274" 
d="M1052 1915q0 -150 -107 -242q-110 -94 -293 -94t-293 94q-107 92 -107 242h208q2 -75 53 -119q52 -45 139 -45t139 45q51 44 53 119h208zM476 1185v-337h617v-239h-617v-351h654v-258h-380l-46 -112q196 -9 196 -177q0 -96 -69 -150q-71 -54 -198 -54q-84 0 -147 17v135
q37 -14 116 -14q112 0 112 59q0 56 -130 56h-60v115l52 125h-402v1443h956v-258h-654z" />
    <glyph glyph-name="uni1E1D" unicode="&#x1e1d;" horiz-adv-x="1231" 
d="M1020 1602q0 -156 -107 -252q-110 -99 -293 -99t-292 99q-107 96 -107 252h207q2 -81 52 -129q52 -49 140 -49t140 49q50 48 52 129h208zM852 667q-5 110 -66 173q-62 64 -164 64q-101 0 -167 -65q-65 -65 -73 -172h470zM381 481v-15q3 -123 71 -194q67 -72 181 -72
q177 0 225 114h271q-29 -138 -138 -226q-109 -87 -276 -107l-38 -93q196 -9 196 -177q0 -96 -69 -150q-71 -54 -198 -54q-84 0 -147 17v135q37 -14 116 -14q112 0 112 59q0 56 -130 56h-60v115l44 106q-214 25 -332 172q-118 148 -118 393q0 269 142 425t388 156
q244 0 380 -147q137 -147 137 -410v-89h-757z" />
    <glyph glyph-name="uni1E1E" unicode="&#x1e1e;" horiz-adv-x="1224" 
d="M533 1624q-44 45 -44 113t44 113q45 45 114 45t113 -45t44 -113t-44 -113t-113 -45t-114 45zM174 0v1443h945v-258h-643v-376h587v-247h-587v-562h-302z" />
    <glyph glyph-name="uni1E1F" unicode="&#x1e1f;" horiz-adv-x="828" 
d="M347 1674q-44 45 -44 113t44 113q45 45 114 45t113 -45t44 -113t-44 -113t-113 -45t-114 45zM228 863h-175v229h175v111q0 166 90 240q88 72 284 72q75 0 146 -11v-209q-44 8 -95 8q-140 0 -140 -121v-90h231v-229h-225v-863h-291v863z" />
    <glyph glyph-name="uni1E20" unicode="&#x1e20;" horiz-adv-x="1557" 
d="M1442 589q0 -289 -172 -458q-172 -168 -468 -168q-322 0 -507 203t-185 557q0 349 185 553t500 204q256 0 429 -136t205 -361h-300q-34 110 -121 170q-87 61 -213 61q-175 0 -275 -130q-101 -131 -101 -358q0 -231 105 -364q104 -133 283 -133q148 0 243 80q93 80 98 211
l1 26h-313v227h606v-184zM422 1633v181h746v-181h-746z" />
    <glyph glyph-name="uni1E21" unicode="&#x1e21;" horiz-adv-x="1322" 
d="M276 1316v180h735v-180h-735zM820 792q-68 85 -185 85t-183 -85q-65 -84 -65 -230q0 -147 65 -231q65 -85 183 -85t185 85q67 84 67 230t-67 231zM275 -329q-135 88 -149 234h288q11 -51 70 -81t153 -30q117 0 182 52q65 51 65 144v204h-18q-94 -178 -332 -178
q-206 0 -326 148q-120 147 -120 397q0 257 121 408q122 152 331 152q112 0 201 -52q90 -52 134 -143h18v177h282v-1099q0 -194 -147 -308t-397 -114q-218 0 -356 89z" />
    <glyph glyph-name="uni1E22" unicode="&#x1e22;" horiz-adv-x="1604" 
d="M1126 0v603h-650v-603h-302v1443h302v-582h650v582h302v-1443h-302zM687 1624q-44 45 -44 113t44 113q45 45 114 45t113 -45t44 -113t-44 -113t-113 -45t-114 45z" />
    <glyph glyph-name="uni1E23" unicode="&#x1e23;" horiz-adv-x="1332" 
d="M155 1524h286v-602h18q38 94 131 148t215 54q185 0 287 -108q103 -108 103 -306v-710h-291v641q0 232 -216 232q-109 0 -176 -66q-66 -66 -66 -174v-633h-291v1524zM184 1705q-44 45 -44 113t44 113q45 45 114 45t113 -45t44 -113t-44 -113t-113 -45t-114 45z" />
    <glyph glyph-name="uni1E24" unicode="&#x1e24;" horiz-adv-x="1604" 
d="M1126 0v603h-650v-603h-302v1443h302v-582h650v582h302v-1443h-302zM687 -379q-43 39 -43 100t43 100q44 39 114 39t114 -39q43 -39 43 -100t-43 -100q-43 -40 -114 -40t-114 40z" />
    <glyph glyph-name="uni1E25" unicode="&#x1e25;" horiz-adv-x="1332" 
d="M155 1524h286v-602h18q38 94 131 148t215 54q185 0 287 -108q103 -108 103 -306v-710h-291v641q0 232 -216 232q-109 0 -176 -66q-66 -66 -66 -174v-633h-291v1524zM564 -379q-43 39 -43 100t43 100q44 39 114 39t114 -39q43 -39 43 -100t-43 -100q-43 -40 -114 -40
t-114 40z" />
    <glyph glyph-name="uni1E26" unicode="&#x1e26;" horiz-adv-x="1604" 
d="M1126 0v603h-650v-603h-302v1443h302v-582h650v582h302v-1443h-302zM456 1622q-44 43 -44 109t44 109q43 42 111 42t111 -42q44 -43 44 -109t-44 -109t-111 -43t-111 43zM924 1622q-44 43 -44 109t44 109q44 42 111 42q68 0 112 -42q44 -43 44 -109t-44 -109t-112 -43
q-67 0 -111 43z" />
    <glyph glyph-name="uni1E27" unicode="&#x1e27;" horiz-adv-x="1332" 
d="M156 1524h286v-602h18q38 94 131 148t215 54q185 0 287 -108q103 -108 103 -306v-710h-291v641q0 232 -216 232q-109 0 -176 -66q-66 -66 -66 -174v-633h-291v1524zM-46 1703q-44 43 -44 109t44 109q43 42 111 42t111 -42q44 -43 44 -109t-44 -109t-111 -43t-111 43z
M422 1703q-44 43 -44 109t44 109q44 42 111 42q68 0 112 -42q44 -43 44 -109t-44 -109t-112 -43q-67 0 -111 43z" />
    <glyph glyph-name="uni1E28" unicode="&#x1e28;" horiz-adv-x="1604" 
d="M476 1443v-582h650v582h302v-1443h-302v603h-650v-597l-49 -119q197 -9 197 -177q0 -96 -70 -150t-197 -54q-86 0 -147 17v135q37 -14 116 -14q111 0 111 59q0 56 -130 56h-60v115l53 126h-126v1443h302z" />
    <glyph glyph-name="uni1E29" unicode="&#x1e29;" horiz-adv-x="1332" 
d="M441 1524v-602h18q38 93 131 148q92 54 215 54q186 0 288 -109q102 -108 102 -305v-710h-291v641q0 232 -216 232q-109 0 -176 -67q-66 -66 -66 -173v-627l-52 -124q92 -2 146 -50q53 -47 53 -127q0 -97 -69 -151t-198 -54q-88 0 -147 18v134q40 -14 116 -14
q112 0 112 57q0 32 -29 45t-101 13h-60v116l57 131h-119v1524h286z" />
    <glyph glyph-name="uni1E2A" unicode="&#x1e2a;" horiz-adv-x="1604" 
d="M611 -105q0 -69 50 -112q52 -43 140 -43t140 43q50 43 50 112h210q0 -139 -105 -227q-110 -92 -295 -92t-295 92q-105 88 -105 227h210zM1126 0v603h-650v-603h-302v1443h302v-582h650v582h302v-1443h-302z" />
    <glyph glyph-name="uni1E2B" unicode="&#x1e2b;" horiz-adv-x="1332" 
d="M488 -105q0 -69 50 -112q52 -43 140 -43t140 43q50 43 50 112h210q0 -139 -105 -227q-110 -92 -295 -92t-295 92q-105 88 -105 227h210zM155 1524h286v-602h18q38 94 131 148t215 54q185 0 287 -108q103 -108 103 -306v-710h-291v641q0 232 -216 232q-109 0 -176 -66
q-66 -66 -66 -174v-633h-291v1524z" />
    <glyph glyph-name="uni1E2C" unicode="&#x1e2c;" horiz-adv-x="652" 
d="M175 0v1443h302v-1443h-302zM313 -361q-83 66 -125 66q-82 0 -85 -117h-183q0 140 70 218q66 74 177 74q93 0 178 -66q84 -66 119 -66q82 0 86 113h182q0 -137 -69 -215q-67 -74 -178 -74q-88 0 -172 67z" />
    <glyph glyph-name="uni1E2D" unicode="&#x1e2d;" horiz-adv-x="587" 
d="M148 1103h291v-1103h-291v1103zM169 1298q-47 41 -47 106q0 66 47 106q47 41 125 41t125 -41q47 -40 47 -106q0 -65 -47 -106q-48 -41 -125 -41q-78 0 -125 41zM281 -361q-83 66 -125 66q-82 0 -85 -117h-183q0 140 70 218q66 74 177 74q93 0 178 -66q84 -66 119 -66
q82 0 86 113h182q0 -137 -69 -215q-67 -74 -178 -74q-88 0 -172 67z" />
    <glyph glyph-name="uni1E2E" unicode="&#x1e2e;" horiz-adv-x="652" 
d="M175 0v1443h302v-1443h-302zM372 2179h292l-218 -242h-240zM-19 1622q-44 43 -44 109t44 109q43 42 111 42t111 -42q44 -43 44 -109t-44 -109t-111 -43t-111 43zM449 1622q-44 43 -44 109t44 109q44 42 111 42q68 0 112 -42q44 -43 44 -109t-44 -109t-112 -43
q-67 0 -111 43z" />
    <glyph glyph-name="uni1E2F" unicode="&#x1e2f;" horiz-adv-x="593" 
d="M376 1959h281l-247 -319h-241zM-48 1301q-44 43 -44 109t44 109q43 42 111 42t111 -42q44 -43 44 -109t-44 -109t-111 -43t-111 43zM420 1301q-44 43 -44 109t44 109q44 42 111 42q68 0 112 -42q44 -43 44 -109t-44 -109t-112 -43q-67 0 -111 43zM151 1103h291v-1103
h-291v1103z" />
    <glyph glyph-name="uni1E30" unicode="&#x1e30;" horiz-adv-x="1453" 
d="M837 1908h315l-314 -318h-278zM174 0v1443h302v-643h18l533 643h336l-526 -633l563 -810h-362l-419 604l-143 -169v-435h-302z" />
    <glyph glyph-name="uni1E31" unicode="&#x1e31;" horiz-adv-x="1232" 
d="M437 1989h315l-314 -318h-278zM833 1103h331l-420 -473l449 -630h-345l-322 448l-80 -82v-366h-291v1524h291v-852h18z" />
    <glyph glyph-name="uni1E32" unicode="&#x1e32;" horiz-adv-x="1453" 
d="M587 -379q-43 39 -43 100t43 100q44 39 114 39t114 -39q43 -39 43 -100t-43 -100q-43 -40 -114 -40t-114 40zM174 0v1443h302v-643h18l533 643h336l-526 -633l563 -810h-362l-419 604l-143 -169v-435h-302z" />
    </font>
</defs>
</svg>
